{
  "title": "晚风里的光",
  "bpm": 96,
  "key": "C",
  "time_signature": "4/4",
  "length_bars": 72,
  "markers": [
    {
      "bar": 1.0,
      "name": "Intro"
    },
    {
      "bar": 9.0,
      "name": "Verse A"
    },
    {
      "bar": 25.0,
      "name": "Pre-Chorus"
    },
    {
      "bar": 33.0,
      "name": "Chorus"
    },
    {
      "bar": 49.0,
      "name": "Bridge"
    },
    {
      "bar": 57.0,
      "name": "Final Chorus"
    }
  ],
  "tracks": [
    {
      "name": "Piano",
      "kind": "instrument",
      "channel": 0,
      "volume": 112,
      "pan": 64,
      "muted": false,
      "solo": false,
      "record_armed": false,
      "effects": [
        {
          "type": "eq",
          "enabled": true,
          "params": {
            "bands": [
              {
                "type": "peaking",
                "frequency": 350,
                "gain_db": -2,
                "q": 1
              }
            ]
          }
        }
      ],
      "notes": [],
      "clips": [
        {
          "id": "intro-piano",
          "name": "Intro Piano",
          "bar": 1.0,
          "beats": 32.0,
          "color": "#18a83a",
          "loop_count": 1,
          "notes": [
            {
              "bar": 1.0,
              "beat": 1.0,
              "pitch": 69,
              "duration": 0.45,
              "velocity": 69
            },
            {
              "bar": 1.0,
              "beat": 1.5,
              "pitch": 76,
              "duration": 0.45,
              "velocity": 69
            },
            {
              "bar": 1.0,
              "beat": 2.0,
              "pitch": 72,
              "duration": 0.45,
              "velocity": 69
            },
            {
              "bar": 1.0,
              "beat": 2.5,
              "pitch": 76,
              "duration": 0.45,
              "velocity": 69
            },
            {
              "bar": 1.0,
              "beat": 3.0,
              "pitch": 81,
              "duration": 0.45,
              "velocity": 69
            },
            {
              "bar": 1.0,
              "beat": 3.5,
              "pitch": 76,
              "duration": 0.45,
              "velocity": 69
            },
            {
              "bar": 1.0,
              "beat": 4.0,
              "pitch": 72,
              "duration": 0.45,
              "velocity": 69
            },
            {
              "bar": 1.0,
              "beat": 4.5,
              "pitch": 76,
              "duration": 0.45,
              "velocity": 69
            },
            {
              "bar": 2.0,
              "beat": 1.0,
              "pitch": 65,
              "duration": 0.45,
              "velocity": 72
            },
            {
              "bar": 2.0,
              "beat": 1.5,
              "pitch": 72,
              "duration": 0.45,
              "velocity": 72
            },
            {
              "bar": 2.0,
              "beat": 2.0,
              "pitch": 69,
              "duration": 0.45,
              "velocity": 72
            },
            {
              "bar": 2.0,
              "beat": 2.5,
              "pitch": 72,
              "duration": 0.45,
              "velocity": 72
            },
            {
              "bar": 2.0,
              "beat": 3.0,
              "pitch": 77,
              "duration": 0.45,
              "velocity": 72
            },
            {
              "bar": 2.0,
              "beat": 3.5,
              "pitch": 72,
              "duration": 0.45,
              "velocity": 72
            },
            {
              "bar": 2.0,
              "beat": 4.0,
              "pitch": 69,
              "duration": 0.45,
              "velocity": 72
            },
            {
              "bar": 2.0,
              "beat": 4.5,
              "pitch": 72,
              "duration": 0.45,
              "velocity": 72
            },
            {
              "bar": 3.0,
              "beat": 1.0,
              "pitch": 60,
              "duration": 0.45,
              "velocity": 75
            },
            {
              "bar": 3.0,
              "beat": 1.5,
              "pitch": 67,
              "duration": 0.45,
              "velocity": 75
            },
            {
              "bar": 3.0,
              "beat": 2.0,
              "pitch": 64,
              "duration": 0.45,
              "velocity": 75
            },
            {
              "bar": 3.0,
              "beat": 2.5,
              "pitch": 67,
              "duration": 0.45,
              "velocity": 75
            },
            {
              "bar": 3.0,
              "beat": 3.0,
              "pitch": 72,
              "duration": 0.45,
              "velocity": 75
            },
            {
              "bar": 3.0,
              "beat": 3.5,
              "pitch": 67,
              "duration": 0.45,
              "velocity": 75
            },
            {
              "bar": 3.0,
              "beat": 4.0,
              "pitch": 64,
              "duration": 0.45,
              "velocity": 75
            },
            {
              "bar": 3.0,
              "beat": 4.5,
              "pitch": 67,
              "duration": 0.45,
              "velocity": 75
            },
            {
              "bar": 4.0,
              "beat": 1.0,
              "pitch": 67,
              "duration": 0.45,
              "velocity": 66
            },
            {
              "bar": 4.0,
              "beat": 1.5,
              "pitch": 74,
              "duration": 0.45,
              "velocity": 66
            },
            {
              "bar": 4.0,
              "beat": 2.0,
              "pitch": 71,
              "duration": 0.45,
              "velocity": 66
            },
            {
              "bar": 4.0,
              "beat": 2.5,
              "pitch": 74,
              "duration": 0.45,
              "velocity": 66
            },
            {
              "bar": 4.0,
              "beat": 3.0,
              "pitch": 79,
              "duration": 0.45,
              "velocity": 66
            },
            {
              "bar": 4.0,
              "beat": 3.5,
              "pitch": 74,
              "duration": 0.45,
              "velocity": 66
            },
            {
              "bar": 4.0,
              "beat": 4.0,
              "pitch": 71,
              "duration": 0.45,
              "velocity": 66
            },
            {
              "bar": 4.0,
              "beat": 4.5,
              "pitch": 74,
              "duration": 0.45,
              "velocity": 66
            },
            {
              "bar": 5.0,
              "beat": 1.0,
              "pitch": 69,
              "duration": 0.45,
              "velocity": 69
            },
            {
              "bar": 5.0,
              "beat": 1.5,
              "pitch": 76,
              "duration": 0.45,
              "velocity": 69
            },
            {
              "bar": 5.0,
              "beat": 2.0,
              "pitch": 72,
              "duration": 0.45,
              "velocity": 69
            },
            {
              "bar": 5.0,
              "beat": 2.5,
              "pitch": 76,
              "duration": 0.45,
              "velocity": 69
            },
            {
              "bar": 5.0,
              "beat": 3.0,
              "pitch": 81,
              "duration": 0.45,
              "velocity": 69
            },
            {
              "bar": 5.0,
              "beat": 3.5,
              "pitch": 76,
              "duration": 0.45,
              "velocity": 69
            },
            {
              "bar": 5.0,
              "beat": 4.0,
              "pitch": 72,
              "duration": 0.45,
              "velocity": 69
            },
            {
              "bar": 5.0,
              "beat": 4.5,
              "pitch": 76,
              "duration": 0.45,
              "velocity": 69
            },
            {
              "bar": 6.0,
              "beat": 1.0,
              "pitch": 65,
              "duration": 0.45,
              "velocity": 72
            },
            {
              "bar": 6.0,
              "beat": 1.5,
              "pitch": 72,
              "duration": 0.45,
              "velocity": 72
            },
            {
              "bar": 6.0,
              "beat": 2.0,
              "pitch": 69,
              "duration": 0.45,
              "velocity": 72
            },
            {
              "bar": 6.0,
              "beat": 2.5,
              "pitch": 72,
              "duration": 0.45,
              "velocity": 72
            },
            {
              "bar": 6.0,
              "beat": 3.0,
              "pitch": 77,
              "duration": 0.45,
              "velocity": 72
            },
            {
              "bar": 6.0,
              "beat": 3.5,
              "pitch": 72,
              "duration": 0.45,
              "velocity": 72
            },
            {
              "bar": 6.0,
              "beat": 4.0,
              "pitch": 69,
              "duration": 0.45,
              "velocity": 72
            },
            {
              "bar": 6.0,
              "beat": 4.5,
              "pitch": 72,
              "duration": 0.45,
              "velocity": 72
            },
            {
              "bar": 7.0,
              "beat": 1.0,
              "pitch": 60,
              "duration": 0.45,
              "velocity": 75
            },
            {
              "bar": 7.0,
              "beat": 1.5,
              "pitch": 67,
              "duration": 0.45,
              "velocity": 75
            },
            {
              "bar": 7.0,
              "beat": 2.0,
              "pitch": 64,
              "duration": 0.45,
              "velocity": 75
            },
            {
              "bar": 7.0,
              "beat": 2.5,
              "pitch": 67,
              "duration": 0.45,
              "velocity": 75
            },
            {
              "bar": 7.0,
              "beat": 3.0,
              "pitch": 72,
              "duration": 0.45,
              "velocity": 75
            },
            {
              "bar": 7.0,
              "beat": 3.5,
              "pitch": 67,
              "duration": 0.45,
              "velocity": 75
            },
            {
              "bar": 7.0,
              "beat": 4.0,
              "pitch": 64,
              "duration": 0.45,
              "velocity": 75
            },
            {
              "bar": 7.0,
              "beat": 4.5,
              "pitch": 67,
              "duration": 0.45,
              "velocity": 75
            },
            {
              "bar": 8.0,
              "beat": 1.0,
              "pitch": 67,
              "duration": 0.45,
              "velocity": 66
            },
            {
              "bar": 8.0,
              "beat": 1.5,
              "pitch": 74,
              "duration": 0.45,
              "velocity": 66
            },
            {
              "bar": 8.0,
              "beat": 2.0,
              "pitch": 71,
              "duration": 0.45,
              "velocity": 66
            },
            {
              "bar": 8.0,
              "beat": 2.5,
              "pitch": 74,
              "duration": 0.45,
              "velocity": 66
            },
            {
              "bar": 8.0,
              "beat": 3.0,
              "pitch": 79,
              "duration": 0.45,
              "velocity": 66
            },
            {
              "bar": 8.0,
              "beat": 3.5,
              "pitch": 74,
              "duration": 0.45,
              "velocity": 66
            },
            {
              "bar": 8.0,
              "beat": 4.0,
              "pitch": 71,
              "duration": 0.45,
              "velocity": 66
            },
            {
              "bar": 8.0,
              "beat": 4.5,
              "pitch": 74,
              "duration": 0.45,
              "velocity": 66
            }
          ]
        },
        {
          "id": "verse-a-piano",
          "name": "Verse A Piano",
          "bar": 9.0,
          "beats": 64.0,
          "color": "#18a83a",
          "loop_count": 1,
          "notes": [
            {
              "bar": 1.0,
              "beat": 1.0,
              "pitch": 69,
              "duration": 0.45,
              "velocity": 69
            },
            {
              "bar": 1.0,
              "beat": 1.5,
              "pitch": 76,
              "duration": 0.45,
              "velocity": 69
            },
            {
              "bar": 1.0,
              "beat": 2.0,
              "pitch": 72,
              "duration": 0.45,
              "velocity": 69
            },
            {
              "bar": 1.0,
              "beat": 2.5,
              "pitch": 76,
              "duration": 0.45,
              "velocity": 69
            },
            {
              "bar": 1.0,
              "beat": 3.0,
              "pitch": 81,
              "duration": 0.45,
              "velocity": 69
            },
            {
              "bar": 1.0,
              "beat": 3.5,
              "pitch": 76,
              "duration": 0.45,
              "velocity": 69
            },
            {
              "bar": 1.0,
              "beat": 4.0,
              "pitch": 72,
              "duration": 0.45,
              "velocity": 69
            },
            {
              "bar": 1.0,
              "beat": 4.5,
              "pitch": 76,
              "duration": 0.45,
              "velocity": 69
            },
            {
              "bar": 2.0,
              "beat": 1.0,
              "pitch": 65,
              "duration": 0.45,
              "velocity": 72
            },
            {
              "bar": 2.0,
              "beat": 1.5,
              "pitch": 72,
              "duration": 0.45,
              "velocity": 72
            },
            {
              "bar": 2.0,
              "beat": 2.0,
              "pitch": 69,
              "duration": 0.45,
              "velocity": 72
            },
            {
              "bar": 2.0,
              "beat": 2.5,
              "pitch": 72,
              "duration": 0.45,
              "velocity": 72
            },
            {
              "bar": 2.0,
              "beat": 3.0,
              "pitch": 77,
              "duration": 0.45,
              "velocity": 72
            },
            {
              "bar": 2.0,
              "beat": 3.5,
              "pitch": 72,
              "duration": 0.45,
              "velocity": 72
            },
            {
              "bar": 2.0,
              "beat": 4.0,
              "pitch": 69,
              "duration": 0.45,
              "velocity": 72
            },
            {
              "bar": 2.0,
              "beat": 4.5,
              "pitch": 72,
              "duration": 0.45,
              "velocity": 72
            },
            {
              "bar": 3.0,
              "beat": 1.0,
              "pitch": 60,
              "duration": 0.45,
              "velocity": 75
            },
            {
              "bar": 3.0,
              "beat": 1.5,
              "pitch": 67,
              "duration": 0.45,
              "velocity": 75
            },
            {
              "bar": 3.0,
              "beat": 2.0,
              "pitch": 64,
              "duration": 0.45,
              "velocity": 75
            },
            {
              "bar": 3.0,
              "beat": 2.5,
              "pitch": 67,
              "duration": 0.45,
              "velocity": 75
            },
            {
              "bar": 3.0,
              "beat": 3.0,
              "pitch": 72,
              "duration": 0.45,
              "velocity": 75
            },
            {
              "bar": 3.0,
              "beat": 3.5,
              "pitch": 67,
              "duration": 0.45,
              "velocity": 75
            },
            {
              "bar": 3.0,
              "beat": 4.0,
              "pitch": 64,
              "duration": 0.45,
              "velocity": 75
            },
            {
              "bar": 3.0,
              "beat": 4.5,
              "pitch": 67,
              "duration": 0.45,
              "velocity": 75
            },
            {
              "bar": 4.0,
              "beat": 1.0,
              "pitch": 67,
              "duration": 0.45,
              "velocity": 66
            },
            {
              "bar": 4.0,
              "beat": 1.5,
              "pitch": 74,
              "duration": 0.45,
              "velocity": 66
            },
            {
              "bar": 4.0,
              "beat": 2.0,
              "pitch": 71,
              "duration": 0.45,
              "velocity": 66
            },
            {
              "bar": 4.0,
              "beat": 2.5,
              "pitch": 74,
              "duration": 0.45,
              "velocity": 66
            },
            {
              "bar": 4.0,
              "beat": 3.0,
              "pitch": 79,
              "duration": 0.45,
              "velocity": 66
            },
            {
              "bar": 4.0,
              "beat": 3.5,
              "pitch": 74,
              "duration": 0.45,
              "velocity": 66
            },
            {
              "bar": 4.0,
              "beat": 4.0,
              "pitch": 71,
              "duration": 0.45,
              "velocity": 66
            },
            {
              "bar": 4.0,
              "beat": 4.5,
              "pitch": 74,
              "duration": 0.45,
              "velocity": 66
            },
            {
              "bar": 5.0,
              "beat": 1.0,
              "pitch": 69,
              "duration": 0.45,
              "velocity": 69
            },
            {
              "bar": 5.0,
              "beat": 1.5,
              "pitch": 76,
              "duration": 0.45,
              "velocity": 69
            },
            {
              "bar": 5.0,
              "beat": 2.0,
              "pitch": 72,
              "duration": 0.45,
              "velocity": 69
            },
            {
              "bar": 5.0,
              "beat": 2.5,
              "pitch": 76,
              "duration": 0.45,
              "velocity": 69
            },
            {
              "bar": 5.0,
              "beat": 3.0,
              "pitch": 81,
              "duration": 0.45,
              "velocity": 69
            },
            {
              "bar": 5.0,
              "beat": 3.5,
              "pitch": 76,
              "duration": 0.45,
              "velocity": 69
            },
            {
              "bar": 5.0,
              "beat": 4.0,
              "pitch": 72,
              "duration": 0.45,
              "velocity": 69
            },
            {
              "bar": 5.0,
              "beat": 4.5,
              "pitch": 76,
              "duration": 0.45,
              "velocity": 69
            },
            {
              "bar": 6.0,
              "beat": 1.0,
              "pitch": 65,
              "duration": 0.45,
              "velocity": 72
            },
            {
              "bar": 6.0,
              "beat": 1.5,
              "pitch": 72,
              "duration": 0.45,
              "velocity": 72
            },
            {
              "bar": 6.0,
              "beat": 2.0,
              "pitch": 69,
              "duration": 0.45,
              "velocity": 72
            },
            {
              "bar": 6.0,
              "beat": 2.5,
              "pitch": 72,
              "duration": 0.45,
              "velocity": 72
            },
            {
              "bar": 6.0,
              "beat": 3.0,
              "pitch": 77,
              "duration": 0.45,
              "velocity": 72
            },
            {
              "bar": 6.0,
              "beat": 3.5,
              "pitch": 72,
              "duration": 0.45,
              "velocity": 72
            },
            {
              "bar": 6.0,
              "beat": 4.0,
              "pitch": 69,
              "duration": 0.45,
              "velocity": 72
            },
            {
              "bar": 6.0,
              "beat": 4.5,
              "pitch": 72,
              "duration": 0.45,
              "velocity": 72
            },
            {
              "bar": 7.0,
              "beat": 1.0,
              "pitch": 60,
              "duration": 0.45,
              "velocity": 75
            },
            {
              "bar": 7.0,
              "beat": 1.5,
              "pitch": 67,
              "duration": 0.45,
              "velocity": 75
            },
            {
              "bar": 7.0,
              "beat": 2.0,
              "pitch": 64,
              "duration": 0.45,
              "velocity": 75
            },
            {
              "bar": 7.0,
              "beat": 2.5,
              "pitch": 67,
              "duration": 0.45,
              "velocity": 75
            },
            {
              "bar": 7.0,
              "beat": 3.0,
              "pitch": 72,
              "duration": 0.45,
              "velocity": 75
            },
            {
              "bar": 7.0,
              "beat": 3.5,
              "pitch": 67,
              "duration": 0.45,
              "velocity": 75
            },
            {
              "bar": 7.0,
              "beat": 4.0,
              "pitch": 64,
              "duration": 0.45,
              "velocity": 75
            },
            {
              "bar": 7.0,
              "beat": 4.5,
              "pitch": 67,
              "duration": 0.45,
              "velocity": 75
            },
            {
              "bar": 8.0,
              "beat": 1.0,
              "pitch": 67,
              "duration": 0.45,
              "velocity": 66
            },
            {
              "bar": 8.0,
              "beat": 1.5,
              "pitch": 74,
              "duration": 0.45,
              "velocity": 66
            },
            {
              "bar": 8.0,
              "beat": 2.0,
              "pitch": 71,
              "duration": 0.45,
              "velocity": 66
            },
            {
              "bar": 8.0,
              "beat": 2.5,
              "pitch": 74,
              "duration": 0.45,
              "velocity": 66
            },
            {
              "bar": 8.0,
              "beat": 3.0,
              "pitch": 79,
              "duration": 0.45,
              "velocity": 66
            },
            {
              "bar": 8.0,
              "beat": 3.5,
              "pitch": 74,
              "duration": 0.45,
              "velocity": 66
            },
            {
              "bar": 8.0,
              "beat": 4.0,
              "pitch": 71,
              "duration": 0.45,
              "velocity": 66
            },
            {
              "bar": 8.0,
              "beat": 4.5,
              "pitch": 74,
              "duration": 0.45,
              "velocity": 66
            },
            {
              "bar": 9.0,
              "beat": 1.0,
              "pitch": 69,
              "duration": 0.45,
              "velocity": 69
            },
            {
              "bar": 9.0,
              "beat": 1.5,
              "pitch": 76,
              "duration": 0.45,
              "velocity": 69
            },
            {
              "bar": 9.0,
              "beat": 2.0,
              "pitch": 72,
              "duration": 0.45,
              "velocity": 69
            },
            {
              "bar": 9.0,
              "beat": 2.5,
              "pitch": 76,
              "duration": 0.45,
              "velocity": 69
            },
            {
              "bar": 9.0,
              "beat": 3.0,
              "pitch": 81,
              "duration": 0.45,
              "velocity": 69
            },
            {
              "bar": 9.0,
              "beat": 3.5,
              "pitch": 76,
              "duration": 0.45,
              "velocity": 69
            },
            {
              "bar": 9.0,
              "beat": 4.0,
              "pitch": 72,
              "duration": 0.45,
              "velocity": 69
            },
            {
              "bar": 9.0,
              "beat": 4.5,
              "pitch": 76,
              "duration": 0.45,
              "velocity": 69
            },
            {
              "bar": 10.0,
              "beat": 1.0,
              "pitch": 65,
              "duration": 0.45,
              "velocity": 72
            },
            {
              "bar": 10.0,
              "beat": 1.5,
              "pitch": 72,
              "duration": 0.45,
              "velocity": 72
            },
            {
              "bar": 10.0,
              "beat": 2.0,
              "pitch": 69,
              "duration": 0.45,
              "velocity": 72
            },
            {
              "bar": 10.0,
              "beat": 2.5,
              "pitch": 72,
              "duration": 0.45,
              "velocity": 72
            },
            {
              "bar": 10.0,
              "beat": 3.0,
              "pitch": 77,
              "duration": 0.45,
              "velocity": 72
            },
            {
              "bar": 10.0,
              "beat": 3.5,
              "pitch": 72,
              "duration": 0.45,
              "velocity": 72
            },
            {
              "bar": 10.0,
              "beat": 4.0,
              "pitch": 69,
              "duration": 0.45,
              "velocity": 72
            },
            {
              "bar": 10.0,
              "beat": 4.5,
              "pitch": 72,
              "duration": 0.45,
              "velocity": 72
            },
            {
              "bar": 11.0,
              "beat": 1.0,
              "pitch": 60,
              "duration": 0.45,
              "velocity": 75
            },
            {
              "bar": 11.0,
              "beat": 1.5,
              "pitch": 67,
              "duration": 0.45,
              "velocity": 75
            },
            {
              "bar": 11.0,
              "beat": 2.0,
              "pitch": 64,
              "duration": 0.45,
              "velocity": 75
            },
            {
              "bar": 11.0,
              "beat": 2.5,
              "pitch": 67,
              "duration": 0.45,
              "velocity": 75
            },
            {
              "bar": 11.0,
              "beat": 3.0,
              "pitch": 72,
              "duration": 0.45,
              "velocity": 75
            },
            {
              "bar": 11.0,
              "beat": 3.5,
              "pitch": 67,
              "duration": 0.45,
              "velocity": 75
            },
            {
              "bar": 11.0,
              "beat": 4.0,
              "pitch": 64,
              "duration": 0.45,
              "velocity": 75
            },
            {
              "bar": 11.0,
              "beat": 4.5,
              "pitch": 67,
              "duration": 0.45,
              "velocity": 75
            },
            {
              "bar": 12.0,
              "beat": 1.0,
              "pitch": 67,
              "duration": 0.45,
              "velocity": 66
            },
            {
              "bar": 12.0,
              "beat": 1.5,
              "pitch": 74,
              "duration": 0.45,
              "velocity": 66
            },
            {
              "bar": 12.0,
              "beat": 2.0,
              "pitch": 71,
              "duration": 0.45,
              "velocity": 66
            },
            {
              "bar": 12.0,
              "beat": 2.5,
              "pitch": 74,
              "duration": 0.45,
              "velocity": 66
            },
            {
              "bar": 12.0,
              "beat": 3.0,
              "pitch": 79,
              "duration": 0.45,
              "velocity": 66
            },
            {
              "bar": 12.0,
              "beat": 3.5,
              "pitch": 74,
              "duration": 0.45,
              "velocity": 66
            },
            {
              "bar": 12.0,
              "beat": 4.0,
              "pitch": 71,
              "duration": 0.45,
              "velocity": 66
            },
            {
              "bar": 12.0,
              "beat": 4.5,
              "pitch": 74,
              "duration": 0.45,
              "velocity": 66
            },
            {
              "bar": 13.0,
              "beat": 1.0,
              "pitch": 69,
              "duration": 0.45,
              "velocity": 69
            },
            {
              "bar": 13.0,
              "beat": 1.5,
              "pitch": 76,
              "duration": 0.45,
              "velocity": 69
            },
            {
              "bar": 13.0,
              "beat": 2.0,
              "pitch": 72,
              "duration": 0.45,
              "velocity": 69
            },
            {
              "bar": 13.0,
              "beat": 2.5,
              "pitch": 76,
              "duration": 0.45,
              "velocity": 69
            },
            {
              "bar": 13.0,
              "beat": 3.0,
              "pitch": 81,
              "duration": 0.45,
              "velocity": 69
            },
            {
              "bar": 13.0,
              "beat": 3.5,
              "pitch": 76,
              "duration": 0.45,
              "velocity": 69
            },
            {
              "bar": 13.0,
              "beat": 4.0,
              "pitch": 72,
              "duration": 0.45,
              "velocity": 69
            },
            {
              "bar": 13.0,
              "beat": 4.5,
              "pitch": 76,
              "duration": 0.45,
              "velocity": 69
            },
            {
              "bar": 14.0,
              "beat": 1.0,
              "pitch": 65,
              "duration": 0.45,
              "velocity": 72
            },
            {
              "bar": 14.0,
              "beat": 1.5,
              "pitch": 72,
              "duration": 0.45,
              "velocity": 72
            },
            {
              "bar": 14.0,
              "beat": 2.0,
              "pitch": 69,
              "duration": 0.45,
              "velocity": 72
            },
            {
              "bar": 14.0,
              "beat": 2.5,
              "pitch": 72,
              "duration": 0.45,
              "velocity": 72
            },
            {
              "bar": 14.0,
              "beat": 3.0,
              "pitch": 77,
              "duration": 0.45,
              "velocity": 72
            },
            {
              "bar": 14.0,
              "beat": 3.5,
              "pitch": 72,
              "duration": 0.45,
              "velocity": 72
            },
            {
              "bar": 14.0,
              "beat": 4.0,
              "pitch": 69,
              "duration": 0.45,
              "velocity": 72
            },
            {
              "bar": 14.0,
              "beat": 4.5,
              "pitch": 72,
              "duration": 0.45,
              "velocity": 72
            },
            {
              "bar": 15.0,
              "beat": 1.0,
              "pitch": 60,
              "duration": 0.45,
              "velocity": 75
            },
            {
              "bar": 15.0,
              "beat": 1.5,
              "pitch": 67,
              "duration": 0.45,
              "velocity": 75
            },
            {
              "bar": 15.0,
              "beat": 2.0,
              "pitch": 64,
              "duration": 0.45,
              "velocity": 75
            },
            {
              "bar": 15.0,
              "beat": 2.5,
              "pitch": 67,
              "duration": 0.45,
              "velocity": 75
            },
            {
              "bar": 15.0,
              "beat": 3.0,
              "pitch": 72,
              "duration": 0.45,
              "velocity": 75
            },
            {
              "bar": 15.0,
              "beat": 3.5,
              "pitch": 67,
              "duration": 0.45,
              "velocity": 75
            },
            {
              "bar": 15.0,
              "beat": 4.0,
              "pitch": 64,
              "duration": 0.45,
              "velocity": 75
            },
            {
              "bar": 15.0,
              "beat": 4.5,
              "pitch": 67,
              "duration": 0.45,
              "velocity": 75
            },
            {
              "bar": 16.0,
              "beat": 1.0,
              "pitch": 67,
              "duration": 0.45,
              "velocity": 66
            },
            {
              "bar": 16.0,
              "beat": 1.5,
              "pitch": 74,
              "duration": 0.45,
              "velocity": 66
            },
            {
              "bar": 16.0,
              "beat": 2.0,
              "pitch": 71,
              "duration": 0.45,
              "velocity": 66
            },
            {
              "bar": 16.0,
              "beat": 2.5,
              "pitch": 74,
              "duration": 0.45,
              "velocity": 66
            },
            {
              "bar": 16.0,
              "beat": 3.0,
              "pitch": 79,
              "duration": 0.45,
              "velocity": 66
            },
            {
              "bar": 16.0,
              "beat": 3.5,
              "pitch": 74,
              "duration": 0.45,
              "velocity": 66
            },
            {
              "bar": 16.0,
              "beat": 4.0,
              "pitch": 71,
              "duration": 0.45,
              "velocity": 66
            },
            {
              "bar": 16.0,
              "beat": 4.5,
              "pitch": 74,
              "duration": 0.45,
              "velocity": 66
            }
          ]
        },
        {
          "id": "pre-chorus-piano",
          "name": "Pre-Chorus Piano",
          "bar": 25.0,
          "beats": 32.0,
          "color": "#18a83a",
          "loop_count": 1,
          "notes": [
            {
              "bar": 1.0,
              "beat": 1.0,
              "pitch": 69,
              "duration": 0.45,
              "velocity": 69
            },
            {
              "bar": 1.0,
              "beat": 1.5,
              "pitch": 76,
              "duration": 0.45,
              "velocity": 69
            },
            {
              "bar": 1.0,
              "beat": 2.0,
              "pitch": 72,
              "duration": 0.45,
              "velocity": 69
            },
            {
              "bar": 1.0,
              "beat": 2.5,
              "pitch": 76,
              "duration": 0.45,
              "velocity": 69
            },
            {
              "bar": 1.0,
              "beat": 3.0,
              "pitch": 81,
              "duration": 0.45,
              "velocity": 69
            },
            {
              "bar": 1.0,
              "beat": 3.5,
              "pitch": 76,
              "duration": 0.45,
              "velocity": 69
            },
            {
              "bar": 1.0,
              "beat": 4.0,
              "pitch": 72,
              "duration": 0.45,
              "velocity": 69
            },
            {
              "bar": 1.0,
              "beat": 4.5,
              "pitch": 76,
              "duration": 0.45,
              "velocity": 69
            },
            {
              "bar": 2.0,
              "beat": 1.0,
              "pitch": 65,
              "duration": 0.45,
              "velocity": 72
            },
            {
              "bar": 2.0,
              "beat": 1.5,
              "pitch": 72,
              "duration": 0.45,
              "velocity": 72
            },
            {
              "bar": 2.0,
              "beat": 2.0,
              "pitch": 69,
              "duration": 0.45,
              "velocity": 72
            },
            {
              "bar": 2.0,
              "beat": 2.5,
              "pitch": 72,
              "duration": 0.45,
              "velocity": 72
            },
            {
              "bar": 2.0,
              "beat": 3.0,
              "pitch": 77,
              "duration": 0.45,
              "velocity": 72
            },
            {
              "bar": 2.0,
              "beat": 3.5,
              "pitch": 72,
              "duration": 0.45,
              "velocity": 72
            },
            {
              "bar": 2.0,
              "beat": 4.0,
              "pitch": 69,
              "duration": 0.45,
              "velocity": 72
            },
            {
              "bar": 2.0,
              "beat": 4.5,
              "pitch": 72,
              "duration": 0.45,
              "velocity": 72
            },
            {
              "bar": 3.0,
              "beat": 1.0,
              "pitch": 60,
              "duration": 0.45,
              "velocity": 75
            },
            {
              "bar": 3.0,
              "beat": 1.5,
              "pitch": 67,
              "duration": 0.45,
              "velocity": 75
            },
            {
              "bar": 3.0,
              "beat": 2.0,
              "pitch": 64,
              "duration": 0.45,
              "velocity": 75
            },
            {
              "bar": 3.0,
              "beat": 2.5,
              "pitch": 67,
              "duration": 0.45,
              "velocity": 75
            },
            {
              "bar": 3.0,
              "beat": 3.0,
              "pitch": 72,
              "duration": 0.45,
              "velocity": 75
            },
            {
              "bar": 3.0,
              "beat": 3.5,
              "pitch": 67,
              "duration": 0.45,
              "velocity": 75
            },
            {
              "bar": 3.0,
              "beat": 4.0,
              "pitch": 64,
              "duration": 0.45,
              "velocity": 75
            },
            {
              "bar": 3.0,
              "beat": 4.5,
              "pitch": 67,
              "duration": 0.45,
              "velocity": 75
            },
            {
              "bar": 4.0,
              "beat": 1.0,
              "pitch": 67,
              "duration": 0.45,
              "velocity": 66
            },
            {
              "bar": 4.0,
              "beat": 1.5,
              "pitch": 74,
              "duration": 0.45,
              "velocity": 66
            },
            {
              "bar": 4.0,
              "beat": 2.0,
              "pitch": 71,
              "duration": 0.45,
              "velocity": 66
            },
            {
              "bar": 4.0,
              "beat": 2.5,
              "pitch": 74,
              "duration": 0.45,
              "velocity": 66
            },
            {
              "bar": 4.0,
              "beat": 3.0,
              "pitch": 79,
              "duration": 0.45,
              "velocity": 66
            },
            {
              "bar": 4.0,
              "beat": 3.5,
              "pitch": 74,
              "duration": 0.45,
              "velocity": 66
            },
            {
              "bar": 4.0,
              "beat": 4.0,
              "pitch": 71,
              "duration": 0.45,
              "velocity": 66
            },
            {
              "bar": 4.0,
              "beat": 4.5,
              "pitch": 74,
              "duration": 0.45,
              "velocity": 66
            },
            {
              "bar": 5.0,
              "beat": 1.0,
              "pitch": 69,
              "duration": 0.45,
              "velocity": 69
            },
            {
              "bar": 5.0,
              "beat": 1.5,
              "pitch": 76,
              "duration": 0.45,
              "velocity": 69
            },
            {
              "bar": 5.0,
              "beat": 2.0,
              "pitch": 72,
              "duration": 0.45,
              "velocity": 69
            },
            {
              "bar": 5.0,
              "beat": 2.5,
              "pitch": 76,
              "duration": 0.45,
              "velocity": 69
            },
            {
              "bar": 5.0,
              "beat": 3.0,
              "pitch": 81,
              "duration": 0.45,
              "velocity": 69
            },
            {
              "bar": 5.0,
              "beat": 3.5,
              "pitch": 76,
              "duration": 0.45,
              "velocity": 69
            },
            {
              "bar": 5.0,
              "beat": 4.0,
              "pitch": 72,
              "duration": 0.45,
              "velocity": 69
            },
            {
              "bar": 5.0,
              "beat": 4.5,
              "pitch": 76,
              "duration": 0.45,
              "velocity": 69
            },
            {
              "bar": 6.0,
              "beat": 1.0,
              "pitch": 65,
              "duration": 0.45,
              "velocity": 72
            },
            {
              "bar": 6.0,
              "beat": 1.5,
              "pitch": 72,
              "duration": 0.45,
              "velocity": 72
            },
            {
              "bar": 6.0,
              "beat": 2.0,
              "pitch": 69,
              "duration": 0.45,
              "velocity": 72
            },
            {
              "bar": 6.0,
              "beat": 2.5,
              "pitch": 72,
              "duration": 0.45,
              "velocity": 72
            },
            {
              "bar": 6.0,
              "beat": 3.0,
              "pitch": 77,
              "duration": 0.45,
              "velocity": 72
            },
            {
              "bar": 6.0,
              "beat": 3.5,
              "pitch": 72,
              "duration": 0.45,
              "velocity": 72
            },
            {
              "bar": 6.0,
              "beat": 4.0,
              "pitch": 69,
              "duration": 0.45,
              "velocity": 72
            },
            {
              "bar": 6.0,
              "beat": 4.5,
              "pitch": 72,
              "duration": 0.45,
              "velocity": 72
            },
            {
              "bar": 7.0,
              "beat": 1.0,
              "pitch": 60,
              "duration": 0.45,
              "velocity": 75
            },
            {
              "bar": 7.0,
              "beat": 1.5,
              "pitch": 67,
              "duration": 0.45,
              "velocity": 75
            },
            {
              "bar": 7.0,
              "beat": 2.0,
              "pitch": 64,
              "duration": 0.45,
              "velocity": 75
            },
            {
              "bar": 7.0,
              "beat": 2.5,
              "pitch": 67,
              "duration": 0.45,
              "velocity": 75
            },
            {
              "bar": 7.0,
              "beat": 3.0,
              "pitch": 72,
              "duration": 0.45,
              "velocity": 75
            },
            {
              "bar": 7.0,
              "beat": 3.5,
              "pitch": 67,
              "duration": 0.45,
              "velocity": 75
            },
            {
              "bar": 7.0,
              "beat": 4.0,
              "pitch": 64,
              "duration": 0.45,
              "velocity": 75
            },
            {
              "bar": 7.0,
              "beat": 4.5,
              "pitch": 67,
              "duration": 0.45,
              "velocity": 75
            },
            {
              "bar": 8.0,
              "beat": 1.0,
              "pitch": 67,
              "duration": 0.45,
              "velocity": 66
            },
            {
              "bar": 8.0,
              "beat": 1.5,
              "pitch": 74,
              "duration": 0.45,
              "velocity": 66
            },
            {
              "bar": 8.0,
              "beat": 2.0,
              "pitch": 71,
              "duration": 0.45,
              "velocity": 66
            },
            {
              "bar": 8.0,
              "beat": 2.5,
              "pitch": 74,
              "duration": 0.45,
              "velocity": 66
            },
            {
              "bar": 8.0,
              "beat": 3.0,
              "pitch": 79,
              "duration": 0.45,
              "velocity": 66
            },
            {
              "bar": 8.0,
              "beat": 3.5,
              "pitch": 74,
              "duration": 0.45,
              "velocity": 66
            },
            {
              "bar": 8.0,
              "beat": 4.0,
              "pitch": 71,
              "duration": 0.45,
              "velocity": 66
            },
            {
              "bar": 8.0,
              "beat": 4.5,
              "pitch": 74,
              "duration": 0.45,
              "velocity": 66
            }
          ]
        },
        {
          "id": "chorus-piano",
          "name": "Chorus Piano",
          "bar": 33.0,
          "beats": 64.0,
          "color": "#18a83a",
          "loop_count": 1,
          "notes": [
            {
              "bar": 1.0,
              "beat": 1.0,
              "pitch": 69,
              "duration": 0.45,
              "velocity": 69
            },
            {
              "bar": 1.0,
              "beat": 1.5,
              "pitch": 76,
              "duration": 0.45,
              "velocity": 69
            },
            {
              "bar": 1.0,
              "beat": 2.0,
              "pitch": 72,
              "duration": 0.45,
              "velocity": 69
            },
            {
              "bar": 1.0,
              "beat": 2.5,
              "pitch": 76,
              "duration": 0.45,
              "velocity": 69
            },
            {
              "bar": 1.0,
              "beat": 3.0,
              "pitch": 81,
              "duration": 0.45,
              "velocity": 69
            },
            {
              "bar": 1.0,
              "beat": 3.5,
              "pitch": 76,
              "duration": 0.45,
              "velocity": 69
            },
            {
              "bar": 1.0,
              "beat": 4.0,
              "pitch": 72,
              "duration": 0.45,
              "velocity": 69
            },
            {
              "bar": 1.0,
              "beat": 4.5,
              "pitch": 76,
              "duration": 0.45,
              "velocity": 69
            },
            {
              "bar": 2.0,
              "beat": 1.0,
              "pitch": 65,
              "duration": 0.45,
              "velocity": 72
            },
            {
              "bar": 2.0,
              "beat": 1.5,
              "pitch": 72,
              "duration": 0.45,
              "velocity": 72
            },
            {
              "bar": 2.0,
              "beat": 2.0,
              "pitch": 69,
              "duration": 0.45,
              "velocity": 72
            },
            {
              "bar": 2.0,
              "beat": 2.5,
              "pitch": 72,
              "duration": 0.45,
              "velocity": 72
            },
            {
              "bar": 2.0,
              "beat": 3.0,
              "pitch": 77,
              "duration": 0.45,
              "velocity": 72
            },
            {
              "bar": 2.0,
              "beat": 3.5,
              "pitch": 72,
              "duration": 0.45,
              "velocity": 72
            },
            {
              "bar": 2.0,
              "beat": 4.0,
              "pitch": 69,
              "duration": 0.45,
              "velocity": 72
            },
            {
              "bar": 2.0,
              "beat": 4.5,
              "pitch": 72,
              "duration": 0.45,
              "velocity": 72
            },
            {
              "bar": 3.0,
              "beat": 1.0,
              "pitch": 60,
              "duration": 0.45,
              "velocity": 75
            },
            {
              "bar": 3.0,
              "beat": 1.5,
              "pitch": 67,
              "duration": 0.45,
              "velocity": 75
            },
            {
              "bar": 3.0,
              "beat": 2.0,
              "pitch": 64,
              "duration": 0.45,
              "velocity": 75
            },
            {
              "bar": 3.0,
              "beat": 2.5,
              "pitch": 67,
              "duration": 0.45,
              "velocity": 75
            },
            {
              "bar": 3.0,
              "beat": 3.0,
              "pitch": 72,
              "duration": 0.45,
              "velocity": 75
            },
            {
              "bar": 3.0,
              "beat": 3.5,
              "pitch": 67,
              "duration": 0.45,
              "velocity": 75
            },
            {
              "bar": 3.0,
              "beat": 4.0,
              "pitch": 64,
              "duration": 0.45,
              "velocity": 75
            },
            {
              "bar": 3.0,
              "beat": 4.5,
              "pitch": 67,
              "duration": 0.45,
              "velocity": 75
            },
            {
              "bar": 4.0,
              "beat": 1.0,
              "pitch": 67,
              "duration": 0.45,
              "velocity": 66
            },
            {
              "bar": 4.0,
              "beat": 1.5,
              "pitch": 74,
              "duration": 0.45,
              "velocity": 66
            },
            {
              "bar": 4.0,
              "beat": 2.0,
              "pitch": 71,
              "duration": 0.45,
              "velocity": 66
            },
            {
              "bar": 4.0,
              "beat": 2.5,
              "pitch": 74,
              "duration": 0.45,
              "velocity": 66
            },
            {
              "bar": 4.0,
              "beat": 3.0,
              "pitch": 79,
              "duration": 0.45,
              "velocity": 66
            },
            {
              "bar": 4.0,
              "beat": 3.5,
              "pitch": 74,
              "duration": 0.45,
              "velocity": 66
            },
            {
              "bar": 4.0,
              "beat": 4.0,
              "pitch": 71,
              "duration": 0.45,
              "velocity": 66
            },
            {
              "bar": 4.0,
              "beat": 4.5,
              "pitch": 74,
              "duration": 0.45,
              "velocity": 66
            },
            {
              "bar": 5.0,
              "beat": 1.0,
              "pitch": 69,
              "duration": 0.45,
              "velocity": 69
            },
            {
              "bar": 5.0,
              "beat": 1.5,
              "pitch": 76,
              "duration": 0.45,
              "velocity": 69
            },
            {
              "bar": 5.0,
              "beat": 2.0,
              "pitch": 72,
              "duration": 0.45,
              "velocity": 69
            },
            {
              "bar": 5.0,
              "beat": 2.5,
              "pitch": 76,
              "duration": 0.45,
              "velocity": 69
            },
            {
              "bar": 5.0,
              "beat": 3.0,
              "pitch": 81,
              "duration": 0.45,
              "velocity": 69
            },
            {
              "bar": 5.0,
              "beat": 3.5,
              "pitch": 76,
              "duration": 0.45,
              "velocity": 69
            },
            {
              "bar": 5.0,
              "beat": 4.0,
              "pitch": 72,
              "duration": 0.45,
              "velocity": 69
            },
            {
              "bar": 5.0,
              "beat": 4.5,
              "pitch": 76,
              "duration": 0.45,
              "velocity": 69
            },
            {
              "bar": 6.0,
              "beat": 1.0,
              "pitch": 65,
              "duration": 0.45,
              "velocity": 72
            },
            {
              "bar": 6.0,
              "beat": 1.5,
              "pitch": 72,
              "duration": 0.45,
              "velocity": 72
            },
            {
              "bar": 6.0,
              "beat": 2.0,
              "pitch": 69,
              "duration": 0.45,
              "velocity": 72
            },
            {
              "bar": 6.0,
              "beat": 2.5,
              "pitch": 72,
              "duration": 0.45,
              "velocity": 72
            },
            {
              "bar": 6.0,
              "beat": 3.0,
              "pitch": 77,
              "duration": 0.45,
              "velocity": 72
            },
            {
              "bar": 6.0,
              "beat": 3.5,
              "pitch": 72,
              "duration": 0.45,
              "velocity": 72
            },
            {
              "bar": 6.0,
              "beat": 4.0,
              "pitch": 69,
              "duration": 0.45,
              "velocity": 72
            },
            {
              "bar": 6.0,
              "beat": 4.5,
              "pitch": 72,
              "duration": 0.45,
              "velocity": 72
            },
            {
              "bar": 7.0,
              "beat": 1.0,
              "pitch": 60,
              "duration": 0.45,
              "velocity": 75
            },
            {
              "bar": 7.0,
              "beat": 1.5,
              "pitch": 67,
              "duration": 0.45,
              "velocity": 75
            },
            {
              "bar": 7.0,
              "beat": 2.0,
              "pitch": 64,
              "duration": 0.45,
              "velocity": 75
            },
            {
              "bar": 7.0,
              "beat": 2.5,
              "pitch": 67,
              "duration": 0.45,
              "velocity": 75
            },
            {
              "bar": 7.0,
              "beat": 3.0,
              "pitch": 72,
              "duration": 0.45,
              "velocity": 75
            },
            {
              "bar": 7.0,
              "beat": 3.5,
              "pitch": 67,
              "duration": 0.45,
              "velocity": 75
            },
            {
              "bar": 7.0,
              "beat": 4.0,
              "pitch": 64,
              "duration": 0.45,
              "velocity": 75
            },
            {
              "bar": 7.0,
              "beat": 4.5,
              "pitch": 67,
              "duration": 0.45,
              "velocity": 75
            },
            {
              "bar": 8.0,
              "beat": 1.0,
              "pitch": 67,
              "duration": 0.45,
              "velocity": 66
            },
            {
              "bar": 8.0,
              "beat": 1.5,
              "pitch": 74,
              "duration": 0.45,
              "velocity": 66
            },
            {
              "bar": 8.0,
              "beat": 2.0,
              "pitch": 71,
              "duration": 0.45,
              "velocity": 66
            },
            {
              "bar": 8.0,
              "beat": 2.5,
              "pitch": 74,
              "duration": 0.45,
              "velocity": 66
            },
            {
              "bar": 8.0,
              "beat": 3.0,
              "pitch": 79,
              "duration": 0.45,
              "velocity": 66
            },
            {
              "bar": 8.0,
              "beat": 3.5,
              "pitch": 74,
              "duration": 0.45,
              "velocity": 66
            },
            {
              "bar": 8.0,
              "beat": 4.0,
              "pitch": 71,
              "duration": 0.45,
              "velocity": 66
            },
            {
              "bar": 8.0,
              "beat": 4.5,
              "pitch": 74,
              "duration": 0.45,
              "velocity": 66
            },
            {
              "bar": 9.0,
              "beat": 1.0,
              "pitch": 69,
              "duration": 0.45,
              "velocity": 69
            },
            {
              "bar": 9.0,
              "beat": 1.5,
              "pitch": 76,
              "duration": 0.45,
              "velocity": 69
            },
            {
              "bar": 9.0,
              "beat": 2.0,
              "pitch": 72,
              "duration": 0.45,
              "velocity": 69
            },
            {
              "bar": 9.0,
              "beat": 2.5,
              "pitch": 76,
              "duration": 0.45,
              "velocity": 69
            },
            {
              "bar": 9.0,
              "beat": 3.0,
              "pitch": 81,
              "duration": 0.45,
              "velocity": 69
            },
            {
              "bar": 9.0,
              "beat": 3.5,
              "pitch": 76,
              "duration": 0.45,
              "velocity": 69
            },
            {
              "bar": 9.0,
              "beat": 4.0,
              "pitch": 72,
              "duration": 0.45,
              "velocity": 69
            },
            {
              "bar": 9.0,
              "beat": 4.5,
              "pitch": 76,
              "duration": 0.45,
              "velocity": 69
            },
            {
              "bar": 10.0,
              "beat": 1.0,
              "pitch": 65,
              "duration": 0.45,
              "velocity": 72
            },
            {
              "bar": 10.0,
              "beat": 1.5,
              "pitch": 72,
              "duration": 0.45,
              "velocity": 72
            },
            {
              "bar": 10.0,
              "beat": 2.0,
              "pitch": 69,
              "duration": 0.45,
              "velocity": 72
            },
            {
              "bar": 10.0,
              "beat": 2.5,
              "pitch": 72,
              "duration": 0.45,
              "velocity": 72
            },
            {
              "bar": 10.0,
              "beat": 3.0,
              "pitch": 77,
              "duration": 0.45,
              "velocity": 72
            },
            {
              "bar": 10.0,
              "beat": 3.5,
              "pitch": 72,
              "duration": 0.45,
              "velocity": 72
            },
            {
              "bar": 10.0,
              "beat": 4.0,
              "pitch": 69,
              "duration": 0.45,
              "velocity": 72
            },
            {
              "bar": 10.0,
              "beat": 4.5,
              "pitch": 72,
              "duration": 0.45,
              "velocity": 72
            },
            {
              "bar": 11.0,
              "beat": 1.0,
              "pitch": 60,
              "duration": 0.45,
              "velocity": 75
            },
            {
              "bar": 11.0,
              "beat": 1.5,
              "pitch": 67,
              "duration": 0.45,
              "velocity": 75
            },
            {
              "bar": 11.0,
              "beat": 2.0,
              "pitch": 64,
              "duration": 0.45,
              "velocity": 75
            },
            {
              "bar": 11.0,
              "beat": 2.5,
              "pitch": 67,
              "duration": 0.45,
              "velocity": 75
            },
            {
              "bar": 11.0,
              "beat": 3.0,
              "pitch": 72,
              "duration": 0.45,
              "velocity": 75
            },
            {
              "bar": 11.0,
              "beat": 3.5,
              "pitch": 67,
              "duration": 0.45,
              "velocity": 75
            },
            {
              "bar": 11.0,
              "beat": 4.0,
              "pitch": 64,
              "duration": 0.45,
              "velocity": 75
            },
            {
              "bar": 11.0,
              "beat": 4.5,
              "pitch": 67,
              "duration": 0.45,
              "velocity": 75
            },
            {
              "bar": 12.0,
              "beat": 1.0,
              "pitch": 67,
              "duration": 0.45,
              "velocity": 66
            },
            {
              "bar": 12.0,
              "beat": 1.5,
              "pitch": 74,
              "duration": 0.45,
              "velocity": 66
            },
            {
              "bar": 12.0,
              "beat": 2.0,
              "pitch": 71,
              "duration": 0.45,
              "velocity": 66
            },
            {
              "bar": 12.0,
              "beat": 2.5,
              "pitch": 74,
              "duration": 0.45,
              "velocity": 66
            },
            {
              "bar": 12.0,
              "beat": 3.0,
              "pitch": 79,
              "duration": 0.45,
              "velocity": 66
            },
            {
              "bar": 12.0,
              "beat": 3.5,
              "pitch": 74,
              "duration": 0.45,
              "velocity": 66
            },
            {
              "bar": 12.0,
              "beat": 4.0,
              "pitch": 71,
              "duration": 0.45,
              "velocity": 66
            },
            {
              "bar": 12.0,
              "beat": 4.5,
              "pitch": 74,
              "duration": 0.45,
              "velocity": 66
            },
            {
              "bar": 13.0,
              "beat": 1.0,
              "pitch": 69,
              "duration": 0.45,
              "velocity": 69
            },
            {
              "bar": 13.0,
              "beat": 1.5,
              "pitch": 76,
              "duration": 0.45,
              "velocity": 69
            },
            {
              "bar": 13.0,
              "beat": 2.0,
              "pitch": 72,
              "duration": 0.45,
              "velocity": 69
            },
            {
              "bar": 13.0,
              "beat": 2.5,
              "pitch": 76,
              "duration": 0.45,
              "velocity": 69
            },
            {
              "bar": 13.0,
              "beat": 3.0,
              "pitch": 81,
              "duration": 0.45,
              "velocity": 69
            },
            {
              "bar": 13.0,
              "beat": 3.5,
              "pitch": 76,
              "duration": 0.45,
              "velocity": 69
            },
            {
              "bar": 13.0,
              "beat": 4.0,
              "pitch": 72,
              "duration": 0.45,
              "velocity": 69
            },
            {
              "bar": 13.0,
              "beat": 4.5,
              "pitch": 76,
              "duration": 0.45,
              "velocity": 69
            },
            {
              "bar": 14.0,
              "beat": 1.0,
              "pitch": 65,
              "duration": 0.45,
              "velocity": 72
            },
            {
              "bar": 14.0,
              "beat": 1.5,
              "pitch": 72,
              "duration": 0.45,
              "velocity": 72
            },
            {
              "bar": 14.0,
              "beat": 2.0,
              "pitch": 69,
              "duration": 0.45,
              "velocity": 72
            },
            {
              "bar": 14.0,
              "beat": 2.5,
              "pitch": 72,
              "duration": 0.45,
              "velocity": 72
            },
            {
              "bar": 14.0,
              "beat": 3.0,
              "pitch": 77,
              "duration": 0.45,
              "velocity": 72
            },
            {
              "bar": 14.0,
              "beat": 3.5,
              "pitch": 72,
              "duration": 0.45,
              "velocity": 72
            },
            {
              "bar": 14.0,
              "beat": 4.0,
              "pitch": 69,
              "duration": 0.45,
              "velocity": 72
            },
            {
              "bar": 14.0,
              "beat": 4.5,
              "pitch": 72,
              "duration": 0.45,
              "velocity": 72
            },
            {
              "bar": 15.0,
              "beat": 1.0,
              "pitch": 60,
              "duration": 0.45,
              "velocity": 75
            },
            {
              "bar": 15.0,
              "beat": 1.5,
              "pitch": 67,
              "duration": 0.45,
              "velocity": 75
            },
            {
              "bar": 15.0,
              "beat": 2.0,
              "pitch": 64,
              "duration": 0.45,
              "velocity": 75
            },
            {
              "bar": 15.0,
              "beat": 2.5,
              "pitch": 67,
              "duration": 0.45,
              "velocity": 75
            },
            {
              "bar": 15.0,
              "beat": 3.0,
              "pitch": 72,
              "duration": 0.45,
              "velocity": 75
            },
            {
              "bar": 15.0,
              "beat": 3.5,
              "pitch": 67,
              "duration": 0.45,
              "velocity": 75
            },
            {
              "bar": 15.0,
              "beat": 4.0,
              "pitch": 64,
              "duration": 0.45,
              "velocity": 75
            },
            {
              "bar": 15.0,
              "beat": 4.5,
              "pitch": 67,
              "duration": 0.45,
              "velocity": 75
            },
            {
              "bar": 16.0,
              "beat": 1.0,
              "pitch": 67,
              "duration": 0.45,
              "velocity": 66
            },
            {
              "bar": 16.0,
              "beat": 1.5,
              "pitch": 74,
              "duration": 0.45,
              "velocity": 66
            },
            {
              "bar": 16.0,
              "beat": 2.0,
              "pitch": 71,
              "duration": 0.45,
              "velocity": 66
            },
            {
              "bar": 16.0,
              "beat": 2.5,
              "pitch": 74,
              "duration": 0.45,
              "velocity": 66
            },
            {
              "bar": 16.0,
              "beat": 3.0,
              "pitch": 79,
              "duration": 0.45,
              "velocity": 66
            },
            {
              "bar": 16.0,
              "beat": 3.5,
              "pitch": 74,
              "duration": 0.45,
              "velocity": 66
            },
            {
              "bar": 16.0,
              "beat": 4.0,
              "pitch": 71,
              "duration": 0.45,
              "velocity": 66
            },
            {
              "bar": 16.0,
              "beat": 4.5,
              "pitch": 74,
              "duration": 0.45,
              "velocity": 66
            }
          ]
        },
        {
          "id": "bridge-piano",
          "name": "Bridge Piano",
          "bar": 49.0,
          "beats": 32.0,
          "color": "#18a83a",
          "loop_count": 1,
          "notes": [
            {
              "bar": 1.0,
              "beat": 1.0,
              "pitch": 69,
              "duration": 0.45,
              "velocity": 69
            },
            {
              "bar": 1.0,
              "beat": 1.5,
              "pitch": 76,
              "duration": 0.45,
              "velocity": 69
            },
            {
              "bar": 1.0,
              "beat": 2.0,
              "pitch": 72,
              "duration": 0.45,
              "velocity": 69
            },
            {
              "bar": 1.0,
              "beat": 2.5,
              "pitch": 76,
              "duration": 0.45,
              "velocity": 69
            },
            {
              "bar": 1.0,
              "beat": 3.0,
              "pitch": 81,
              "duration": 0.45,
              "velocity": 69
            },
            {
              "bar": 1.0,
              "beat": 3.5,
              "pitch": 76,
              "duration": 0.45,
              "velocity": 69
            },
            {
              "bar": 1.0,
              "beat": 4.0,
              "pitch": 72,
              "duration": 0.45,
              "velocity": 69
            },
            {
              "bar": 1.0,
              "beat": 4.5,
              "pitch": 76,
              "duration": 0.45,
              "velocity": 69
            },
            {
              "bar": 2.0,
              "beat": 1.0,
              "pitch": 65,
              "duration": 0.45,
              "velocity": 72
            },
            {
              "bar": 2.0,
              "beat": 1.5,
              "pitch": 72,
              "duration": 0.45,
              "velocity": 72
            },
            {
              "bar": 2.0,
              "beat": 2.0,
              "pitch": 69,
              "duration": 0.45,
              "velocity": 72
            },
            {
              "bar": 2.0,
              "beat": 2.5,
              "pitch": 72,
              "duration": 0.45,
              "velocity": 72
            },
            {
              "bar": 2.0,
              "beat": 3.0,
              "pitch": 77,
              "duration": 0.45,
              "velocity": 72
            },
            {
              "bar": 2.0,
              "beat": 3.5,
              "pitch": 72,
              "duration": 0.45,
              "velocity": 72
            },
            {
              "bar": 2.0,
              "beat": 4.0,
              "pitch": 69,
              "duration": 0.45,
              "velocity": 72
            },
            {
              "bar": 2.0,
              "beat": 4.5,
              "pitch": 72,
              "duration": 0.45,
              "velocity": 72
            },
            {
              "bar": 3.0,
              "beat": 1.0,
              "pitch": 60,
              "duration": 0.45,
              "velocity": 75
            },
            {
              "bar": 3.0,
              "beat": 1.5,
              "pitch": 67,
              "duration": 0.45,
              "velocity": 75
            },
            {
              "bar": 3.0,
              "beat": 2.0,
              "pitch": 64,
              "duration": 0.45,
              "velocity": 75
            },
            {
              "bar": 3.0,
              "beat": 2.5,
              "pitch": 67,
              "duration": 0.45,
              "velocity": 75
            },
            {
              "bar": 3.0,
              "beat": 3.0,
              "pitch": 72,
              "duration": 0.45,
              "velocity": 75
            },
            {
              "bar": 3.0,
              "beat": 3.5,
              "pitch": 67,
              "duration": 0.45,
              "velocity": 75
            },
            {
              "bar": 3.0,
              "beat": 4.0,
              "pitch": 64,
              "duration": 0.45,
              "velocity": 75
            },
            {
              "bar": 3.0,
              "beat": 4.5,
              "pitch": 67,
              "duration": 0.45,
              "velocity": 75
            },
            {
              "bar": 4.0,
              "beat": 1.0,
              "pitch": 67,
              "duration": 0.45,
              "velocity": 66
            },
            {
              "bar": 4.0,
              "beat": 1.5,
              "pitch": 74,
              "duration": 0.45,
              "velocity": 66
            },
            {
              "bar": 4.0,
              "beat": 2.0,
              "pitch": 71,
              "duration": 0.45,
              "velocity": 66
            },
            {
              "bar": 4.0,
              "beat": 2.5,
              "pitch": 74,
              "duration": 0.45,
              "velocity": 66
            },
            {
              "bar": 4.0,
              "beat": 3.0,
              "pitch": 79,
              "duration": 0.45,
              "velocity": 66
            },
            {
              "bar": 4.0,
              "beat": 3.5,
              "pitch": 74,
              "duration": 0.45,
              "velocity": 66
            },
            {
              "bar": 4.0,
              "beat": 4.0,
              "pitch": 71,
              "duration": 0.45,
              "velocity": 66
            },
            {
              "bar": 4.0,
              "beat": 4.5,
              "pitch": 74,
              "duration": 0.45,
              "velocity": 66
            },
            {
              "bar": 5.0,
              "beat": 1.0,
              "pitch": 69,
              "duration": 0.45,
              "velocity": 69
            },
            {
              "bar": 5.0,
              "beat": 1.5,
              "pitch": 76,
              "duration": 0.45,
              "velocity": 69
            },
            {
              "bar": 5.0,
              "beat": 2.0,
              "pitch": 72,
              "duration": 0.45,
              "velocity": 69
            },
            {
              "bar": 5.0,
              "beat": 2.5,
              "pitch": 76,
              "duration": 0.45,
              "velocity": 69
            },
            {
              "bar": 5.0,
              "beat": 3.0,
              "pitch": 81,
              "duration": 0.45,
              "velocity": 69
            },
            {
              "bar": 5.0,
              "beat": 3.5,
              "pitch": 76,
              "duration": 0.45,
              "velocity": 69
            },
            {
              "bar": 5.0,
              "beat": 4.0,
              "pitch": 72,
              "duration": 0.45,
              "velocity": 69
            },
            {
              "bar": 5.0,
              "beat": 4.5,
              "pitch": 76,
              "duration": 0.45,
              "velocity": 69
            },
            {
              "bar": 6.0,
              "beat": 1.0,
              "pitch": 65,
              "duration": 0.45,
              "velocity": 72
            },
            {
              "bar": 6.0,
              "beat": 1.5,
              "pitch": 72,
              "duration": 0.45,
              "velocity": 72
            },
            {
              "bar": 6.0,
              "beat": 2.0,
              "pitch": 69,
              "duration": 0.45,
              "velocity": 72
            },
            {
              "bar": 6.0,
              "beat": 2.5,
              "pitch": 72,
              "duration": 0.45,
              "velocity": 72
            },
            {
              "bar": 6.0,
              "beat": 3.0,
              "pitch": 77,
              "duration": 0.45,
              "velocity": 72
            },
            {
              "bar": 6.0,
              "beat": 3.5,
              "pitch": 72,
              "duration": 0.45,
              "velocity": 72
            },
            {
              "bar": 6.0,
              "beat": 4.0,
              "pitch": 69,
              "duration": 0.45,
              "velocity": 72
            },
            {
              "bar": 6.0,
              "beat": 4.5,
              "pitch": 72,
              "duration": 0.45,
              "velocity": 72
            },
            {
              "bar": 7.0,
              "beat": 1.0,
              "pitch": 60,
              "duration": 0.45,
              "velocity": 75
            },
            {
              "bar": 7.0,
              "beat": 1.5,
              "pitch": 67,
              "duration": 0.45,
              "velocity": 75
            },
            {
              "bar": 7.0,
              "beat": 2.0,
              "pitch": 64,
              "duration": 0.45,
              "velocity": 75
            },
            {
              "bar": 7.0,
              "beat": 2.5,
              "pitch": 67,
              "duration": 0.45,
              "velocity": 75
            },
            {
              "bar": 7.0,
              "beat": 3.0,
              "pitch": 72,
              "duration": 0.45,
              "velocity": 75
            },
            {
              "bar": 7.0,
              "beat": 3.5,
              "pitch": 67,
              "duration": 0.45,
              "velocity": 75
            },
            {
              "bar": 7.0,
              "beat": 4.0,
              "pitch": 64,
              "duration": 0.45,
              "velocity": 75
            },
            {
              "bar": 7.0,
              "beat": 4.5,
              "pitch": 67,
              "duration": 0.45,
              "velocity": 75
            },
            {
              "bar": 8.0,
              "beat": 1.0,
              "pitch": 67,
              "duration": 0.45,
              "velocity": 66
            },
            {
              "bar": 8.0,
              "beat": 1.5,
              "pitch": 74,
              "duration": 0.45,
              "velocity": 66
            },
            {
              "bar": 8.0,
              "beat": 2.0,
              "pitch": 71,
              "duration": 0.45,
              "velocity": 66
            },
            {
              "bar": 8.0,
              "beat": 2.5,
              "pitch": 74,
              "duration": 0.45,
              "velocity": 66
            },
            {
              "bar": 8.0,
              "beat": 3.0,
              "pitch": 79,
              "duration": 0.45,
              "velocity": 66
            },
            {
              "bar": 8.0,
              "beat": 3.5,
              "pitch": 74,
              "duration": 0.45,
              "velocity": 66
            },
            {
              "bar": 8.0,
              "beat": 4.0,
              "pitch": 71,
              "duration": 0.45,
              "velocity": 66
            },
            {
              "bar": 8.0,
              "beat": 4.5,
              "pitch": 74,
              "duration": 0.45,
              "velocity": 66
            }
          ]
        },
        {
          "id": "final-chorus-piano",
          "name": "Final Chorus Piano",
          "bar": 57.0,
          "beats": 64.0,
          "color": "#18a83a",
          "loop_count": 1,
          "notes": [
            {
              "bar": 1.0,
              "beat": 1.0,
              "pitch": 69,
              "duration": 0.45,
              "velocity": 69
            },
            {
              "bar": 1.0,
              "beat": 1.5,
              "pitch": 76,
              "duration": 0.45,
              "velocity": 69
            },
            {
              "bar": 1.0,
              "beat": 2.0,
              "pitch": 72,
              "duration": 0.45,
              "velocity": 69
            },
            {
              "bar": 1.0,
              "beat": 2.5,
              "pitch": 76,
              "duration": 0.45,
              "velocity": 69
            },
            {
              "bar": 1.0,
              "beat": 3.0,
              "pitch": 81,
              "duration": 0.45,
              "velocity": 69
            },
            {
              "bar": 1.0,
              "beat": 3.5,
              "pitch": 76,
              "duration": 0.45,
              "velocity": 69
            },
            {
              "bar": 1.0,
              "beat": 4.0,
              "pitch": 72,
              "duration": 0.45,
              "velocity": 69
            },
            {
              "bar": 1.0,
              "beat": 4.5,
              "pitch": 76,
              "duration": 0.45,
              "velocity": 69
            },
            {
              "bar": 2.0,
              "beat": 1.0,
              "pitch": 65,
              "duration": 0.45,
              "velocity": 72
            },
            {
              "bar": 2.0,
              "beat": 1.5,
              "pitch": 72,
              "duration": 0.45,
              "velocity": 72
            },
            {
              "bar": 2.0,
              "beat": 2.0,
              "pitch": 69,
              "duration": 0.45,
              "velocity": 72
            },
            {
              "bar": 2.0,
              "beat": 2.5,
              "pitch": 72,
              "duration": 0.45,
              "velocity": 72
            },
            {
              "bar": 2.0,
              "beat": 3.0,
              "pitch": 77,
              "duration": 0.45,
              "velocity": 72
            },
            {
              "bar": 2.0,
              "beat": 3.5,
              "pitch": 72,
              "duration": 0.45,
              "velocity": 72
            },
            {
              "bar": 2.0,
              "beat": 4.0,
              "pitch": 69,
              "duration": 0.45,
              "velocity": 72
            },
            {
              "bar": 2.0,
              "beat": 4.5,
              "pitch": 72,
              "duration": 0.45,
              "velocity": 72
            },
            {
              "bar": 3.0,
              "beat": 1.0,
              "pitch": 60,
              "duration": 0.45,
              "velocity": 75
            },
            {
              "bar": 3.0,
              "beat": 1.5,
              "pitch": 67,
              "duration": 0.45,
              "velocity": 75
            },
            {
              "bar": 3.0,
              "beat": 2.0,
              "pitch": 64,
              "duration": 0.45,
              "velocity": 75
            },
            {
              "bar": 3.0,
              "beat": 2.5,
              "pitch": 67,
              "duration": 0.45,
              "velocity": 75
            },
            {
              "bar": 3.0,
              "beat": 3.0,
              "pitch": 72,
              "duration": 0.45,
              "velocity": 75
            },
            {
              "bar": 3.0,
              "beat": 3.5,
              "pitch": 67,
              "duration": 0.45,
              "velocity": 75
            },
            {
              "bar": 3.0,
              "beat": 4.0,
              "pitch": 64,
              "duration": 0.45,
              "velocity": 75
            },
            {
              "bar": 3.0,
              "beat": 4.5,
              "pitch": 67,
              "duration": 0.45,
              "velocity": 75
            },
            {
              "bar": 4.0,
              "beat": 1.0,
              "pitch": 67,
              "duration": 0.45,
              "velocity": 66
            },
            {
              "bar": 4.0,
              "beat": 1.5,
              "pitch": 74,
              "duration": 0.45,
              "velocity": 66
            },
            {
              "bar": 4.0,
              "beat": 2.0,
              "pitch": 71,
              "duration": 0.45,
              "velocity": 66
            },
            {
              "bar": 4.0,
              "beat": 2.5,
              "pitch": 74,
              "duration": 0.45,
              "velocity": 66
            },
            {
              "bar": 4.0,
              "beat": 3.0,
              "pitch": 79,
              "duration": 0.45,
              "velocity": 66
            },
            {
              "bar": 4.0,
              "beat": 3.5,
              "pitch": 74,
              "duration": 0.45,
              "velocity": 66
            },
            {
              "bar": 4.0,
              "beat": 4.0,
              "pitch": 71,
              "duration": 0.45,
              "velocity": 66
            },
            {
              "bar": 4.0,
              "beat": 4.5,
              "pitch": 74,
              "duration": 0.45,
              "velocity": 66
            },
            {
              "bar": 5.0,
              "beat": 1.0,
              "pitch": 69,
              "duration": 0.45,
              "velocity": 69
            },
            {
              "bar": 5.0,
              "beat": 1.5,
              "pitch": 76,
              "duration": 0.45,
              "velocity": 69
            },
            {
              "bar": 5.0,
              "beat": 2.0,
              "pitch": 72,
              "duration": 0.45,
              "velocity": 69
            },
            {
              "bar": 5.0,
              "beat": 2.5,
              "pitch": 76,
              "duration": 0.45,
              "velocity": 69
            },
            {
              "bar": 5.0,
              "beat": 3.0,
              "pitch": 81,
              "duration": 0.45,
              "velocity": 69
            },
            {
              "bar": 5.0,
              "beat": 3.5,
              "pitch": 76,
              "duration": 0.45,
              "velocity": 69
            },
            {
              "bar": 5.0,
              "beat": 4.0,
              "pitch": 72,
              "duration": 0.45,
              "velocity": 69
            },
            {
              "bar": 5.0,
              "beat": 4.5,
              "pitch": 76,
              "duration": 0.45,
              "velocity": 69
            },
            {
              "bar": 6.0,
              "beat": 1.0,
              "pitch": 65,
              "duration": 0.45,
              "velocity": 72
            },
            {
              "bar": 6.0,
              "beat": 1.5,
              "pitch": 72,
              "duration": 0.45,
              "velocity": 72
            },
            {
              "bar": 6.0,
              "beat": 2.0,
              "pitch": 69,
              "duration": 0.45,
              "velocity": 72
            },
            {
              "bar": 6.0,
              "beat": 2.5,
              "pitch": 72,
              "duration": 0.45,
              "velocity": 72
            },
            {
              "bar": 6.0,
              "beat": 3.0,
              "pitch": 77,
              "duration": 0.45,
              "velocity": 72
            },
            {
              "bar": 6.0,
              "beat": 3.5,
              "pitch": 72,
              "duration": 0.45,
              "velocity": 72
            },
            {
              "bar": 6.0,
              "beat": 4.0,
              "pitch": 69,
              "duration": 0.45,
              "velocity": 72
            },
            {
              "bar": 6.0,
              "beat": 4.5,
              "pitch": 72,
              "duration": 0.45,
              "velocity": 72
            },
            {
              "bar": 7.0,
              "beat": 1.0,
              "pitch": 60,
              "duration": 0.45,
              "velocity": 75
            },
            {
              "bar": 7.0,
              "beat": 1.5,
              "pitch": 67,
              "duration": 0.45,
              "velocity": 75
            },
            {
              "bar": 7.0,
              "beat": 2.0,
              "pitch": 64,
              "duration": 0.45,
              "velocity": 75
            },
            {
              "bar": 7.0,
              "beat": 2.5,
              "pitch": 67,
              "duration": 0.45,
              "velocity": 75
            },
            {
              "bar": 7.0,
              "beat": 3.0,
              "pitch": 72,
              "duration": 0.45,
              "velocity": 75
            },
            {
              "bar": 7.0,
              "beat": 3.5,
              "pitch": 67,
              "duration": 0.45,
              "velocity": 75
            },
            {
              "bar": 7.0,
              "beat": 4.0,
              "pitch": 64,
              "duration": 0.45,
              "velocity": 75
            },
            {
              "bar": 7.0,
              "beat": 4.5,
              "pitch": 67,
              "duration": 0.45,
              "velocity": 75
            },
            {
              "bar": 8.0,
              "beat": 1.0,
              "pitch": 67,
              "duration": 0.45,
              "velocity": 66
            },
            {
              "bar": 8.0,
              "beat": 1.5,
              "pitch": 74,
              "duration": 0.45,
              "velocity": 66
            },
            {
              "bar": 8.0,
              "beat": 2.0,
              "pitch": 71,
              "duration": 0.45,
              "velocity": 66
            },
            {
              "bar": 8.0,
              "beat": 2.5,
              "pitch": 74,
              "duration": 0.45,
              "velocity": 66
            },
            {
              "bar": 8.0,
              "beat": 3.0,
              "pitch": 79,
              "duration": 0.45,
              "velocity": 66
            },
            {
              "bar": 8.0,
              "beat": 3.5,
              "pitch": 74,
              "duration": 0.45,
              "velocity": 66
            },
            {
              "bar": 8.0,
              "beat": 4.0,
              "pitch": 71,
              "duration": 0.45,
              "velocity": 66
            },
            {
              "bar": 8.0,
              "beat": 4.5,
              "pitch": 74,
              "duration": 0.45,
              "velocity": 66
            },
            {
              "bar": 9.0,
              "beat": 1.0,
              "pitch": 69,
              "duration": 0.45,
              "velocity": 69
            },
            {
              "bar": 9.0,
              "beat": 1.5,
              "pitch": 76,
              "duration": 0.45,
              "velocity": 69
            },
            {
              "bar": 9.0,
              "beat": 2.0,
              "pitch": 72,
              "duration": 0.45,
              "velocity": 69
            },
            {
              "bar": 9.0,
              "beat": 2.5,
              "pitch": 76,
              "duration": 0.45,
              "velocity": 69
            },
            {
              "bar": 9.0,
              "beat": 3.0,
              "pitch": 81,
              "duration": 0.45,
              "velocity": 69
            },
            {
              "bar": 9.0,
              "beat": 3.5,
              "pitch": 76,
              "duration": 0.45,
              "velocity": 69
            },
            {
              "bar": 9.0,
              "beat": 4.0,
              "pitch": 72,
              "duration": 0.45,
              "velocity": 69
            },
            {
              "bar": 9.0,
              "beat": 4.5,
              "pitch": 76,
              "duration": 0.45,
              "velocity": 69
            },
            {
              "bar": 10.0,
              "beat": 1.0,
              "pitch": 65,
              "duration": 0.45,
              "velocity": 72
            },
            {
              "bar": 10.0,
              "beat": 1.5,
              "pitch": 72,
              "duration": 0.45,
              "velocity": 72
            },
            {
              "bar": 10.0,
              "beat": 2.0,
              "pitch": 69,
              "duration": 0.45,
              "velocity": 72
            },
            {
              "bar": 10.0,
              "beat": 2.5,
              "pitch": 72,
              "duration": 0.45,
              "velocity": 72
            },
            {
              "bar": 10.0,
              "beat": 3.0,
              "pitch": 77,
              "duration": 0.45,
              "velocity": 72
            },
            {
              "bar": 10.0,
              "beat": 3.5,
              "pitch": 72,
              "duration": 0.45,
              "velocity": 72
            },
            {
              "bar": 10.0,
              "beat": 4.0,
              "pitch": 69,
              "duration": 0.45,
              "velocity": 72
            },
            {
              "bar": 10.0,
              "beat": 4.5,
              "pitch": 72,
              "duration": 0.45,
              "velocity": 72
            },
            {
              "bar": 11.0,
              "beat": 1.0,
              "pitch": 60,
              "duration": 0.45,
              "velocity": 75
            },
            {
              "bar": 11.0,
              "beat": 1.5,
              "pitch": 67,
              "duration": 0.45,
              "velocity": 75
            },
            {
              "bar": 11.0,
              "beat": 2.0,
              "pitch": 64,
              "duration": 0.45,
              "velocity": 75
            },
            {
              "bar": 11.0,
              "beat": 2.5,
              "pitch": 67,
              "duration": 0.45,
              "velocity": 75
            },
            {
              "bar": 11.0,
              "beat": 3.0,
              "pitch": 72,
              "duration": 0.45,
              "velocity": 75
            },
            {
              "bar": 11.0,
              "beat": 3.5,
              "pitch": 67,
              "duration": 0.45,
              "velocity": 75
            },
            {
              "bar": 11.0,
              "beat": 4.0,
              "pitch": 64,
              "duration": 0.45,
              "velocity": 75
            },
            {
              "bar": 11.0,
              "beat": 4.5,
              "pitch": 67,
              "duration": 0.45,
              "velocity": 75
            },
            {
              "bar": 12.0,
              "beat": 1.0,
              "pitch": 67,
              "duration": 0.45,
              "velocity": 66
            },
            {
              "bar": 12.0,
              "beat": 1.5,
              "pitch": 74,
              "duration": 0.45,
              "velocity": 66
            },
            {
              "bar": 12.0,
              "beat": 2.0,
              "pitch": 71,
              "duration": 0.45,
              "velocity": 66
            },
            {
              "bar": 12.0,
              "beat": 2.5,
              "pitch": 74,
              "duration": 0.45,
              "velocity": 66
            },
            {
              "bar": 12.0,
              "beat": 3.0,
              "pitch": 79,
              "duration": 0.45,
              "velocity": 66
            },
            {
              "bar": 12.0,
              "beat": 3.5,
              "pitch": 74,
              "duration": 0.45,
              "velocity": 66
            },
            {
              "bar": 12.0,
              "beat": 4.0,
              "pitch": 71,
              "duration": 0.45,
              "velocity": 66
            },
            {
              "bar": 12.0,
              "beat": 4.5,
              "pitch": 74,
              "duration": 0.45,
              "velocity": 66
            },
            {
              "bar": 13.0,
              "beat": 1.0,
              "pitch": 69,
              "duration": 0.45,
              "velocity": 69
            },
            {
              "bar": 13.0,
              "beat": 1.5,
              "pitch": 76,
              "duration": 0.45,
              "velocity": 69
            },
            {
              "bar": 13.0,
              "beat": 2.0,
              "pitch": 72,
              "duration": 0.45,
              "velocity": 69
            },
            {
              "bar": 13.0,
              "beat": 2.5,
              "pitch": 76,
              "duration": 0.45,
              "velocity": 69
            },
            {
              "bar": 13.0,
              "beat": 3.0,
              "pitch": 81,
              "duration": 0.45,
              "velocity": 69
            },
            {
              "bar": 13.0,
              "beat": 3.5,
              "pitch": 76,
              "duration": 0.45,
              "velocity": 69
            },
            {
              "bar": 13.0,
              "beat": 4.0,
              "pitch": 72,
              "duration": 0.45,
              "velocity": 69
            },
            {
              "bar": 13.0,
              "beat": 4.5,
              "pitch": 76,
              "duration": 0.45,
              "velocity": 69
            },
            {
              "bar": 14.0,
              "beat": 1.0,
              "pitch": 65,
              "duration": 0.45,
              "velocity": 72
            },
            {
              "bar": 14.0,
              "beat": 1.5,
              "pitch": 72,
              "duration": 0.45,
              "velocity": 72
            },
            {
              "bar": 14.0,
              "beat": 2.0,
              "pitch": 69,
              "duration": 0.45,
              "velocity": 72
            },
            {
              "bar": 14.0,
              "beat": 2.5,
              "pitch": 72,
              "duration": 0.45,
              "velocity": 72
            },
            {
              "bar": 14.0,
              "beat": 3.0,
              "pitch": 77,
              "duration": 0.45,
              "velocity": 72
            },
            {
              "bar": 14.0,
              "beat": 3.5,
              "pitch": 72,
              "duration": 0.45,
              "velocity": 72
            },
            {
              "bar": 14.0,
              "beat": 4.0,
              "pitch": 69,
              "duration": 0.45,
              "velocity": 72
            },
            {
              "bar": 14.0,
              "beat": 4.5,
              "pitch": 72,
              "duration": 0.45,
              "velocity": 72
            },
            {
              "bar": 15.0,
              "beat": 1.0,
              "pitch": 60,
              "duration": 0.45,
              "velocity": 75
            },
            {
              "bar": 15.0,
              "beat": 1.5,
              "pitch": 67,
              "duration": 0.45,
              "velocity": 75
            },
            {
              "bar": 15.0,
              "beat": 2.0,
              "pitch": 64,
              "duration": 0.45,
              "velocity": 75
            },
            {
              "bar": 15.0,
              "beat": 2.5,
              "pitch": 67,
              "duration": 0.45,
              "velocity": 75
            },
            {
              "bar": 15.0,
              "beat": 3.0,
              "pitch": 72,
              "duration": 0.45,
              "velocity": 75
            },
            {
              "bar": 15.0,
              "beat": 3.5,
              "pitch": 67,
              "duration": 0.45,
              "velocity": 75
            },
            {
              "bar": 15.0,
              "beat": 4.0,
              "pitch": 64,
              "duration": 0.45,
              "velocity": 75
            },
            {
              "bar": 15.0,
              "beat": 4.5,
              "pitch": 67,
              "duration": 0.45,
              "velocity": 75
            },
            {
              "bar": 16.0,
              "beat": 1.0,
              "pitch": 67,
              "duration": 0.45,
              "velocity": 66
            },
            {
              "bar": 16.0,
              "beat": 1.5,
              "pitch": 74,
              "duration": 0.45,
              "velocity": 66
            },
            {
              "bar": 16.0,
              "beat": 2.0,
              "pitch": 71,
              "duration": 0.45,
              "velocity": 66
            },
            {
              "bar": 16.0,
              "beat": 2.5,
              "pitch": 74,
              "duration": 0.45,
              "velocity": 66
            },
            {
              "bar": 16.0,
              "beat": 3.0,
              "pitch": 79,
              "duration": 0.45,
              "velocity": 66
            },
            {
              "bar": 16.0,
              "beat": 3.5,
              "pitch": 74,
              "duration": 0.45,
              "velocity": 66
            },
            {
              "bar": 16.0,
              "beat": 4.0,
              "pitch": 71,
              "duration": 0.45,
              "velocity": 66
            },
            {
              "bar": 16.0,
              "beat": 4.5,
              "pitch": 74,
              "duration": 0.45,
              "velocity": 66
            }
          ]
        }
      ],
      "audio_clips": [],
      "program": 0,
      "preset": "piano"
    },
    {
      "name": "Bass",
      "kind": "instrument",
      "channel": 1,
      "volume": 86,
      "pan": 64,
      "muted": false,
      "solo": false,
      "record_armed": false,
      "effects": [
        {
          "type": "compressor",
          "enabled": true,
          "params": {
            "threshold_db": -16,
            "ratio": 3,
            "makeup_db": 1
          }
        }
      ],
      "notes": [],
      "clips": [
        {
          "id": "verse-a-bass",
          "name": "Verse A Bass",
          "bar": 9.0,
          "beats": 64.0,
          "color": "#2777d8",
          "loop_count": 1,
          "notes": [
            {
              "bar": 1.0,
              "beat": 1.0,
              "pitch": 45,
              "duration": 0.9,
              "velocity": 88
            },
            {
              "bar": 1.0,
              "beat": 2.0,
              "pitch": 45,
              "duration": 0.9,
              "velocity": 88
            },
            {
              "bar": 1.0,
              "beat": 3.0,
              "pitch": 45,
              "duration": 0.9,
              "velocity": 88
            },
            {
              "bar": 1.0,
              "beat": 4.0,
              "pitch": 45,
              "duration": 0.9,
              "velocity": 88
            },
            {
              "bar": 2.0,
              "beat": 1.0,
              "pitch": 41,
              "duration": 0.9,
              "velocity": 88
            },
            {
              "bar": 2.0,
              "beat": 2.0,
              "pitch": 41,
              "duration": 0.9,
              "velocity": 88
            },
            {
              "bar": 2.0,
              "beat": 3.0,
              "pitch": 41,
              "duration": 0.9,
              "velocity": 88
            },
            {
              "bar": 2.0,
              "beat": 4.0,
              "pitch": 41,
              "duration": 0.9,
              "velocity": 88
            },
            {
              "bar": 3.0,
              "beat": 1.0,
              "pitch": 36,
              "duration": 0.9,
              "velocity": 88
            },
            {
              "bar": 3.0,
              "beat": 2.0,
              "pitch": 36,
              "duration": 0.9,
              "velocity": 88
            },
            {
              "bar": 3.0,
              "beat": 3.0,
              "pitch": 36,
              "duration": 0.9,
              "velocity": 88
            },
            {
              "bar": 3.0,
              "beat": 4.0,
              "pitch": 36,
              "duration": 0.9,
              "velocity": 88
            },
            {
              "bar": 4.0,
              "beat": 1.0,
              "pitch": 43,
              "duration": 0.9,
              "velocity": 88
            },
            {
              "bar": 4.0,
              "beat": 2.0,
              "pitch": 43,
              "duration": 0.9,
              "velocity": 88
            },
            {
              "bar": 4.0,
              "beat": 3.0,
              "pitch": 43,
              "duration": 0.9,
              "velocity": 88
            },
            {
              "bar": 4.0,
              "beat": 4.0,
              "pitch": 43,
              "duration": 0.9,
              "velocity": 88
            },
            {
              "bar": 5.0,
              "beat": 1.0,
              "pitch": 45,
              "duration": 0.9,
              "velocity": 88
            },
            {
              "bar": 5.0,
              "beat": 2.0,
              "pitch": 45,
              "duration": 0.9,
              "velocity": 88
            },
            {
              "bar": 5.0,
              "beat": 3.0,
              "pitch": 45,
              "duration": 0.9,
              "velocity": 88
            },
            {
              "bar": 5.0,
              "beat": 4.0,
              "pitch": 45,
              "duration": 0.9,
              "velocity": 88
            },
            {
              "bar": 6.0,
              "beat": 1.0,
              "pitch": 41,
              "duration": 0.9,
              "velocity": 88
            },
            {
              "bar": 6.0,
              "beat": 2.0,
              "pitch": 41,
              "duration": 0.9,
              "velocity": 88
            },
            {
              "bar": 6.0,
              "beat": 3.0,
              "pitch": 41,
              "duration": 0.9,
              "velocity": 88
            },
            {
              "bar": 6.0,
              "beat": 4.0,
              "pitch": 41,
              "duration": 0.9,
              "velocity": 88
            },
            {
              "bar": 7.0,
              "beat": 1.0,
              "pitch": 36,
              "duration": 0.9,
              "velocity": 88
            },
            {
              "bar": 7.0,
              "beat": 2.0,
              "pitch": 36,
              "duration": 0.9,
              "velocity": 88
            },
            {
              "bar": 7.0,
              "beat": 3.0,
              "pitch": 36,
              "duration": 0.9,
              "velocity": 88
            },
            {
              "bar": 7.0,
              "beat": 4.0,
              "pitch": 36,
              "duration": 0.9,
              "velocity": 88
            },
            {
              "bar": 8.0,
              "beat": 1.0,
              "pitch": 43,
              "duration": 0.9,
              "velocity": 88
            },
            {
              "bar": 8.0,
              "beat": 2.0,
              "pitch": 43,
              "duration": 0.9,
              "velocity": 88
            },
            {
              "bar": 8.0,
              "beat": 3.0,
              "pitch": 43,
              "duration": 0.9,
              "velocity": 88
            },
            {
              "bar": 8.0,
              "beat": 4.0,
              "pitch": 43,
              "duration": 0.9,
              "velocity": 88
            },
            {
              "bar": 9.0,
              "beat": 1.0,
              "pitch": 45,
              "duration": 0.9,
              "velocity": 88
            },
            {
              "bar": 9.0,
              "beat": 1.5,
              "pitch": 57,
              "duration": 0.22,
              "velocity": 52
            },
            {
              "bar": 9.0,
              "beat": 2.0,
              "pitch": 45,
              "duration": 0.9,
              "velocity": 88
            },
            {
              "bar": 9.0,
              "beat": 2.5,
              "pitch": 57,
              "duration": 0.22,
              "velocity": 52
            },
            {
              "bar": 9.0,
              "beat": 3.0,
              "pitch": 45,
              "duration": 0.9,
              "velocity": 88
            },
            {
              "bar": 9.0,
              "beat": 3.5,
              "pitch": 57,
              "duration": 0.22,
              "velocity": 52
            },
            {
              "bar": 9.0,
              "beat": 4.0,
              "pitch": 45,
              "duration": 0.9,
              "velocity": 88
            },
            {
              "bar": 9.0,
              "beat": 4.5,
              "pitch": 57,
              "duration": 0.22,
              "velocity": 52
            },
            {
              "bar": 10.0,
              "beat": 1.0,
              "pitch": 41,
              "duration": 0.9,
              "velocity": 88
            },
            {
              "bar": 10.0,
              "beat": 1.5,
              "pitch": 53,
              "duration": 0.22,
              "velocity": 52
            },
            {
              "bar": 10.0,
              "beat": 2.0,
              "pitch": 41,
              "duration": 0.9,
              "velocity": 88
            },
            {
              "bar": 10.0,
              "beat": 2.5,
              "pitch": 53,
              "duration": 0.22,
              "velocity": 52
            },
            {
              "bar": 10.0,
              "beat": 3.0,
              "pitch": 41,
              "duration": 0.9,
              "velocity": 88
            },
            {
              "bar": 10.0,
              "beat": 3.5,
              "pitch": 53,
              "duration": 0.22,
              "velocity": 52
            },
            {
              "bar": 10.0,
              "beat": 4.0,
              "pitch": 41,
              "duration": 0.9,
              "velocity": 88
            },
            {
              "bar": 10.0,
              "beat": 4.5,
              "pitch": 53,
              "duration": 0.22,
              "velocity": 52
            },
            {
              "bar": 11.0,
              "beat": 1.0,
              "pitch": 36,
              "duration": 0.9,
              "velocity": 88
            },
            {
              "bar": 11.0,
              "beat": 1.5,
              "pitch": 48,
              "duration": 0.22,
              "velocity": 52
            },
            {
              "bar": 11.0,
              "beat": 2.0,
              "pitch": 36,
              "duration": 0.9,
              "velocity": 88
            },
            {
              "bar": 11.0,
              "beat": 2.5,
              "pitch": 48,
              "duration": 0.22,
              "velocity": 52
            },
            {
              "bar": 11.0,
              "beat": 3.0,
              "pitch": 36,
              "duration": 0.9,
              "velocity": 88
            },
            {
              "bar": 11.0,
              "beat": 3.5,
              "pitch": 48,
              "duration": 0.22,
              "velocity": 52
            },
            {
              "bar": 11.0,
              "beat": 4.0,
              "pitch": 36,
              "duration": 0.9,
              "velocity": 88
            },
            {
              "bar": 11.0,
              "beat": 4.5,
              "pitch": 48,
              "duration": 0.22,
              "velocity": 52
            },
            {
              "bar": 12.0,
              "beat": 1.0,
              "pitch": 43,
              "duration": 0.9,
              "velocity": 88
            },
            {
              "bar": 12.0,
              "beat": 1.5,
              "pitch": 55,
              "duration": 0.22,
              "velocity": 52
            },
            {
              "bar": 12.0,
              "beat": 2.0,
              "pitch": 43,
              "duration": 0.9,
              "velocity": 88
            },
            {
              "bar": 12.0,
              "beat": 2.5,
              "pitch": 55,
              "duration": 0.22,
              "velocity": 52
            },
            {
              "bar": 12.0,
              "beat": 3.0,
              "pitch": 43,
              "duration": 0.9,
              "velocity": 88
            },
            {
              "bar": 12.0,
              "beat": 3.5,
              "pitch": 55,
              "duration": 0.22,
              "velocity": 52
            },
            {
              "bar": 12.0,
              "beat": 4.0,
              "pitch": 43,
              "duration": 0.9,
              "velocity": 88
            },
            {
              "bar": 12.0,
              "beat": 4.5,
              "pitch": 55,
              "duration": 0.22,
              "velocity": 52
            },
            {
              "bar": 13.0,
              "beat": 1.0,
              "pitch": 45,
              "duration": 0.9,
              "velocity": 88
            },
            {
              "bar": 13.0,
              "beat": 1.5,
              "pitch": 57,
              "duration": 0.22,
              "velocity": 52
            },
            {
              "bar": 13.0,
              "beat": 2.0,
              "pitch": 45,
              "duration": 0.9,
              "velocity": 88
            },
            {
              "bar": 13.0,
              "beat": 2.5,
              "pitch": 57,
              "duration": 0.22,
              "velocity": 52
            },
            {
              "bar": 13.0,
              "beat": 3.0,
              "pitch": 45,
              "duration": 0.9,
              "velocity": 88
            },
            {
              "bar": 13.0,
              "beat": 3.5,
              "pitch": 57,
              "duration": 0.22,
              "velocity": 52
            },
            {
              "bar": 13.0,
              "beat": 4.0,
              "pitch": 45,
              "duration": 0.9,
              "velocity": 88
            },
            {
              "bar": 13.0,
              "beat": 4.5,
              "pitch": 57,
              "duration": 0.22,
              "velocity": 52
            },
            {
              "bar": 14.0,
              "beat": 1.0,
              "pitch": 41,
              "duration": 0.9,
              "velocity": 88
            },
            {
              "bar": 14.0,
              "beat": 1.5,
              "pitch": 53,
              "duration": 0.22,
              "velocity": 52
            },
            {
              "bar": 14.0,
              "beat": 2.0,
              "pitch": 41,
              "duration": 0.9,
              "velocity": 88
            },
            {
              "bar": 14.0,
              "beat": 2.5,
              "pitch": 53,
              "duration": 0.22,
              "velocity": 52
            },
            {
              "bar": 14.0,
              "beat": 3.0,
              "pitch": 41,
              "duration": 0.9,
              "velocity": 88
            },
            {
              "bar": 14.0,
              "beat": 3.5,
              "pitch": 53,
              "duration": 0.22,
              "velocity": 52
            },
            {
              "bar": 14.0,
              "beat": 4.0,
              "pitch": 41,
              "duration": 0.9,
              "velocity": 88
            },
            {
              "bar": 14.0,
              "beat": 4.5,
              "pitch": 53,
              "duration": 0.22,
              "velocity": 52
            },
            {
              "bar": 15.0,
              "beat": 1.0,
              "pitch": 36,
              "duration": 0.9,
              "velocity": 88
            },
            {
              "bar": 15.0,
              "beat": 1.5,
              "pitch": 48,
              "duration": 0.22,
              "velocity": 52
            },
            {
              "bar": 15.0,
              "beat": 2.0,
              "pitch": 36,
              "duration": 0.9,
              "velocity": 88
            },
            {
              "bar": 15.0,
              "beat": 2.5,
              "pitch": 48,
              "duration": 0.22,
              "velocity": 52
            },
            {
              "bar": 15.0,
              "beat": 3.0,
              "pitch": 36,
              "duration": 0.9,
              "velocity": 88
            },
            {
              "bar": 15.0,
              "beat": 3.5,
              "pitch": 48,
              "duration": 0.22,
              "velocity": 52
            },
            {
              "bar": 15.0,
              "beat": 4.0,
              "pitch": 36,
              "duration": 0.9,
              "velocity": 88
            },
            {
              "bar": 15.0,
              "beat": 4.5,
              "pitch": 48,
              "duration": 0.22,
              "velocity": 52
            },
            {
              "bar": 16.0,
              "beat": 1.0,
              "pitch": 43,
              "duration": 0.9,
              "velocity": 88
            },
            {
              "bar": 16.0,
              "beat": 1.5,
              "pitch": 55,
              "duration": 0.22,
              "velocity": 52
            },
            {
              "bar": 16.0,
              "beat": 2.0,
              "pitch": 43,
              "duration": 0.9,
              "velocity": 88
            },
            {
              "bar": 16.0,
              "beat": 2.5,
              "pitch": 55,
              "duration": 0.22,
              "velocity": 52
            },
            {
              "bar": 16.0,
              "beat": 3.0,
              "pitch": 43,
              "duration": 0.9,
              "velocity": 88
            },
            {
              "bar": 16.0,
              "beat": 3.5,
              "pitch": 55,
              "duration": 0.22,
              "velocity": 52
            },
            {
              "bar": 16.0,
              "beat": 4.0,
              "pitch": 43,
              "duration": 0.9,
              "velocity": 88
            },
            {
              "bar": 16.0,
              "beat": 4.5,
              "pitch": 55,
              "duration": 0.22,
              "velocity": 52
            }
          ]
        },
        {
          "id": "pre-chorus-bass",
          "name": "Pre-Chorus Bass",
          "bar": 25.0,
          "beats": 32.0,
          "color": "#2777d8",
          "loop_count": 1,
          "notes": [
            {
              "bar": 1.0,
              "beat": 1.0,
              "pitch": 45,
              "duration": 0.9,
              "velocity": 88
            },
            {
              "bar": 1.0,
              "beat": 2.0,
              "pitch": 45,
              "duration": 0.9,
              "velocity": 88
            },
            {
              "bar": 1.0,
              "beat": 3.0,
              "pitch": 45,
              "duration": 0.9,
              "velocity": 88
            },
            {
              "bar": 1.0,
              "beat": 4.0,
              "pitch": 45,
              "duration": 0.9,
              "velocity": 88
            },
            {
              "bar": 2.0,
              "beat": 1.0,
              "pitch": 41,
              "duration": 0.9,
              "velocity": 88
            },
            {
              "bar": 2.0,
              "beat": 2.0,
              "pitch": 41,
              "duration": 0.9,
              "velocity": 88
            },
            {
              "bar": 2.0,
              "beat": 3.0,
              "pitch": 41,
              "duration": 0.9,
              "velocity": 88
            },
            {
              "bar": 2.0,
              "beat": 4.0,
              "pitch": 41,
              "duration": 0.9,
              "velocity": 88
            },
            {
              "bar": 3.0,
              "beat": 1.0,
              "pitch": 36,
              "duration": 0.9,
              "velocity": 88
            },
            {
              "bar": 3.0,
              "beat": 2.0,
              "pitch": 36,
              "duration": 0.9,
              "velocity": 88
            },
            {
              "bar": 3.0,
              "beat": 3.0,
              "pitch": 36,
              "duration": 0.9,
              "velocity": 88
            },
            {
              "bar": 3.0,
              "beat": 4.0,
              "pitch": 36,
              "duration": 0.9,
              "velocity": 88
            },
            {
              "bar": 4.0,
              "beat": 1.0,
              "pitch": 43,
              "duration": 0.9,
              "velocity": 88
            },
            {
              "bar": 4.0,
              "beat": 2.0,
              "pitch": 43,
              "duration": 0.9,
              "velocity": 88
            },
            {
              "bar": 4.0,
              "beat": 3.0,
              "pitch": 43,
              "duration": 0.9,
              "velocity": 88
            },
            {
              "bar": 4.0,
              "beat": 4.0,
              "pitch": 43,
              "duration": 0.9,
              "velocity": 88
            },
            {
              "bar": 5.0,
              "beat": 1.0,
              "pitch": 45,
              "duration": 0.9,
              "velocity": 88
            },
            {
              "bar": 5.0,
              "beat": 1.5,
              "pitch": 57,
              "duration": 0.22,
              "velocity": 52
            },
            {
              "bar": 5.0,
              "beat": 2.0,
              "pitch": 45,
              "duration": 0.9,
              "velocity": 88
            },
            {
              "bar": 5.0,
              "beat": 2.5,
              "pitch": 57,
              "duration": 0.22,
              "velocity": 52
            },
            {
              "bar": 5.0,
              "beat": 3.0,
              "pitch": 45,
              "duration": 0.9,
              "velocity": 88
            },
            {
              "bar": 5.0,
              "beat": 3.5,
              "pitch": 57,
              "duration": 0.22,
              "velocity": 52
            },
            {
              "bar": 5.0,
              "beat": 4.0,
              "pitch": 45,
              "duration": 0.9,
              "velocity": 88
            },
            {
              "bar": 5.0,
              "beat": 4.5,
              "pitch": 57,
              "duration": 0.22,
              "velocity": 52
            },
            {
              "bar": 6.0,
              "beat": 1.0,
              "pitch": 41,
              "duration": 0.9,
              "velocity": 88
            },
            {
              "bar": 6.0,
              "beat": 1.5,
              "pitch": 53,
              "duration": 0.22,
              "velocity": 52
            },
            {
              "bar": 6.0,
              "beat": 2.0,
              "pitch": 41,
              "duration": 0.9,
              "velocity": 88
            },
            {
              "bar": 6.0,
              "beat": 2.5,
              "pitch": 53,
              "duration": 0.22,
              "velocity": 52
            },
            {
              "bar": 6.0,
              "beat": 3.0,
              "pitch": 41,
              "duration": 0.9,
              "velocity": 88
            },
            {
              "bar": 6.0,
              "beat": 3.5,
              "pitch": 53,
              "duration": 0.22,
              "velocity": 52
            },
            {
              "bar": 6.0,
              "beat": 4.0,
              "pitch": 41,
              "duration": 0.9,
              "velocity": 88
            },
            {
              "bar": 6.0,
              "beat": 4.5,
              "pitch": 53,
              "duration": 0.22,
              "velocity": 52
            },
            {
              "bar": 7.0,
              "beat": 1.0,
              "pitch": 36,
              "duration": 0.9,
              "velocity": 88
            },
            {
              "bar": 7.0,
              "beat": 1.5,
              "pitch": 48,
              "duration": 0.22,
              "velocity": 52
            },
            {
              "bar": 7.0,
              "beat": 2.0,
              "pitch": 36,
              "duration": 0.9,
              "velocity": 88
            },
            {
              "bar": 7.0,
              "beat": 2.5,
              "pitch": 48,
              "duration": 0.22,
              "velocity": 52
            },
            {
              "bar": 7.0,
              "beat": 3.0,
              "pitch": 36,
              "duration": 0.9,
              "velocity": 88
            },
            {
              "bar": 7.0,
              "beat": 3.5,
              "pitch": 48,
              "duration": 0.22,
              "velocity": 52
            },
            {
              "bar": 7.0,
              "beat": 4.0,
              "pitch": 36,
              "duration": 0.9,
              "velocity": 88
            },
            {
              "bar": 7.0,
              "beat": 4.5,
              "pitch": 48,
              "duration": 0.22,
              "velocity": 52
            },
            {
              "bar": 8.0,
              "beat": 1.0,
              "pitch": 43,
              "duration": 0.9,
              "velocity": 88
            },
            {
              "bar": 8.0,
              "beat": 1.5,
              "pitch": 55,
              "duration": 0.22,
              "velocity": 52
            },
            {
              "bar": 8.0,
              "beat": 2.0,
              "pitch": 43,
              "duration": 0.9,
              "velocity": 88
            },
            {
              "bar": 8.0,
              "beat": 2.5,
              "pitch": 55,
              "duration": 0.22,
              "velocity": 52
            },
            {
              "bar": 8.0,
              "beat": 3.0,
              "pitch": 43,
              "duration": 0.9,
              "velocity": 88
            },
            {
              "bar": 8.0,
              "beat": 3.5,
              "pitch": 55,
              "duration": 0.22,
              "velocity": 52
            },
            {
              "bar": 8.0,
              "beat": 4.0,
              "pitch": 43,
              "duration": 0.9,
              "velocity": 88
            },
            {
              "bar": 8.0,
              "beat": 4.5,
              "pitch": 55,
              "duration": 0.22,
              "velocity": 52
            }
          ]
        },
        {
          "id": "chorus-bass",
          "name": "Chorus Bass",
          "bar": 33.0,
          "beats": 64.0,
          "color": "#2777d8",
          "loop_count": 1,
          "notes": [
            {
              "bar": 1.0,
              "beat": 1.0,
              "pitch": 45,
              "duration": 0.9,
              "velocity": 88
            },
            {
              "bar": 1.0,
              "beat": 2.0,
              "pitch": 45,
              "duration": 0.9,
              "velocity": 88
            },
            {
              "bar": 1.0,
              "beat": 3.0,
              "pitch": 45,
              "duration": 0.9,
              "velocity": 88
            },
            {
              "bar": 1.0,
              "beat": 4.0,
              "pitch": 45,
              "duration": 0.9,
              "velocity": 88
            },
            {
              "bar": 2.0,
              "beat": 1.0,
              "pitch": 41,
              "duration": 0.9,
              "velocity": 88
            },
            {
              "bar": 2.0,
              "beat": 2.0,
              "pitch": 41,
              "duration": 0.9,
              "velocity": 88
            },
            {
              "bar": 2.0,
              "beat": 3.0,
              "pitch": 41,
              "duration": 0.9,
              "velocity": 88
            },
            {
              "bar": 2.0,
              "beat": 4.0,
              "pitch": 41,
              "duration": 0.9,
              "velocity": 88
            },
            {
              "bar": 3.0,
              "beat": 1.0,
              "pitch": 36,
              "duration": 0.9,
              "velocity": 88
            },
            {
              "bar": 3.0,
              "beat": 2.0,
              "pitch": 36,
              "duration": 0.9,
              "velocity": 88
            },
            {
              "bar": 3.0,
              "beat": 3.0,
              "pitch": 36,
              "duration": 0.9,
              "velocity": 88
            },
            {
              "bar": 3.0,
              "beat": 4.0,
              "pitch": 36,
              "duration": 0.9,
              "velocity": 88
            },
            {
              "bar": 4.0,
              "beat": 1.0,
              "pitch": 43,
              "duration": 0.9,
              "velocity": 88
            },
            {
              "bar": 4.0,
              "beat": 2.0,
              "pitch": 43,
              "duration": 0.9,
              "velocity": 88
            },
            {
              "bar": 4.0,
              "beat": 3.0,
              "pitch": 43,
              "duration": 0.9,
              "velocity": 88
            },
            {
              "bar": 4.0,
              "beat": 4.0,
              "pitch": 43,
              "duration": 0.9,
              "velocity": 88
            },
            {
              "bar": 5.0,
              "beat": 1.0,
              "pitch": 45,
              "duration": 0.9,
              "velocity": 88
            },
            {
              "bar": 5.0,
              "beat": 2.0,
              "pitch": 45,
              "duration": 0.9,
              "velocity": 88
            },
            {
              "bar": 5.0,
              "beat": 3.0,
              "pitch": 45,
              "duration": 0.9,
              "velocity": 88
            },
            {
              "bar": 5.0,
              "beat": 4.0,
              "pitch": 45,
              "duration": 0.9,
              "velocity": 88
            },
            {
              "bar": 6.0,
              "beat": 1.0,
              "pitch": 41,
              "duration": 0.9,
              "velocity": 88
            },
            {
              "bar": 6.0,
              "beat": 2.0,
              "pitch": 41,
              "duration": 0.9,
              "velocity": 88
            },
            {
              "bar": 6.0,
              "beat": 3.0,
              "pitch": 41,
              "duration": 0.9,
              "velocity": 88
            },
            {
              "bar": 6.0,
              "beat": 4.0,
              "pitch": 41,
              "duration": 0.9,
              "velocity": 88
            },
            {
              "bar": 7.0,
              "beat": 1.0,
              "pitch": 36,
              "duration": 0.9,
              "velocity": 88
            },
            {
              "bar": 7.0,
              "beat": 2.0,
              "pitch": 36,
              "duration": 0.9,
              "velocity": 88
            },
            {
              "bar": 7.0,
              "beat": 3.0,
              "pitch": 36,
              "duration": 0.9,
              "velocity": 88
            },
            {
              "bar": 7.0,
              "beat": 4.0,
              "pitch": 36,
              "duration": 0.9,
              "velocity": 88
            },
            {
              "bar": 8.0,
              "beat": 1.0,
              "pitch": 43,
              "duration": 0.9,
              "velocity": 88
            },
            {
              "bar": 8.0,
              "beat": 2.0,
              "pitch": 43,
              "duration": 0.9,
              "velocity": 88
            },
            {
              "bar": 8.0,
              "beat": 3.0,
              "pitch": 43,
              "duration": 0.9,
              "velocity": 88
            },
            {
              "bar": 8.0,
              "beat": 4.0,
              "pitch": 43,
              "duration": 0.9,
              "velocity": 88
            },
            {
              "bar": 9.0,
              "beat": 1.0,
              "pitch": 45,
              "duration": 0.9,
              "velocity": 88
            },
            {
              "bar": 9.0,
              "beat": 1.5,
              "pitch": 57,
              "duration": 0.22,
              "velocity": 52
            },
            {
              "bar": 9.0,
              "beat": 2.0,
              "pitch": 45,
              "duration": 0.9,
              "velocity": 88
            },
            {
              "bar": 9.0,
              "beat": 2.5,
              "pitch": 57,
              "duration": 0.22,
              "velocity": 52
            },
            {
              "bar": 9.0,
              "beat": 3.0,
              "pitch": 45,
              "duration": 0.9,
              "velocity": 88
            },
            {
              "bar": 9.0,
              "beat": 3.5,
              "pitch": 57,
              "duration": 0.22,
              "velocity": 52
            },
            {
              "bar": 9.0,
              "beat": 4.0,
              "pitch": 45,
              "duration": 0.9,
              "velocity": 88
            },
            {
              "bar": 9.0,
              "beat": 4.5,
              "pitch": 57,
              "duration": 0.22,
              "velocity": 52
            },
            {
              "bar": 10.0,
              "beat": 1.0,
              "pitch": 41,
              "duration": 0.9,
              "velocity": 88
            },
            {
              "bar": 10.0,
              "beat": 1.5,
              "pitch": 53,
              "duration": 0.22,
              "velocity": 52
            },
            {
              "bar": 10.0,
              "beat": 2.0,
              "pitch": 41,
              "duration": 0.9,
              "velocity": 88
            },
            {
              "bar": 10.0,
              "beat": 2.5,
              "pitch": 53,
              "duration": 0.22,
              "velocity": 52
            },
            {
              "bar": 10.0,
              "beat": 3.0,
              "pitch": 41,
              "duration": 0.9,
              "velocity": 88
            },
            {
              "bar": 10.0,
              "beat": 3.5,
              "pitch": 53,
              "duration": 0.22,
              "velocity": 52
            },
            {
              "bar": 10.0,
              "beat": 4.0,
              "pitch": 41,
              "duration": 0.9,
              "velocity": 88
            },
            {
              "bar": 10.0,
              "beat": 4.5,
              "pitch": 53,
              "duration": 0.22,
              "velocity": 52
            },
            {
              "bar": 11.0,
              "beat": 1.0,
              "pitch": 36,
              "duration": 0.9,
              "velocity": 88
            },
            {
              "bar": 11.0,
              "beat": 1.5,
              "pitch": 48,
              "duration": 0.22,
              "velocity": 52
            },
            {
              "bar": 11.0,
              "beat": 2.0,
              "pitch": 36,
              "duration": 0.9,
              "velocity": 88
            },
            {
              "bar": 11.0,
              "beat": 2.5,
              "pitch": 48,
              "duration": 0.22,
              "velocity": 52
            },
            {
              "bar": 11.0,
              "beat": 3.0,
              "pitch": 36,
              "duration": 0.9,
              "velocity": 88
            },
            {
              "bar": 11.0,
              "beat": 3.5,
              "pitch": 48,
              "duration": 0.22,
              "velocity": 52
            },
            {
              "bar": 11.0,
              "beat": 4.0,
              "pitch": 36,
              "duration": 0.9,
              "velocity": 88
            },
            {
              "bar": 11.0,
              "beat": 4.5,
              "pitch": 48,
              "duration": 0.22,
              "velocity": 52
            },
            {
              "bar": 12.0,
              "beat": 1.0,
              "pitch": 43,
              "duration": 0.9,
              "velocity": 88
            },
            {
              "bar": 12.0,
              "beat": 1.5,
              "pitch": 55,
              "duration": 0.22,
              "velocity": 52
            },
            {
              "bar": 12.0,
              "beat": 2.0,
              "pitch": 43,
              "duration": 0.9,
              "velocity": 88
            },
            {
              "bar": 12.0,
              "beat": 2.5,
              "pitch": 55,
              "duration": 0.22,
              "velocity": 52
            },
            {
              "bar": 12.0,
              "beat": 3.0,
              "pitch": 43,
              "duration": 0.9,
              "velocity": 88
            },
            {
              "bar": 12.0,
              "beat": 3.5,
              "pitch": 55,
              "duration": 0.22,
              "velocity": 52
            },
            {
              "bar": 12.0,
              "beat": 4.0,
              "pitch": 43,
              "duration": 0.9,
              "velocity": 88
            },
            {
              "bar": 12.0,
              "beat": 4.5,
              "pitch": 55,
              "duration": 0.22,
              "velocity": 52
            },
            {
              "bar": 13.0,
              "beat": 1.0,
              "pitch": 45,
              "duration": 0.9,
              "velocity": 88
            },
            {
              "bar": 13.0,
              "beat": 1.5,
              "pitch": 57,
              "duration": 0.22,
              "velocity": 52
            },
            {
              "bar": 13.0,
              "beat": 2.0,
              "pitch": 45,
              "duration": 0.9,
              "velocity": 88
            },
            {
              "bar": 13.0,
              "beat": 2.5,
              "pitch": 57,
              "duration": 0.22,
              "velocity": 52
            },
            {
              "bar": 13.0,
              "beat": 3.0,
              "pitch": 45,
              "duration": 0.9,
              "velocity": 88
            },
            {
              "bar": 13.0,
              "beat": 3.5,
              "pitch": 57,
              "duration": 0.22,
              "velocity": 52
            },
            {
              "bar": 13.0,
              "beat": 4.0,
              "pitch": 45,
              "duration": 0.9,
              "velocity": 88
            },
            {
              "bar": 13.0,
              "beat": 4.5,
              "pitch": 57,
              "duration": 0.22,
              "velocity": 52
            },
            {
              "bar": 14.0,
              "beat": 1.0,
              "pitch": 41,
              "duration": 0.9,
              "velocity": 88
            },
            {
              "bar": 14.0,
              "beat": 1.5,
              "pitch": 53,
              "duration": 0.22,
              "velocity": 52
            },
            {
              "bar": 14.0,
              "beat": 2.0,
              "pitch": 41,
              "duration": 0.9,
              "velocity": 88
            },
            {
              "bar": 14.0,
              "beat": 2.5,
              "pitch": 53,
              "duration": 0.22,
              "velocity": 52
            },
            {
              "bar": 14.0,
              "beat": 3.0,
              "pitch": 41,
              "duration": 0.9,
              "velocity": 88
            },
            {
              "bar": 14.0,
              "beat": 3.5,
              "pitch": 53,
              "duration": 0.22,
              "velocity": 52
            },
            {
              "bar": 14.0,
              "beat": 4.0,
              "pitch": 41,
              "duration": 0.9,
              "velocity": 88
            },
            {
              "bar": 14.0,
              "beat": 4.5,
              "pitch": 53,
              "duration": 0.22,
              "velocity": 52
            },
            {
              "bar": 15.0,
              "beat": 1.0,
              "pitch": 36,
              "duration": 0.9,
              "velocity": 88
            },
            {
              "bar": 15.0,
              "beat": 1.5,
              "pitch": 48,
              "duration": 0.22,
              "velocity": 52
            },
            {
              "bar": 15.0,
              "beat": 2.0,
              "pitch": 36,
              "duration": 0.9,
              "velocity": 88
            },
            {
              "bar": 15.0,
              "beat": 2.5,
              "pitch": 48,
              "duration": 0.22,
              "velocity": 52
            },
            {
              "bar": 15.0,
              "beat": 3.0,
              "pitch": 36,
              "duration": 0.9,
              "velocity": 88
            },
            {
              "bar": 15.0,
              "beat": 3.5,
              "pitch": 48,
              "duration": 0.22,
              "velocity": 52
            },
            {
              "bar": 15.0,
              "beat": 4.0,
              "pitch": 36,
              "duration": 0.9,
              "velocity": 88
            },
            {
              "bar": 15.0,
              "beat": 4.5,
              "pitch": 48,
              "duration": 0.22,
              "velocity": 52
            },
            {
              "bar": 16.0,
              "beat": 1.0,
              "pitch": 43,
              "duration": 0.9,
              "velocity": 88
            },
            {
              "bar": 16.0,
              "beat": 1.5,
              "pitch": 55,
              "duration": 0.22,
              "velocity": 52
            },
            {
              "bar": 16.0,
              "beat": 2.0,
              "pitch": 43,
              "duration": 0.9,
              "velocity": 88
            },
            {
              "bar": 16.0,
              "beat": 2.5,
              "pitch": 55,
              "duration": 0.22,
              "velocity": 52
            },
            {
              "bar": 16.0,
              "beat": 3.0,
              "pitch": 43,
              "duration": 0.9,
              "velocity": 88
            },
            {
              "bar": 16.0,
              "beat": 3.5,
              "pitch": 55,
              "duration": 0.22,
              "velocity": 52
            },
            {
              "bar": 16.0,
              "beat": 4.0,
              "pitch": 43,
              "duration": 0.9,
              "velocity": 88
            },
            {
              "bar": 16.0,
              "beat": 4.5,
              "pitch": 55,
              "duration": 0.22,
              "velocity": 52
            }
          ]
        },
        {
          "id": "final-chorus-bass",
          "name": "Final Chorus Bass",
          "bar": 57.0,
          "beats": 64.0,
          "color": "#2777d8",
          "loop_count": 1,
          "notes": [
            {
              "bar": 1.0,
              "beat": 1.0,
              "pitch": 45,
              "duration": 0.9,
              "velocity": 88
            },
            {
              "bar": 1.0,
              "beat": 2.0,
              "pitch": 45,
              "duration": 0.9,
              "velocity": 88
            },
            {
              "bar": 1.0,
              "beat": 3.0,
              "pitch": 45,
              "duration": 0.9,
              "velocity": 88
            },
            {
              "bar": 1.0,
              "beat": 4.0,
              "pitch": 45,
              "duration": 0.9,
              "velocity": 88
            },
            {
              "bar": 2.0,
              "beat": 1.0,
              "pitch": 41,
              "duration": 0.9,
              "velocity": 88
            },
            {
              "bar": 2.0,
              "beat": 2.0,
              "pitch": 41,
              "duration": 0.9,
              "velocity": 88
            },
            {
              "bar": 2.0,
              "beat": 3.0,
              "pitch": 41,
              "duration": 0.9,
              "velocity": 88
            },
            {
              "bar": 2.0,
              "beat": 4.0,
              "pitch": 41,
              "duration": 0.9,
              "velocity": 88
            },
            {
              "bar": 3.0,
              "beat": 1.0,
              "pitch": 36,
              "duration": 0.9,
              "velocity": 88
            },
            {
              "bar": 3.0,
              "beat": 2.0,
              "pitch": 36,
              "duration": 0.9,
              "velocity": 88
            },
            {
              "bar": 3.0,
              "beat": 3.0,
              "pitch": 36,
              "duration": 0.9,
              "velocity": 88
            },
            {
              "bar": 3.0,
              "beat": 4.0,
              "pitch": 36,
              "duration": 0.9,
              "velocity": 88
            },
            {
              "bar": 4.0,
              "beat": 1.0,
              "pitch": 43,
              "duration": 0.9,
              "velocity": 88
            },
            {
              "bar": 4.0,
              "beat": 2.0,
              "pitch": 43,
              "duration": 0.9,
              "velocity": 88
            },
            {
              "bar": 4.0,
              "beat": 3.0,
              "pitch": 43,
              "duration": 0.9,
              "velocity": 88
            },
            {
              "bar": 4.0,
              "beat": 4.0,
              "pitch": 43,
              "duration": 0.9,
              "velocity": 88
            },
            {
              "bar": 5.0,
              "beat": 1.0,
              "pitch": 45,
              "duration": 0.9,
              "velocity": 88
            },
            {
              "bar": 5.0,
              "beat": 2.0,
              "pitch": 45,
              "duration": 0.9,
              "velocity": 88
            },
            {
              "bar": 5.0,
              "beat": 3.0,
              "pitch": 45,
              "duration": 0.9,
              "velocity": 88
            },
            {
              "bar": 5.0,
              "beat": 4.0,
              "pitch": 45,
              "duration": 0.9,
              "velocity": 88
            },
            {
              "bar": 6.0,
              "beat": 1.0,
              "pitch": 41,
              "duration": 0.9,
              "velocity": 88
            },
            {
              "bar": 6.0,
              "beat": 2.0,
              "pitch": 41,
              "duration": 0.9,
              "velocity": 88
            },
            {
              "bar": 6.0,
              "beat": 3.0,
              "pitch": 41,
              "duration": 0.9,
              "velocity": 88
            },
            {
              "bar": 6.0,
              "beat": 4.0,
              "pitch": 41,
              "duration": 0.9,
              "velocity": 88
            },
            {
              "bar": 7.0,
              "beat": 1.0,
              "pitch": 36,
              "duration": 0.9,
              "velocity": 88
            },
            {
              "bar": 7.0,
              "beat": 2.0,
              "pitch": 36,
              "duration": 0.9,
              "velocity": 88
            },
            {
              "bar": 7.0,
              "beat": 3.0,
              "pitch": 36,
              "duration": 0.9,
              "velocity": 88
            },
            {
              "bar": 7.0,
              "beat": 4.0,
              "pitch": 36,
              "duration": 0.9,
              "velocity": 88
            },
            {
              "bar": 8.0,
              "beat": 1.0,
              "pitch": 43,
              "duration": 0.9,
              "velocity": 88
            },
            {
              "bar": 8.0,
              "beat": 2.0,
              "pitch": 43,
              "duration": 0.9,
              "velocity": 88
            },
            {
              "bar": 8.0,
              "beat": 3.0,
              "pitch": 43,
              "duration": 0.9,
              "velocity": 88
            },
            {
              "bar": 8.0,
              "beat": 4.0,
              "pitch": 43,
              "duration": 0.9,
              "velocity": 88
            },
            {
              "bar": 9.0,
              "beat": 1.0,
              "pitch": 45,
              "duration": 0.9,
              "velocity": 88
            },
            {
              "bar": 9.0,
              "beat": 1.5,
              "pitch": 57,
              "duration": 0.22,
              "velocity": 52
            },
            {
              "bar": 9.0,
              "beat": 2.0,
              "pitch": 45,
              "duration": 0.9,
              "velocity": 88
            },
            {
              "bar": 9.0,
              "beat": 2.5,
              "pitch": 57,
              "duration": 0.22,
              "velocity": 52
            },
            {
              "bar": 9.0,
              "beat": 3.0,
              "pitch": 45,
              "duration": 0.9,
              "velocity": 88
            },
            {
              "bar": 9.0,
              "beat": 3.5,
              "pitch": 57,
              "duration": 0.22,
              "velocity": 52
            },
            {
              "bar": 9.0,
              "beat": 4.0,
              "pitch": 45,
              "duration": 0.9,
              "velocity": 88
            },
            {
              "bar": 9.0,
              "beat": 4.5,
              "pitch": 57,
              "duration": 0.22,
              "velocity": 52
            },
            {
              "bar": 10.0,
              "beat": 1.0,
              "pitch": 41,
              "duration": 0.9,
              "velocity": 88
            },
            {
              "bar": 10.0,
              "beat": 1.5,
              "pitch": 53,
              "duration": 0.22,
              "velocity": 52
            },
            {
              "bar": 10.0,
              "beat": 2.0,
              "pitch": 41,
              "duration": 0.9,
              "velocity": 88
            },
            {
              "bar": 10.0,
              "beat": 2.5,
              "pitch": 53,
              "duration": 0.22,
              "velocity": 52
            },
            {
              "bar": 10.0,
              "beat": 3.0,
              "pitch": 41,
              "duration": 0.9,
              "velocity": 88
            },
            {
              "bar": 10.0,
              "beat": 3.5,
              "pitch": 53,
              "duration": 0.22,
              "velocity": 52
            },
            {
              "bar": 10.0,
              "beat": 4.0,
              "pitch": 41,
              "duration": 0.9,
              "velocity": 88
            },
            {
              "bar": 10.0,
              "beat": 4.5,
              "pitch": 53,
              "duration": 0.22,
              "velocity": 52
            },
            {
              "bar": 11.0,
              "beat": 1.0,
              "pitch": 36,
              "duration": 0.9,
              "velocity": 88
            },
            {
              "bar": 11.0,
              "beat": 1.5,
              "pitch": 48,
              "duration": 0.22,
              "velocity": 52
            },
            {
              "bar": 11.0,
              "beat": 2.0,
              "pitch": 36,
              "duration": 0.9,
              "velocity": 88
            },
            {
              "bar": 11.0,
              "beat": 2.5,
              "pitch": 48,
              "duration": 0.22,
              "velocity": 52
            },
            {
              "bar": 11.0,
              "beat": 3.0,
              "pitch": 36,
              "duration": 0.9,
              "velocity": 88
            },
            {
              "bar": 11.0,
              "beat": 3.5,
              "pitch": 48,
              "duration": 0.22,
              "velocity": 52
            },
            {
              "bar": 11.0,
              "beat": 4.0,
              "pitch": 36,
              "duration": 0.9,
              "velocity": 88
            },
            {
              "bar": 11.0,
              "beat": 4.5,
              "pitch": 48,
              "duration": 0.22,
              "velocity": 52
            },
            {
              "bar": 12.0,
              "beat": 1.0,
              "pitch": 43,
              "duration": 0.9,
              "velocity": 88
            },
            {
              "bar": 12.0,
              "beat": 1.5,
              "pitch": 55,
              "duration": 0.22,
              "velocity": 52
            },
            {
              "bar": 12.0,
              "beat": 2.0,
              "pitch": 43,
              "duration": 0.9,
              "velocity": 88
            },
            {
              "bar": 12.0,
              "beat": 2.5,
              "pitch": 55,
              "duration": 0.22,
              "velocity": 52
            },
            {
              "bar": 12.0,
              "beat": 3.0,
              "pitch": 43,
              "duration": 0.9,
              "velocity": 88
            },
            {
              "bar": 12.0,
              "beat": 3.5,
              "pitch": 55,
              "duration": 0.22,
              "velocity": 52
            },
            {
              "bar": 12.0,
              "beat": 4.0,
              "pitch": 43,
              "duration": 0.9,
              "velocity": 88
            },
            {
              "bar": 12.0,
              "beat": 4.5,
              "pitch": 55,
              "duration": 0.22,
              "velocity": 52
            },
            {
              "bar": 13.0,
              "beat": 1.0,
              "pitch": 45,
              "duration": 0.9,
              "velocity": 88
            },
            {
              "bar": 13.0,
              "beat": 1.5,
              "pitch": 57,
              "duration": 0.22,
              "velocity": 52
            },
            {
              "bar": 13.0,
              "beat": 2.0,
              "pitch": 45,
              "duration": 0.9,
              "velocity": 88
            },
            {
              "bar": 13.0,
              "beat": 2.5,
              "pitch": 57,
              "duration": 0.22,
              "velocity": 52
            },
            {
              "bar": 13.0,
              "beat": 3.0,
              "pitch": 45,
              "duration": 0.9,
              "velocity": 88
            },
            {
              "bar": 13.0,
              "beat": 3.5,
              "pitch": 57,
              "duration": 0.22,
              "velocity": 52
            },
            {
              "bar": 13.0,
              "beat": 4.0,
              "pitch": 45,
              "duration": 0.9,
              "velocity": 88
            },
            {
              "bar": 13.0,
              "beat": 4.5,
              "pitch": 57,
              "duration": 0.22,
              "velocity": 52
            },
            {
              "bar": 14.0,
              "beat": 1.0,
              "pitch": 41,
              "duration": 0.9,
              "velocity": 88
            },
            {
              "bar": 14.0,
              "beat": 1.5,
              "pitch": 53,
              "duration": 0.22,
              "velocity": 52
            },
            {
              "bar": 14.0,
              "beat": 2.0,
              "pitch": 41,
              "duration": 0.9,
              "velocity": 88
            },
            {
              "bar": 14.0,
              "beat": 2.5,
              "pitch": 53,
              "duration": 0.22,
              "velocity": 52
            },
            {
              "bar": 14.0,
              "beat": 3.0,
              "pitch": 41,
              "duration": 0.9,
              "velocity": 88
            },
            {
              "bar": 14.0,
              "beat": 3.5,
              "pitch": 53,
              "duration": 0.22,
              "velocity": 52
            },
            {
              "bar": 14.0,
              "beat": 4.0,
              "pitch": 41,
              "duration": 0.9,
              "velocity": 88
            },
            {
              "bar": 14.0,
              "beat": 4.5,
              "pitch": 53,
              "duration": 0.22,
              "velocity": 52
            },
            {
              "bar": 15.0,
              "beat": 1.0,
              "pitch": 36,
              "duration": 0.9,
              "velocity": 88
            },
            {
              "bar": 15.0,
              "beat": 1.5,
              "pitch": 48,
              "duration": 0.22,
              "velocity": 52
            },
            {
              "bar": 15.0,
              "beat": 2.0,
              "pitch": 36,
              "duration": 0.9,
              "velocity": 88
            },
            {
              "bar": 15.0,
              "beat": 2.5,
              "pitch": 48,
              "duration": 0.22,
              "velocity": 52
            },
            {
              "bar": 15.0,
              "beat": 3.0,
              "pitch": 36,
              "duration": 0.9,
              "velocity": 88
            },
            {
              "bar": 15.0,
              "beat": 3.5,
              "pitch": 48,
              "duration": 0.22,
              "velocity": 52
            },
            {
              "bar": 15.0,
              "beat": 4.0,
              "pitch": 36,
              "duration": 0.9,
              "velocity": 88
            },
            {
              "bar": 15.0,
              "beat": 4.5,
              "pitch": 48,
              "duration": 0.22,
              "velocity": 52
            },
            {
              "bar": 16.0,
              "beat": 1.0,
              "pitch": 43,
              "duration": 0.9,
              "velocity": 88
            },
            {
              "bar": 16.0,
              "beat": 1.5,
              "pitch": 55,
              "duration": 0.22,
              "velocity": 52
            },
            {
              "bar": 16.0,
              "beat": 2.0,
              "pitch": 43,
              "duration": 0.9,
              "velocity": 88
            },
            {
              "bar": 16.0,
              "beat": 2.5,
              "pitch": 55,
              "duration": 0.22,
              "velocity": 52
            },
            {
              "bar": 16.0,
              "beat": 3.0,
              "pitch": 43,
              "duration": 0.9,
              "velocity": 88
            },
            {
              "bar": 16.0,
              "beat": 3.5,
              "pitch": 55,
              "duration": 0.22,
              "velocity": 52
            },
            {
              "bar": 16.0,
              "beat": 4.0,
              "pitch": 43,
              "duration": 0.9,
              "velocity": 88
            },
            {
              "bar": 16.0,
              "beat": 4.5,
              "pitch": 55,
              "duration": 0.22,
              "velocity": 52
            }
          ]
        }
      ],
      "audio_clips": [],
      "program": 38,
      "preset": "bass"
    },
    {
      "name": "Pad",
      "kind": "instrument",
      "channel": 2,
      "volume": 74,
      "pan": 64,
      "muted": false,
      "solo": false,
      "record_armed": false,
      "effects": [
        {
          "type": "reverb",
          "enabled": true,
          "params": {
            "mix": 0.16,
            "decay": 0.35
          }
        }
      ],
      "notes": [],
      "clips": [
        {
          "id": "intro-pad",
          "name": "Intro Pad",
          "bar": 1.0,
          "beats": 32.0,
          "color": "#38a856",
          "loop_count": 1,
          "notes": [
            {
              "bar": 1.0,
              "beat": 1.0,
              "pitch": 69,
              "duration": 3.85,
              "velocity": 48
            },
            {
              "bar": 1.0,
              "beat": 1.0,
              "pitch": 72,
              "duration": 3.85,
              "velocity": 48
            },
            {
              "bar": 1.0,
              "beat": 1.0,
              "pitch": 76,
              "duration": 3.85,
              "velocity": 48
            },
            {
              "bar": 2.0,
              "beat": 1.0,
              "pitch": 65,
              "duration": 3.85,
              "velocity": 48
            },
            {
              "bar": 2.0,
              "beat": 1.0,
              "pitch": 69,
              "duration": 3.85,
              "velocity": 48
            },
            {
              "bar": 2.0,
              "beat": 1.0,
              "pitch": 72,
              "duration": 3.85,
              "velocity": 48
            },
            {
              "bar": 3.0,
              "beat": 1.0,
              "pitch": 60,
              "duration": 3.85,
              "velocity": 48
            },
            {
              "bar": 3.0,
              "beat": 1.0,
              "pitch": 64,
              "duration": 3.85,
              "velocity": 48
            },
            {
              "bar": 3.0,
              "beat": 1.0,
              "pitch": 67,
              "duration": 3.85,
              "velocity": 48
            },
            {
              "bar": 4.0,
              "beat": 1.0,
              "pitch": 67,
              "duration": 3.85,
              "velocity": 48
            },
            {
              "bar": 4.0,
              "beat": 1.0,
              "pitch": 71,
              "duration": 3.85,
              "velocity": 48
            },
            {
              "bar": 4.0,
              "beat": 1.0,
              "pitch": 74,
              "duration": 3.85,
              "velocity": 48
            },
            {
              "bar": 5.0,
              "beat": 1.0,
              "pitch": 69,
              "duration": 3.85,
              "velocity": 48
            },
            {
              "bar": 5.0,
              "beat": 1.0,
              "pitch": 72,
              "duration": 3.85,
              "velocity": 48
            },
            {
              "bar": 5.0,
              "beat": 1.0,
              "pitch": 76,
              "duration": 3.85,
              "velocity": 48
            },
            {
              "bar": 6.0,
              "beat": 1.0,
              "pitch": 65,
              "duration": 3.85,
              "velocity": 48
            },
            {
              "bar": 6.0,
              "beat": 1.0,
              "pitch": 69,
              "duration": 3.85,
              "velocity": 48
            },
            {
              "bar": 6.0,
              "beat": 1.0,
              "pitch": 72,
              "duration": 3.85,
              "velocity": 48
            },
            {
              "bar": 7.0,
              "beat": 1.0,
              "pitch": 60,
              "duration": 3.85,
              "velocity": 48
            },
            {
              "bar": 7.0,
              "beat": 1.0,
              "pitch": 64,
              "duration": 3.85,
              "velocity": 48
            },
            {
              "bar": 7.0,
              "beat": 1.0,
              "pitch": 67,
              "duration": 3.85,
              "velocity": 48
            },
            {
              "bar": 8.0,
              "beat": 1.0,
              "pitch": 67,
              "duration": 3.85,
              "velocity": 48
            },
            {
              "bar": 8.0,
              "beat": 1.0,
              "pitch": 71,
              "duration": 3.85,
              "velocity": 48
            },
            {
              "bar": 8.0,
              "beat": 1.0,
              "pitch": 74,
              "duration": 3.85,
              "velocity": 48
            }
          ]
        },
        {
          "id": "pre-chorus-pad",
          "name": "Pre-Chorus Pad",
          "bar": 25.0,
          "beats": 32.0,
          "color": "#38a856",
          "loop_count": 1,
          "notes": [
            {
              "bar": 1.0,
              "beat": 1.0,
              "pitch": 69,
              "duration": 3.85,
              "velocity": 48
            },
            {
              "bar": 1.0,
              "beat": 1.0,
              "pitch": 72,
              "duration": 3.85,
              "velocity": 48
            },
            {
              "bar": 1.0,
              "beat": 1.0,
              "pitch": 76,
              "duration": 3.85,
              "velocity": 48
            },
            {
              "bar": 2.0,
              "beat": 1.0,
              "pitch": 65,
              "duration": 3.85,
              "velocity": 48
            },
            {
              "bar": 2.0,
              "beat": 1.0,
              "pitch": 69,
              "duration": 3.85,
              "velocity": 48
            },
            {
              "bar": 2.0,
              "beat": 1.0,
              "pitch": 72,
              "duration": 3.85,
              "velocity": 48
            },
            {
              "bar": 3.0,
              "beat": 1.0,
              "pitch": 60,
              "duration": 3.85,
              "velocity": 48
            },
            {
              "bar": 3.0,
              "beat": 1.0,
              "pitch": 64,
              "duration": 3.85,
              "velocity": 48
            },
            {
              "bar": 3.0,
              "beat": 1.0,
              "pitch": 67,
              "duration": 3.85,
              "velocity": 48
            },
            {
              "bar": 4.0,
              "beat": 1.0,
              "pitch": 67,
              "duration": 3.85,
              "velocity": 48
            },
            {
              "bar": 4.0,
              "beat": 1.0,
              "pitch": 71,
              "duration": 3.85,
              "velocity": 48
            },
            {
              "bar": 4.0,
              "beat": 1.0,
              "pitch": 74,
              "duration": 3.85,
              "velocity": 48
            },
            {
              "bar": 5.0,
              "beat": 1.0,
              "pitch": 69,
              "duration": 3.85,
              "velocity": 48
            },
            {
              "bar": 5.0,
              "beat": 1.0,
              "pitch": 72,
              "duration": 3.85,
              "velocity": 48
            },
            {
              "bar": 5.0,
              "beat": 1.0,
              "pitch": 76,
              "duration": 3.85,
              "velocity": 48
            },
            {
              "bar": 6.0,
              "beat": 1.0,
              "pitch": 65,
              "duration": 3.85,
              "velocity": 48
            },
            {
              "bar": 6.0,
              "beat": 1.0,
              "pitch": 69,
              "duration": 3.85,
              "velocity": 48
            },
            {
              "bar": 6.0,
              "beat": 1.0,
              "pitch": 72,
              "duration": 3.85,
              "velocity": 48
            },
            {
              "bar": 7.0,
              "beat": 1.0,
              "pitch": 60,
              "duration": 3.85,
              "velocity": 48
            },
            {
              "bar": 7.0,
              "beat": 1.0,
              "pitch": 64,
              "duration": 3.85,
              "velocity": 48
            },
            {
              "bar": 7.0,
              "beat": 1.0,
              "pitch": 67,
              "duration": 3.85,
              "velocity": 48
            },
            {
              "bar": 8.0,
              "beat": 1.0,
              "pitch": 67,
              "duration": 3.85,
              "velocity": 48
            },
            {
              "bar": 8.0,
              "beat": 1.0,
              "pitch": 71,
              "duration": 3.85,
              "velocity": 48
            },
            {
              "bar": 8.0,
              "beat": 1.0,
              "pitch": 74,
              "duration": 3.85,
              "velocity": 48
            }
          ]
        },
        {
          "id": "chorus-pad",
          "name": "Chorus Pad",
          "bar": 33.0,
          "beats": 64.0,
          "color": "#38a856",
          "loop_count": 1,
          "notes": [
            {
              "bar": 1.0,
              "beat": 1.0,
              "pitch": 69,
              "duration": 3.85,
              "velocity": 48
            },
            {
              "bar": 1.0,
              "beat": 1.0,
              "pitch": 72,
              "duration": 3.85,
              "velocity": 48
            },
            {
              "bar": 1.0,
              "beat": 1.0,
              "pitch": 76,
              "duration": 3.85,
              "velocity": 48
            },
            {
              "bar": 2.0,
              "beat": 1.0,
              "pitch": 65,
              "duration": 3.85,
              "velocity": 48
            },
            {
              "bar": 2.0,
              "beat": 1.0,
              "pitch": 69,
              "duration": 3.85,
              "velocity": 48
            },
            {
              "bar": 2.0,
              "beat": 1.0,
              "pitch": 72,
              "duration": 3.85,
              "velocity": 48
            },
            {
              "bar": 3.0,
              "beat": 1.0,
              "pitch": 60,
              "duration": 3.85,
              "velocity": 48
            },
            {
              "bar": 3.0,
              "beat": 1.0,
              "pitch": 64,
              "duration": 3.85,
              "velocity": 48
            },
            {
              "bar": 3.0,
              "beat": 1.0,
              "pitch": 67,
              "duration": 3.85,
              "velocity": 48
            },
            {
              "bar": 4.0,
              "beat": 1.0,
              "pitch": 67,
              "duration": 3.85,
              "velocity": 48
            },
            {
              "bar": 4.0,
              "beat": 1.0,
              "pitch": 71,
              "duration": 3.85,
              "velocity": 48
            },
            {
              "bar": 4.0,
              "beat": 1.0,
              "pitch": 74,
              "duration": 3.85,
              "velocity": 48
            },
            {
              "bar": 5.0,
              "beat": 1.0,
              "pitch": 69,
              "duration": 3.85,
              "velocity": 48
            },
            {
              "bar": 5.0,
              "beat": 1.0,
              "pitch": 72,
              "duration": 3.85,
              "velocity": 48
            },
            {
              "bar": 5.0,
              "beat": 1.0,
              "pitch": 76,
              "duration": 3.85,
              "velocity": 48
            },
            {
              "bar": 6.0,
              "beat": 1.0,
              "pitch": 65,
              "duration": 3.85,
              "velocity": 48
            },
            {
              "bar": 6.0,
              "beat": 1.0,
              "pitch": 69,
              "duration": 3.85,
              "velocity": 48
            },
            {
              "bar": 6.0,
              "beat": 1.0,
              "pitch": 72,
              "duration": 3.85,
              "velocity": 48
            },
            {
              "bar": 7.0,
              "beat": 1.0,
              "pitch": 60,
              "duration": 3.85,
              "velocity": 48
            },
            {
              "bar": 7.0,
              "beat": 1.0,
              "pitch": 64,
              "duration": 3.85,
              "velocity": 48
            },
            {
              "bar": 7.0,
              "beat": 1.0,
              "pitch": 67,
              "duration": 3.85,
              "velocity": 48
            },
            {
              "bar": 8.0,
              "beat": 1.0,
              "pitch": 67,
              "duration": 3.85,
              "velocity": 48
            },
            {
              "bar": 8.0,
              "beat": 1.0,
              "pitch": 71,
              "duration": 3.85,
              "velocity": 48
            },
            {
              "bar": 8.0,
              "beat": 1.0,
              "pitch": 74,
              "duration": 3.85,
              "velocity": 48
            },
            {
              "bar": 9.0,
              "beat": 1.0,
              "pitch": 69,
              "duration": 3.85,
              "velocity": 48
            },
            {
              "bar": 9.0,
              "beat": 1.0,
              "pitch": 72,
              "duration": 3.85,
              "velocity": 48
            },
            {
              "bar": 9.0,
              "beat": 1.0,
              "pitch": 76,
              "duration": 3.85,
              "velocity": 48
            },
            {
              "bar": 10.0,
              "beat": 1.0,
              "pitch": 65,
              "duration": 3.85,
              "velocity": 48
            },
            {
              "bar": 10.0,
              "beat": 1.0,
              "pitch": 69,
              "duration": 3.85,
              "velocity": 48
            },
            {
              "bar": 10.0,
              "beat": 1.0,
              "pitch": 72,
              "duration": 3.85,
              "velocity": 48
            },
            {
              "bar": 11.0,
              "beat": 1.0,
              "pitch": 60,
              "duration": 3.85,
              "velocity": 48
            },
            {
              "bar": 11.0,
              "beat": 1.0,
              "pitch": 64,
              "duration": 3.85,
              "velocity": 48
            },
            {
              "bar": 11.0,
              "beat": 1.0,
              "pitch": 67,
              "duration": 3.85,
              "velocity": 48
            },
            {
              "bar": 12.0,
              "beat": 1.0,
              "pitch": 67,
              "duration": 3.85,
              "velocity": 48
            },
            {
              "bar": 12.0,
              "beat": 1.0,
              "pitch": 71,
              "duration": 3.85,
              "velocity": 48
            },
            {
              "bar": 12.0,
              "beat": 1.0,
              "pitch": 74,
              "duration": 3.85,
              "velocity": 48
            },
            {
              "bar": 13.0,
              "beat": 1.0,
              "pitch": 69,
              "duration": 3.85,
              "velocity": 48
            },
            {
              "bar": 13.0,
              "beat": 1.0,
              "pitch": 72,
              "duration": 3.85,
              "velocity": 48
            },
            {
              "bar": 13.0,
              "beat": 1.0,
              "pitch": 76,
              "duration": 3.85,
              "velocity": 48
            },
            {
              "bar": 14.0,
              "beat": 1.0,
              "pitch": 65,
              "duration": 3.85,
              "velocity": 48
            },
            {
              "bar": 14.0,
              "beat": 1.0,
              "pitch": 69,
              "duration": 3.85,
              "velocity": 48
            },
            {
              "bar": 14.0,
              "beat": 1.0,
              "pitch": 72,
              "duration": 3.85,
              "velocity": 48
            },
            {
              "bar": 15.0,
              "beat": 1.0,
              "pitch": 60,
              "duration": 3.85,
              "velocity": 48
            },
            {
              "bar": 15.0,
              "beat": 1.0,
              "pitch": 64,
              "duration": 3.85,
              "velocity": 48
            },
            {
              "bar": 15.0,
              "beat": 1.0,
              "pitch": 67,
              "duration": 3.85,
              "velocity": 48
            },
            {
              "bar": 16.0,
              "beat": 1.0,
              "pitch": 67,
              "duration": 3.85,
              "velocity": 48
            },
            {
              "bar": 16.0,
              "beat": 1.0,
              "pitch": 71,
              "duration": 3.85,
              "velocity": 48
            },
            {
              "bar": 16.0,
              "beat": 1.0,
              "pitch": 74,
              "duration": 3.85,
              "velocity": 48
            }
          ]
        },
        {
          "id": "bridge-pad",
          "name": "Bridge Pad",
          "bar": 49.0,
          "beats": 32.0,
          "color": "#38a856",
          "loop_count": 1,
          "notes": [
            {
              "bar": 1.0,
              "beat": 1.0,
              "pitch": 69,
              "duration": 3.85,
              "velocity": 48
            },
            {
              "bar": 1.0,
              "beat": 1.0,
              "pitch": 72,
              "duration": 3.85,
              "velocity": 48
            },
            {
              "bar": 1.0,
              "beat": 1.0,
              "pitch": 76,
              "duration": 3.85,
              "velocity": 48
            },
            {
              "bar": 2.0,
              "beat": 1.0,
              "pitch": 65,
              "duration": 3.85,
              "velocity": 48
            },
            {
              "bar": 2.0,
              "beat": 1.0,
              "pitch": 69,
              "duration": 3.85,
              "velocity": 48
            },
            {
              "bar": 2.0,
              "beat": 1.0,
              "pitch": 72,
              "duration": 3.85,
              "velocity": 48
            },
            {
              "bar": 3.0,
              "beat": 1.0,
              "pitch": 60,
              "duration": 3.85,
              "velocity": 48
            },
            {
              "bar": 3.0,
              "beat": 1.0,
              "pitch": 64,
              "duration": 3.85,
              "velocity": 48
            },
            {
              "bar": 3.0,
              "beat": 1.0,
              "pitch": 67,
              "duration": 3.85,
              "velocity": 48
            },
            {
              "bar": 4.0,
              "beat": 1.0,
              "pitch": 67,
              "duration": 3.85,
              "velocity": 48
            },
            {
              "bar": 4.0,
              "beat": 1.0,
              "pitch": 71,
              "duration": 3.85,
              "velocity": 48
            },
            {
              "bar": 4.0,
              "beat": 1.0,
              "pitch": 74,
              "duration": 3.85,
              "velocity": 48
            },
            {
              "bar": 5.0,
              "beat": 1.0,
              "pitch": 69,
              "duration": 3.85,
              "velocity": 48
            },
            {
              "bar": 5.0,
              "beat": 1.0,
              "pitch": 72,
              "duration": 3.85,
              "velocity": 48
            },
            {
              "bar": 5.0,
              "beat": 1.0,
              "pitch": 76,
              "duration": 3.85,
              "velocity": 48
            },
            {
              "bar": 6.0,
              "beat": 1.0,
              "pitch": 65,
              "duration": 3.85,
              "velocity": 48
            },
            {
              "bar": 6.0,
              "beat": 1.0,
              "pitch": 69,
              "duration": 3.85,
              "velocity": 48
            },
            {
              "bar": 6.0,
              "beat": 1.0,
              "pitch": 72,
              "duration": 3.85,
              "velocity": 48
            },
            {
              "bar": 7.0,
              "beat": 1.0,
              "pitch": 60,
              "duration": 3.85,
              "velocity": 48
            },
            {
              "bar": 7.0,
              "beat": 1.0,
              "pitch": 64,
              "duration": 3.85,
              "velocity": 48
            },
            {
              "bar": 7.0,
              "beat": 1.0,
              "pitch": 67,
              "duration": 3.85,
              "velocity": 48
            },
            {
              "bar": 8.0,
              "beat": 1.0,
              "pitch": 67,
              "duration": 3.85,
              "velocity": 48
            },
            {
              "bar": 8.0,
              "beat": 1.0,
              "pitch": 71,
              "duration": 3.85,
              "velocity": 48
            },
            {
              "bar": 8.0,
              "beat": 1.0,
              "pitch": 74,
              "duration": 3.85,
              "velocity": 48
            }
          ]
        },
        {
          "id": "final-chorus-pad",
          "name": "Final Chorus Pad",
          "bar": 57.0,
          "beats": 64.0,
          "color": "#38a856",
          "loop_count": 1,
          "notes": [
            {
              "bar": 1.0,
              "beat": 1.0,
              "pitch": 69,
              "duration": 3.85,
              "velocity": 48
            },
            {
              "bar": 1.0,
              "beat": 1.0,
              "pitch": 72,
              "duration": 3.85,
              "velocity": 48
            },
            {
              "bar": 1.0,
              "beat": 1.0,
              "pitch": 76,
              "duration": 3.85,
              "velocity": 48
            },
            {
              "bar": 2.0,
              "beat": 1.0,
              "pitch": 65,
              "duration": 3.85,
              "velocity": 48
            },
            {
              "bar": 2.0,
              "beat": 1.0,
              "pitch": 69,
              "duration": 3.85,
              "velocity": 48
            },
            {
              "bar": 2.0,
              "beat": 1.0,
              "pitch": 72,
              "duration": 3.85,
              "velocity": 48
            },
            {
              "bar": 3.0,
              "beat": 1.0,
              "pitch": 60,
              "duration": 3.85,
              "velocity": 48
            },
            {
              "bar": 3.0,
              "beat": 1.0,
              "pitch": 64,
              "duration": 3.85,
              "velocity": 48
            },
            {
              "bar": 3.0,
              "beat": 1.0,
              "pitch": 67,
              "duration": 3.85,
              "velocity": 48
            },
            {
              "bar": 4.0,
              "beat": 1.0,
              "pitch": 67,
              "duration": 3.85,
              "velocity": 48
            },
            {
              "bar": 4.0,
              "beat": 1.0,
              "pitch": 71,
              "duration": 3.85,
              "velocity": 48
            },
            {
              "bar": 4.0,
              "beat": 1.0,
              "pitch": 74,
              "duration": 3.85,
              "velocity": 48
            },
            {
              "bar": 5.0,
              "beat": 1.0,
              "pitch": 69,
              "duration": 3.85,
              "velocity": 48
            },
            {
              "bar": 5.0,
              "beat": 1.0,
              "pitch": 72,
              "duration": 3.85,
              "velocity": 48
            },
            {
              "bar": 5.0,
              "beat": 1.0,
              "pitch": 76,
              "duration": 3.85,
              "velocity": 48
            },
            {
              "bar": 6.0,
              "beat": 1.0,
              "pitch": 65,
              "duration": 3.85,
              "velocity": 48
            },
            {
              "bar": 6.0,
              "beat": 1.0,
              "pitch": 69,
              "duration": 3.85,
              "velocity": 48
            },
            {
              "bar": 6.0,
              "beat": 1.0,
              "pitch": 72,
              "duration": 3.85,
              "velocity": 48
            },
            {
              "bar": 7.0,
              "beat": 1.0,
              "pitch": 60,
              "duration": 3.85,
              "velocity": 48
            },
            {
              "bar": 7.0,
              "beat": 1.0,
              "pitch": 64,
              "duration": 3.85,
              "velocity": 48
            },
            {
              "bar": 7.0,
              "beat": 1.0,
              "pitch": 67,
              "duration": 3.85,
              "velocity": 48
            },
            {
              "bar": 8.0,
              "beat": 1.0,
              "pitch": 67,
              "duration": 3.85,
              "velocity": 48
            },
            {
              "bar": 8.0,
              "beat": 1.0,
              "pitch": 71,
              "duration": 3.85,
              "velocity": 48
            },
            {
              "bar": 8.0,
              "beat": 1.0,
              "pitch": 74,
              "duration": 3.85,
              "velocity": 48
            },
            {
              "bar": 9.0,
              "beat": 1.0,
              "pitch": 69,
              "duration": 3.85,
              "velocity": 48
            },
            {
              "bar": 9.0,
              "beat": 1.0,
              "pitch": 72,
              "duration": 3.85,
              "velocity": 48
            },
            {
              "bar": 9.0,
              "beat": 1.0,
              "pitch": 76,
              "duration": 3.85,
              "velocity": 48
            },
            {
              "bar": 10.0,
              "beat": 1.0,
              "pitch": 65,
              "duration": 3.85,
              "velocity": 48
            },
            {
              "bar": 10.0,
              "beat": 1.0,
              "pitch": 69,
              "duration": 3.85,
              "velocity": 48
            },
            {
              "bar": 10.0,
              "beat": 1.0,
              "pitch": 72,
              "duration": 3.85,
              "velocity": 48
            },
            {
              "bar": 11.0,
              "beat": 1.0,
              "pitch": 60,
              "duration": 3.85,
              "velocity": 48
            },
            {
              "bar": 11.0,
              "beat": 1.0,
              "pitch": 64,
              "duration": 3.85,
              "velocity": 48
            },
            {
              "bar": 11.0,
              "beat": 1.0,
              "pitch": 67,
              "duration": 3.85,
              "velocity": 48
            },
            {
              "bar": 12.0,
              "beat": 1.0,
              "pitch": 67,
              "duration": 3.85,
              "velocity": 48
            },
            {
              "bar": 12.0,
              "beat": 1.0,
              "pitch": 71,
              "duration": 3.85,
              "velocity": 48
            },
            {
              "bar": 12.0,
              "beat": 1.0,
              "pitch": 74,
              "duration": 3.85,
              "velocity": 48
            },
            {
              "bar": 13.0,
              "beat": 1.0,
              "pitch": 69,
              "duration": 3.85,
              "velocity": 48
            },
            {
              "bar": 13.0,
              "beat": 1.0,
              "pitch": 72,
              "duration": 3.85,
              "velocity": 48
            },
            {
              "bar": 13.0,
              "beat": 1.0,
              "pitch": 76,
              "duration": 3.85,
              "velocity": 48
            },
            {
              "bar": 14.0,
              "beat": 1.0,
              "pitch": 65,
              "duration": 3.85,
              "velocity": 48
            },
            {
              "bar": 14.0,
              "beat": 1.0,
              "pitch": 69,
              "duration": 3.85,
              "velocity": 48
            },
            {
              "bar": 14.0,
              "beat": 1.0,
              "pitch": 72,
              "duration": 3.85,
              "velocity": 48
            },
            {
              "bar": 15.0,
              "beat": 1.0,
              "pitch": 60,
              "duration": 3.85,
              "velocity": 48
            },
            {
              "bar": 15.0,
              "beat": 1.0,
              "pitch": 64,
              "duration": 3.85,
              "velocity": 48
            },
            {
              "bar": 15.0,
              "beat": 1.0,
              "pitch": 67,
              "duration": 3.85,
              "velocity": 48
            },
            {
              "bar": 16.0,
              "beat": 1.0,
              "pitch": 67,
              "duration": 3.85,
              "velocity": 48
            },
            {
              "bar": 16.0,
              "beat": 1.0,
              "pitch": 71,
              "duration": 3.85,
              "velocity": 48
            },
            {
              "bar": 16.0,
              "beat": 1.0,
              "pitch": 74,
              "duration": 3.85,
              "velocity": 48
            }
          ]
        }
      ],
      "audio_clips": [],
      "program": 89,
      "preset": "pad"
    },
    {
      "name": "Lead Melody",
      "kind": "instrument",
      "channel": 3,
      "volume": 88,
      "pan": 64,
      "muted": false,
      "solo": false,
      "record_armed": false,
      "effects": [
        {
          "type": "delay",
          "enabled": true,
          "params": {
            "time": 0.24,
            "feedback": 0.18,
            "mix": 0.16
          }
        }
      ],
      "notes": [],
      "clips": [
        {
          "id": "verse-a-lead",
          "name": "Verse A Lead",
          "bar": 9.0,
          "beats": 64.0,
          "color": "#1fc04b",
          "loop_count": 1,
          "notes": [
            {
              "bar": 1.0,
              "beat": 1.0,
              "pitch": 69,
              "duration": 0.42,
              "velocity": 82
            },
            {
              "bar": 1.0,
              "beat": 1.5,
              "pitch": 72,
              "duration": 0.42,
              "velocity": 82
            },
            {
              "bar": 1.0,
              "beat": 2.0,
              "pitch": 74,
              "duration": 0.42,
              "velocity": 82
            },
            {
              "bar": 1.0,
              "beat": 2.5,
              "pitch": 72,
              "duration": 0.75,
              "velocity": 82
            },
            {
              "bar": 1.0,
              "beat": 3.0,
              "pitch": 69,
              "duration": 0.42,
              "velocity": 82
            },
            {
              "bar": 1.0,
              "beat": 3.5,
              "pitch": 67,
              "duration": 0.42,
              "velocity": 82
            },
            {
              "bar": 1.0,
              "beat": 4.0,
              "pitch": 69,
              "duration": 0.42,
              "velocity": 82
            },
            {
              "bar": 1.0,
              "beat": 4.5,
              "pitch": 72,
              "duration": 0.75,
              "velocity": 82
            },
            {
              "bar": 2.0,
              "beat": 1.0,
              "pitch": 69,
              "duration": 0.42,
              "velocity": 82
            },
            {
              "bar": 2.0,
              "beat": 1.5,
              "pitch": 72,
              "duration": 0.42,
              "velocity": 82
            },
            {
              "bar": 2.0,
              "beat": 2.0,
              "pitch": 74,
              "duration": 0.42,
              "velocity": 82
            },
            {
              "bar": 2.0,
              "beat": 2.5,
              "pitch": 72,
              "duration": 0.75,
              "velocity": 82
            },
            {
              "bar": 2.0,
              "beat": 3.0,
              "pitch": 69,
              "duration": 0.42,
              "velocity": 82
            },
            {
              "bar": 2.0,
              "beat": 3.5,
              "pitch": 67,
              "duration": 0.42,
              "velocity": 82
            },
            {
              "bar": 2.0,
              "beat": 4.0,
              "pitch": 69,
              "duration": 0.42,
              "velocity": 82
            },
            {
              "bar": 2.0,
              "beat": 4.5,
              "pitch": 72,
              "duration": 0.75,
              "velocity": 82
            },
            {
              "bar": 3.0,
              "beat": 1.0,
              "pitch": 69,
              "duration": 0.42,
              "velocity": 82
            },
            {
              "bar": 3.0,
              "beat": 1.5,
              "pitch": 72,
              "duration": 0.42,
              "velocity": 82
            },
            {
              "bar": 3.0,
              "beat": 2.0,
              "pitch": 74,
              "duration": 0.42,
              "velocity": 82
            },
            {
              "bar": 3.0,
              "beat": 2.5,
              "pitch": 72,
              "duration": 0.75,
              "velocity": 82
            },
            {
              "bar": 3.0,
              "beat": 3.0,
              "pitch": 69,
              "duration": 0.42,
              "velocity": 82
            },
            {
              "bar": 3.0,
              "beat": 3.5,
              "pitch": 67,
              "duration": 0.42,
              "velocity": 82
            },
            {
              "bar": 3.0,
              "beat": 4.0,
              "pitch": 69,
              "duration": 0.42,
              "velocity": 82
            },
            {
              "bar": 3.0,
              "beat": 4.5,
              "pitch": 72,
              "duration": 0.75,
              "velocity": 82
            },
            {
              "bar": 4.0,
              "beat": 1.0,
              "pitch": 69,
              "duration": 0.42,
              "velocity": 82
            },
            {
              "bar": 4.0,
              "beat": 1.5,
              "pitch": 72,
              "duration": 0.42,
              "velocity": 82
            },
            {
              "bar": 4.0,
              "beat": 2.0,
              "pitch": 74,
              "duration": 0.42,
              "velocity": 82
            },
            {
              "bar": 4.0,
              "beat": 2.5,
              "pitch": 72,
              "duration": 0.75,
              "velocity": 82
            },
            {
              "bar": 4.0,
              "beat": 3.0,
              "pitch": 69,
              "duration": 0.42,
              "velocity": 82
            },
            {
              "bar": 4.0,
              "beat": 3.5,
              "pitch": 67,
              "duration": 0.42,
              "velocity": 82
            },
            {
              "bar": 4.0,
              "beat": 4.0,
              "pitch": 69,
              "duration": 0.42,
              "velocity": 82
            },
            {
              "bar": 4.0,
              "beat": 4.5,
              "pitch": 72,
              "duration": 0.75,
              "velocity": 82
            },
            {
              "bar": 5.0,
              "beat": 1.0,
              "pitch": 69,
              "duration": 0.42,
              "velocity": 82
            },
            {
              "bar": 5.0,
              "beat": 1.5,
              "pitch": 72,
              "duration": 0.42,
              "velocity": 82
            },
            {
              "bar": 5.0,
              "beat": 2.0,
              "pitch": 74,
              "duration": 0.42,
              "velocity": 82
            },
            {
              "bar": 5.0,
              "beat": 2.5,
              "pitch": 72,
              "duration": 0.75,
              "velocity": 82
            },
            {
              "bar": 5.0,
              "beat": 3.0,
              "pitch": 69,
              "duration": 0.42,
              "velocity": 82
            },
            {
              "bar": 5.0,
              "beat": 3.5,
              "pitch": 67,
              "duration": 0.42,
              "velocity": 82
            },
            {
              "bar": 5.0,
              "beat": 4.0,
              "pitch": 69,
              "duration": 0.42,
              "velocity": 82
            },
            {
              "bar": 5.0,
              "beat": 4.5,
              "pitch": 72,
              "duration": 0.75,
              "velocity": 82
            },
            {
              "bar": 6.0,
              "beat": 1.0,
              "pitch": 69,
              "duration": 0.42,
              "velocity": 82
            },
            {
              "bar": 6.0,
              "beat": 1.5,
              "pitch": 72,
              "duration": 0.42,
              "velocity": 82
            },
            {
              "bar": 6.0,
              "beat": 2.0,
              "pitch": 74,
              "duration": 0.42,
              "velocity": 82
            },
            {
              "bar": 6.0,
              "beat": 2.5,
              "pitch": 72,
              "duration": 0.75,
              "velocity": 82
            },
            {
              "bar": 6.0,
              "beat": 3.0,
              "pitch": 69,
              "duration": 0.42,
              "velocity": 82
            },
            {
              "bar": 6.0,
              "beat": 3.5,
              "pitch": 67,
              "duration": 0.42,
              "velocity": 82
            },
            {
              "bar": 6.0,
              "beat": 4.0,
              "pitch": 69,
              "duration": 0.42,
              "velocity": 82
            },
            {
              "bar": 6.0,
              "beat": 4.5,
              "pitch": 72,
              "duration": 0.75,
              "velocity": 82
            },
            {
              "bar": 7.0,
              "beat": 1.0,
              "pitch": 69,
              "duration": 0.42,
              "velocity": 82
            },
            {
              "bar": 7.0,
              "beat": 1.5,
              "pitch": 72,
              "duration": 0.42,
              "velocity": 82
            },
            {
              "bar": 7.0,
              "beat": 2.0,
              "pitch": 74,
              "duration": 0.42,
              "velocity": 82
            },
            {
              "bar": 7.0,
              "beat": 2.5,
              "pitch": 72,
              "duration": 0.75,
              "velocity": 82
            },
            {
              "bar": 7.0,
              "beat": 3.0,
              "pitch": 69,
              "duration": 0.42,
              "velocity": 82
            },
            {
              "bar": 7.0,
              "beat": 3.5,
              "pitch": 67,
              "duration": 0.42,
              "velocity": 82
            },
            {
              "bar": 7.0,
              "beat": 4.0,
              "pitch": 69,
              "duration": 0.42,
              "velocity": 82
            },
            {
              "bar": 7.0,
              "beat": 4.5,
              "pitch": 72,
              "duration": 0.75,
              "velocity": 82
            },
            {
              "bar": 8.0,
              "beat": 1.0,
              "pitch": 69,
              "duration": 0.42,
              "velocity": 82
            },
            {
              "bar": 8.0,
              "beat": 1.5,
              "pitch": 72,
              "duration": 0.42,
              "velocity": 82
            },
            {
              "bar": 8.0,
              "beat": 2.0,
              "pitch": 74,
              "duration": 0.42,
              "velocity": 82
            },
            {
              "bar": 8.0,
              "beat": 2.5,
              "pitch": 72,
              "duration": 0.75,
              "velocity": 82
            },
            {
              "bar": 8.0,
              "beat": 3.0,
              "pitch": 69,
              "duration": 0.42,
              "velocity": 82
            },
            {
              "bar": 8.0,
              "beat": 3.5,
              "pitch": 67,
              "duration": 0.42,
              "velocity": 82
            },
            {
              "bar": 8.0,
              "beat": 4.0,
              "pitch": 69,
              "duration": 0.42,
              "velocity": 82
            },
            {
              "bar": 8.0,
              "beat": 4.5,
              "pitch": 72,
              "duration": 0.75,
              "velocity": 82
            },
            {
              "bar": 9.0,
              "beat": 1.0,
              "pitch": 69,
              "duration": 0.42,
              "velocity": 82
            },
            {
              "bar": 9.0,
              "beat": 1.5,
              "pitch": 72,
              "duration": 0.42,
              "velocity": 82
            },
            {
              "bar": 9.0,
              "beat": 2.0,
              "pitch": 74,
              "duration": 0.42,
              "velocity": 82
            },
            {
              "bar": 9.0,
              "beat": 2.5,
              "pitch": 72,
              "duration": 0.75,
              "velocity": 82
            },
            {
              "bar": 9.0,
              "beat": 3.0,
              "pitch": 69,
              "duration": 0.42,
              "velocity": 82
            },
            {
              "bar": 9.0,
              "beat": 3.5,
              "pitch": 67,
              "duration": 0.42,
              "velocity": 82
            },
            {
              "bar": 9.0,
              "beat": 4.0,
              "pitch": 69,
              "duration": 0.42,
              "velocity": 82
            },
            {
              "bar": 9.0,
              "beat": 4.5,
              "pitch": 72,
              "duration": 0.75,
              "velocity": 82
            },
            {
              "bar": 10.0,
              "beat": 1.0,
              "pitch": 69,
              "duration": 0.42,
              "velocity": 82
            },
            {
              "bar": 10.0,
              "beat": 1.5,
              "pitch": 72,
              "duration": 0.42,
              "velocity": 82
            },
            {
              "bar": 10.0,
              "beat": 2.0,
              "pitch": 74,
              "duration": 0.42,
              "velocity": 82
            },
            {
              "bar": 10.0,
              "beat": 2.5,
              "pitch": 72,
              "duration": 0.75,
              "velocity": 82
            },
            {
              "bar": 10.0,
              "beat": 3.0,
              "pitch": 69,
              "duration": 0.42,
              "velocity": 82
            },
            {
              "bar": 10.0,
              "beat": 3.5,
              "pitch": 67,
              "duration": 0.42,
              "velocity": 82
            },
            {
              "bar": 10.0,
              "beat": 4.0,
              "pitch": 69,
              "duration": 0.42,
              "velocity": 82
            },
            {
              "bar": 10.0,
              "beat": 4.5,
              "pitch": 72,
              "duration": 0.75,
              "velocity": 82
            },
            {
              "bar": 11.0,
              "beat": 1.0,
              "pitch": 69,
              "duration": 0.42,
              "velocity": 82
            },
            {
              "bar": 11.0,
              "beat": 1.5,
              "pitch": 72,
              "duration": 0.42,
              "velocity": 82
            },
            {
              "bar": 11.0,
              "beat": 2.0,
              "pitch": 74,
              "duration": 0.42,
              "velocity": 82
            },
            {
              "bar": 11.0,
              "beat": 2.5,
              "pitch": 72,
              "duration": 0.75,
              "velocity": 82
            },
            {
              "bar": 11.0,
              "beat": 3.0,
              "pitch": 69,
              "duration": 0.42,
              "velocity": 82
            },
            {
              "bar": 11.0,
              "beat": 3.5,
              "pitch": 67,
              "duration": 0.42,
              "velocity": 82
            },
            {
              "bar": 11.0,
              "beat": 4.0,
              "pitch": 69,
              "duration": 0.42,
              "velocity": 82
            },
            {
              "bar": 11.0,
              "beat": 4.5,
              "pitch": 72,
              "duration": 0.75,
              "velocity": 82
            },
            {
              "bar": 12.0,
              "beat": 1.0,
              "pitch": 69,
              "duration": 0.42,
              "velocity": 82
            },
            {
              "bar": 12.0,
              "beat": 1.5,
              "pitch": 72,
              "duration": 0.42,
              "velocity": 82
            },
            {
              "bar": 12.0,
              "beat": 2.0,
              "pitch": 74,
              "duration": 0.42,
              "velocity": 82
            },
            {
              "bar": 12.0,
              "beat": 2.5,
              "pitch": 72,
              "duration": 0.75,
              "velocity": 82
            },
            {
              "bar": 12.0,
              "beat": 3.0,
              "pitch": 69,
              "duration": 0.42,
              "velocity": 82
            },
            {
              "bar": 12.0,
              "beat": 3.5,
              "pitch": 67,
              "duration": 0.42,
              "velocity": 82
            },
            {
              "bar": 12.0,
              "beat": 4.0,
              "pitch": 69,
              "duration": 0.42,
              "velocity": 82
            },
            {
              "bar": 12.0,
              "beat": 4.5,
              "pitch": 72,
              "duration": 0.75,
              "velocity": 82
            },
            {
              "bar": 13.0,
              "beat": 1.0,
              "pitch": 69,
              "duration": 0.42,
              "velocity": 82
            },
            {
              "bar": 13.0,
              "beat": 1.5,
              "pitch": 72,
              "duration": 0.42,
              "velocity": 82
            },
            {
              "bar": 13.0,
              "beat": 2.0,
              "pitch": 74,
              "duration": 0.42,
              "velocity": 82
            },
            {
              "bar": 13.0,
              "beat": 2.5,
              "pitch": 72,
              "duration": 0.75,
              "velocity": 82
            },
            {
              "bar": 13.0,
              "beat": 3.0,
              "pitch": 69,
              "duration": 0.42,
              "velocity": 82
            },
            {
              "bar": 13.0,
              "beat": 3.5,
              "pitch": 67,
              "duration": 0.42,
              "velocity": 82
            },
            {
              "bar": 13.0,
              "beat": 4.0,
              "pitch": 69,
              "duration": 0.42,
              "velocity": 82
            },
            {
              "bar": 13.0,
              "beat": 4.5,
              "pitch": 72,
              "duration": 0.75,
              "velocity": 82
            },
            {
              "bar": 14.0,
              "beat": 1.0,
              "pitch": 69,
              "duration": 0.42,
              "velocity": 82
            },
            {
              "bar": 14.0,
              "beat": 1.5,
              "pitch": 72,
              "duration": 0.42,
              "velocity": 82
            },
            {
              "bar": 14.0,
              "beat": 2.0,
              "pitch": 74,
              "duration": 0.42,
              "velocity": 82
            },
            {
              "bar": 14.0,
              "beat": 2.5,
              "pitch": 72,
              "duration": 0.75,
              "velocity": 82
            },
            {
              "bar": 14.0,
              "beat": 3.0,
              "pitch": 69,
              "duration": 0.42,
              "velocity": 82
            },
            {
              "bar": 14.0,
              "beat": 3.5,
              "pitch": 67,
              "duration": 0.42,
              "velocity": 82
            },
            {
              "bar": 14.0,
              "beat": 4.0,
              "pitch": 69,
              "duration": 0.42,
              "velocity": 82
            },
            {
              "bar": 14.0,
              "beat": 4.5,
              "pitch": 72,
              "duration": 0.75,
              "velocity": 82
            },
            {
              "bar": 15.0,
              "beat": 1.0,
              "pitch": 69,
              "duration": 0.42,
              "velocity": 82
            },
            {
              "bar": 15.0,
              "beat": 1.5,
              "pitch": 72,
              "duration": 0.42,
              "velocity": 82
            },
            {
              "bar": 15.0,
              "beat": 2.0,
              "pitch": 74,
              "duration": 0.42,
              "velocity": 82
            },
            {
              "bar": 15.0,
              "beat": 2.5,
              "pitch": 72,
              "duration": 0.75,
              "velocity": 82
            },
            {
              "bar": 15.0,
              "beat": 3.0,
              "pitch": 69,
              "duration": 0.42,
              "velocity": 82
            },
            {
              "bar": 15.0,
              "beat": 3.5,
              "pitch": 67,
              "duration": 0.42,
              "velocity": 82
            },
            {
              "bar": 15.0,
              "beat": 4.0,
              "pitch": 69,
              "duration": 0.42,
              "velocity": 82
            },
            {
              "bar": 15.0,
              "beat": 4.5,
              "pitch": 72,
              "duration": 0.75,
              "velocity": 82
            },
            {
              "bar": 16.0,
              "beat": 1.0,
              "pitch": 69,
              "duration": 0.42,
              "velocity": 82
            },
            {
              "bar": 16.0,
              "beat": 1.5,
              "pitch": 72,
              "duration": 0.42,
              "velocity": 82
            },
            {
              "bar": 16.0,
              "beat": 2.0,
              "pitch": 74,
              "duration": 0.42,
              "velocity": 82
            },
            {
              "bar": 16.0,
              "beat": 2.5,
              "pitch": 72,
              "duration": 0.75,
              "velocity": 82
            },
            {
              "bar": 16.0,
              "beat": 3.0,
              "pitch": 69,
              "duration": 0.42,
              "velocity": 82
            },
            {
              "bar": 16.0,
              "beat": 3.5,
              "pitch": 67,
              "duration": 0.42,
              "velocity": 82
            },
            {
              "bar": 16.0,
              "beat": 4.0,
              "pitch": 69,
              "duration": 0.42,
              "velocity": 82
            },
            {
              "bar": 16.0,
              "beat": 4.5,
              "pitch": 72,
              "duration": 0.75,
              "velocity": 82
            }
          ]
        },
        {
          "id": "pre-chorus-lead",
          "name": "Pre-Chorus Lead",
          "bar": 25.0,
          "beats": 32.0,
          "color": "#1fc04b",
          "loop_count": 1,
          "notes": [
            {
              "bar": 1.0,
              "beat": 1.0,
              "pitch": 72,
              "duration": 0.42,
              "velocity": 82
            },
            {
              "bar": 1.0,
              "beat": 1.5,
              "pitch": 74,
              "duration": 0.42,
              "velocity": 82
            },
            {
              "bar": 1.0,
              "beat": 2.0,
              "pitch": 76,
              "duration": 0.42,
              "velocity": 82
            },
            {
              "bar": 1.0,
              "beat": 2.5,
              "pitch": 79,
              "duration": 0.75,
              "velocity": 82
            },
            {
              "bar": 1.0,
              "beat": 3.0,
              "pitch": 76,
              "duration": 0.42,
              "velocity": 82
            },
            {
              "bar": 1.0,
              "beat": 3.5,
              "pitch": 74,
              "duration": 0.42,
              "velocity": 82
            },
            {
              "bar": 1.0,
              "beat": 4.0,
              "pitch": 72,
              "duration": 0.42,
              "velocity": 82
            },
            {
              "bar": 1.0,
              "beat": 4.5,
              "pitch": 74,
              "duration": 0.75,
              "velocity": 82
            },
            {
              "bar": 2.0,
              "beat": 1.0,
              "pitch": 72,
              "duration": 0.42,
              "velocity": 82
            },
            {
              "bar": 2.0,
              "beat": 1.5,
              "pitch": 74,
              "duration": 0.42,
              "velocity": 82
            },
            {
              "bar": 2.0,
              "beat": 2.0,
              "pitch": 76,
              "duration": 0.42,
              "velocity": 82
            },
            {
              "bar": 2.0,
              "beat": 2.5,
              "pitch": 79,
              "duration": 0.75,
              "velocity": 82
            },
            {
              "bar": 2.0,
              "beat": 3.0,
              "pitch": 76,
              "duration": 0.42,
              "velocity": 82
            },
            {
              "bar": 2.0,
              "beat": 3.5,
              "pitch": 74,
              "duration": 0.42,
              "velocity": 82
            },
            {
              "bar": 2.0,
              "beat": 4.0,
              "pitch": 72,
              "duration": 0.42,
              "velocity": 82
            },
            {
              "bar": 2.0,
              "beat": 4.5,
              "pitch": 74,
              "duration": 0.75,
              "velocity": 82
            },
            {
              "bar": 3.0,
              "beat": 1.0,
              "pitch": 72,
              "duration": 0.42,
              "velocity": 82
            },
            {
              "bar": 3.0,
              "beat": 1.5,
              "pitch": 74,
              "duration": 0.42,
              "velocity": 82
            },
            {
              "bar": 3.0,
              "beat": 2.0,
              "pitch": 76,
              "duration": 0.42,
              "velocity": 82
            },
            {
              "bar": 3.0,
              "beat": 2.5,
              "pitch": 79,
              "duration": 0.75,
              "velocity": 82
            },
            {
              "bar": 3.0,
              "beat": 3.0,
              "pitch": 76,
              "duration": 0.42,
              "velocity": 82
            },
            {
              "bar": 3.0,
              "beat": 3.5,
              "pitch": 74,
              "duration": 0.42,
              "velocity": 82
            },
            {
              "bar": 3.0,
              "beat": 4.0,
              "pitch": 72,
              "duration": 0.42,
              "velocity": 82
            },
            {
              "bar": 3.0,
              "beat": 4.5,
              "pitch": 74,
              "duration": 0.75,
              "velocity": 82
            },
            {
              "bar": 4.0,
              "beat": 1.0,
              "pitch": 72,
              "duration": 0.42,
              "velocity": 82
            },
            {
              "bar": 4.0,
              "beat": 1.5,
              "pitch": 74,
              "duration": 0.42,
              "velocity": 82
            },
            {
              "bar": 4.0,
              "beat": 2.0,
              "pitch": 76,
              "duration": 0.42,
              "velocity": 82
            },
            {
              "bar": 4.0,
              "beat": 2.5,
              "pitch": 79,
              "duration": 0.75,
              "velocity": 82
            },
            {
              "bar": 4.0,
              "beat": 3.0,
              "pitch": 76,
              "duration": 0.42,
              "velocity": 82
            },
            {
              "bar": 4.0,
              "beat": 3.5,
              "pitch": 74,
              "duration": 0.42,
              "velocity": 82
            },
            {
              "bar": 4.0,
              "beat": 4.0,
              "pitch": 72,
              "duration": 0.42,
              "velocity": 82
            },
            {
              "bar": 4.0,
              "beat": 4.5,
              "pitch": 74,
              "duration": 0.75,
              "velocity": 82
            },
            {
              "bar": 5.0,
              "beat": 1.0,
              "pitch": 72,
              "duration": 0.42,
              "velocity": 82
            },
            {
              "bar": 5.0,
              "beat": 1.5,
              "pitch": 74,
              "duration": 0.42,
              "velocity": 82
            },
            {
              "bar": 5.0,
              "beat": 2.0,
              "pitch": 76,
              "duration": 0.42,
              "velocity": 82
            },
            {
              "bar": 5.0,
              "beat": 2.5,
              "pitch": 79,
              "duration": 0.75,
              "velocity": 82
            },
            {
              "bar": 5.0,
              "beat": 3.0,
              "pitch": 76,
              "duration": 0.42,
              "velocity": 82
            },
            {
              "bar": 5.0,
              "beat": 3.5,
              "pitch": 74,
              "duration": 0.42,
              "velocity": 82
            },
            {
              "bar": 5.0,
              "beat": 4.0,
              "pitch": 72,
              "duration": 0.42,
              "velocity": 82
            },
            {
              "bar": 5.0,
              "beat": 4.5,
              "pitch": 74,
              "duration": 0.75,
              "velocity": 82
            },
            {
              "bar": 6.0,
              "beat": 1.0,
              "pitch": 72,
              "duration": 0.42,
              "velocity": 82
            },
            {
              "bar": 6.0,
              "beat": 1.5,
              "pitch": 74,
              "duration": 0.42,
              "velocity": 82
            },
            {
              "bar": 6.0,
              "beat": 2.0,
              "pitch": 76,
              "duration": 0.42,
              "velocity": 82
            },
            {
              "bar": 6.0,
              "beat": 2.5,
              "pitch": 79,
              "duration": 0.75,
              "velocity": 82
            },
            {
              "bar": 6.0,
              "beat": 3.0,
              "pitch": 76,
              "duration": 0.42,
              "velocity": 82
            },
            {
              "bar": 6.0,
              "beat": 3.5,
              "pitch": 74,
              "duration": 0.42,
              "velocity": 82
            },
            {
              "bar": 6.0,
              "beat": 4.0,
              "pitch": 72,
              "duration": 0.42,
              "velocity": 82
            },
            {
              "bar": 6.0,
              "beat": 4.5,
              "pitch": 74,
              "duration": 0.75,
              "velocity": 82
            },
            {
              "bar": 7.0,
              "beat": 1.0,
              "pitch": 72,
              "duration": 0.42,
              "velocity": 82
            },
            {
              "bar": 7.0,
              "beat": 1.5,
              "pitch": 74,
              "duration": 0.42,
              "velocity": 82
            },
            {
              "bar": 7.0,
              "beat": 2.0,
              "pitch": 76,
              "duration": 0.42,
              "velocity": 82
            },
            {
              "bar": 7.0,
              "beat": 2.5,
              "pitch": 79,
              "duration": 0.75,
              "velocity": 82
            },
            {
              "bar": 7.0,
              "beat": 3.0,
              "pitch": 76,
              "duration": 0.42,
              "velocity": 82
            },
            {
              "bar": 7.0,
              "beat": 3.5,
              "pitch": 74,
              "duration": 0.42,
              "velocity": 82
            },
            {
              "bar": 7.0,
              "beat": 4.0,
              "pitch": 72,
              "duration": 0.42,
              "velocity": 82
            },
            {
              "bar": 7.0,
              "beat": 4.5,
              "pitch": 74,
              "duration": 0.75,
              "velocity": 82
            },
            {
              "bar": 8.0,
              "beat": 1.0,
              "pitch": 72,
              "duration": 0.42,
              "velocity": 82
            },
            {
              "bar": 8.0,
              "beat": 1.5,
              "pitch": 74,
              "duration": 0.42,
              "velocity": 82
            },
            {
              "bar": 8.0,
              "beat": 2.0,
              "pitch": 76,
              "duration": 0.42,
              "velocity": 82
            },
            {
              "bar": 8.0,
              "beat": 2.5,
              "pitch": 79,
              "duration": 0.75,
              "velocity": 82
            },
            {
              "bar": 8.0,
              "beat": 3.0,
              "pitch": 76,
              "duration": 0.42,
              "velocity": 82
            },
            {
              "bar": 8.0,
              "beat": 3.5,
              "pitch": 74,
              "duration": 0.42,
              "velocity": 82
            },
            {
              "bar": 8.0,
              "beat": 4.0,
              "pitch": 72,
              "duration": 0.42,
              "velocity": 82
            },
            {
              "bar": 8.0,
              "beat": 4.5,
              "pitch": 74,
              "duration": 0.75,
              "velocity": 82
            }
          ]
        },
        {
          "id": "chorus-lead",
          "name": "Chorus Lead",
          "bar": 33.0,
          "beats": 64.0,
          "color": "#1fc04b",
          "loop_count": 1,
          "notes": [
            {
              "bar": 1.0,
              "beat": 1.0,
              "pitch": 76,
              "duration": 0.42,
              "velocity": 82
            },
            {
              "bar": 1.0,
              "beat": 1.5,
              "pitch": 79,
              "duration": 0.42,
              "velocity": 82
            },
            {
              "bar": 1.0,
              "beat": 2.0,
              "pitch": 81,
              "duration": 0.42,
              "velocity": 82
            },
            {
              "bar": 1.0,
              "beat": 2.5,
              "pitch": 79,
              "duration": 0.75,
              "velocity": 82
            },
            {
              "bar": 1.0,
              "beat": 3.0,
              "pitch": 76,
              "duration": 0.42,
              "velocity": 82
            },
            {
              "bar": 1.0,
              "beat": 3.5,
              "pitch": 74,
              "duration": 0.42,
              "velocity": 82
            },
            {
              "bar": 1.0,
              "beat": 4.0,
              "pitch": 76,
              "duration": 0.42,
              "velocity": 82
            },
            {
              "bar": 1.0,
              "beat": 4.5,
              "pitch": 79,
              "duration": 0.75,
              "velocity": 82
            },
            {
              "bar": 2.0,
              "beat": 1.0,
              "pitch": 76,
              "duration": 0.42,
              "velocity": 82
            },
            {
              "bar": 2.0,
              "beat": 1.5,
              "pitch": 79,
              "duration": 0.42,
              "velocity": 82
            },
            {
              "bar": 2.0,
              "beat": 2.0,
              "pitch": 81,
              "duration": 0.42,
              "velocity": 82
            },
            {
              "bar": 2.0,
              "beat": 2.5,
              "pitch": 79,
              "duration": 0.75,
              "velocity": 82
            },
            {
              "bar": 2.0,
              "beat": 3.0,
              "pitch": 76,
              "duration": 0.42,
              "velocity": 82
            },
            {
              "bar": 2.0,
              "beat": 3.5,
              "pitch": 74,
              "duration": 0.42,
              "velocity": 82
            },
            {
              "bar": 2.0,
              "beat": 4.0,
              "pitch": 76,
              "duration": 0.42,
              "velocity": 82
            },
            {
              "bar": 2.0,
              "beat": 4.5,
              "pitch": 79,
              "duration": 0.75,
              "velocity": 82
            },
            {
              "bar": 3.0,
              "beat": 1.0,
              "pitch": 76,
              "duration": 0.42,
              "velocity": 82
            },
            {
              "bar": 3.0,
              "beat": 1.5,
              "pitch": 79,
              "duration": 0.42,
              "velocity": 82
            },
            {
              "bar": 3.0,
              "beat": 2.0,
              "pitch": 81,
              "duration": 0.42,
              "velocity": 82
            },
            {
              "bar": 3.0,
              "beat": 2.5,
              "pitch": 79,
              "duration": 0.75,
              "velocity": 82
            },
            {
              "bar": 3.0,
              "beat": 3.0,
              "pitch": 76,
              "duration": 0.42,
              "velocity": 82
            },
            {
              "bar": 3.0,
              "beat": 3.5,
              "pitch": 74,
              "duration": 0.42,
              "velocity": 82
            },
            {
              "bar": 3.0,
              "beat": 4.0,
              "pitch": 76,
              "duration": 0.42,
              "velocity": 82
            },
            {
              "bar": 3.0,
              "beat": 4.5,
              "pitch": 79,
              "duration": 0.75,
              "velocity": 82
            },
            {
              "bar": 4.0,
              "beat": 1.0,
              "pitch": 76,
              "duration": 0.42,
              "velocity": 82
            },
            {
              "bar": 4.0,
              "beat": 1.5,
              "pitch": 79,
              "duration": 0.42,
              "velocity": 82
            },
            {
              "bar": 4.0,
              "beat": 2.0,
              "pitch": 81,
              "duration": 0.42,
              "velocity": 82
            },
            {
              "bar": 4.0,
              "beat": 2.5,
              "pitch": 79,
              "duration": 0.75,
              "velocity": 82
            },
            {
              "bar": 4.0,
              "beat": 3.0,
              "pitch": 76,
              "duration": 0.42,
              "velocity": 82
            },
            {
              "bar": 4.0,
              "beat": 3.5,
              "pitch": 74,
              "duration": 0.42,
              "velocity": 82
            },
            {
              "bar": 4.0,
              "beat": 4.0,
              "pitch": 76,
              "duration": 0.42,
              "velocity": 82
            },
            {
              "bar": 4.0,
              "beat": 4.5,
              "pitch": 79,
              "duration": 0.75,
              "velocity": 82
            },
            {
              "bar": 5.0,
              "beat": 1.0,
              "pitch": 76,
              "duration": 0.42,
              "velocity": 82
            },
            {
              "bar": 5.0,
              "beat": 1.5,
              "pitch": 79,
              "duration": 0.42,
              "velocity": 82
            },
            {
              "bar": 5.0,
              "beat": 2.0,
              "pitch": 81,
              "duration": 0.42,
              "velocity": 82
            },
            {
              "bar": 5.0,
              "beat": 2.5,
              "pitch": 79,
              "duration": 0.75,
              "velocity": 82
            },
            {
              "bar": 5.0,
              "beat": 3.0,
              "pitch": 76,
              "duration": 0.42,
              "velocity": 82
            },
            {
              "bar": 5.0,
              "beat": 3.5,
              "pitch": 74,
              "duration": 0.42,
              "velocity": 82
            },
            {
              "bar": 5.0,
              "beat": 4.0,
              "pitch": 76,
              "duration": 0.42,
              "velocity": 82
            },
            {
              "bar": 5.0,
              "beat": 4.5,
              "pitch": 79,
              "duration": 0.75,
              "velocity": 82
            },
            {
              "bar": 6.0,
              "beat": 1.0,
              "pitch": 76,
              "duration": 0.42,
              "velocity": 82
            },
            {
              "bar": 6.0,
              "beat": 1.5,
              "pitch": 79,
              "duration": 0.42,
              "velocity": 82
            },
            {
              "bar": 6.0,
              "beat": 2.0,
              "pitch": 81,
              "duration": 0.42,
              "velocity": 82
            },
            {
              "bar": 6.0,
              "beat": 2.5,
              "pitch": 79,
              "duration": 0.75,
              "velocity": 82
            },
            {
              "bar": 6.0,
              "beat": 3.0,
              "pitch": 76,
              "duration": 0.42,
              "velocity": 82
            },
            {
              "bar": 6.0,
              "beat": 3.5,
              "pitch": 74,
              "duration": 0.42,
              "velocity": 82
            },
            {
              "bar": 6.0,
              "beat": 4.0,
              "pitch": 76,
              "duration": 0.42,
              "velocity": 82
            },
            {
              "bar": 6.0,
              "beat": 4.5,
              "pitch": 79,
              "duration": 0.75,
              "velocity": 82
            },
            {
              "bar": 7.0,
              "beat": 1.0,
              "pitch": 76,
              "duration": 0.42,
              "velocity": 82
            },
            {
              "bar": 7.0,
              "beat": 1.5,
              "pitch": 79,
              "duration": 0.42,
              "velocity": 82
            },
            {
              "bar": 7.0,
              "beat": 2.0,
              "pitch": 81,
              "duration": 0.42,
              "velocity": 82
            },
            {
              "bar": 7.0,
              "beat": 2.5,
              "pitch": 79,
              "duration": 0.75,
              "velocity": 82
            },
            {
              "bar": 7.0,
              "beat": 3.0,
              "pitch": 76,
              "duration": 0.42,
              "velocity": 82
            },
            {
              "bar": 7.0,
              "beat": 3.5,
              "pitch": 74,
              "duration": 0.42,
              "velocity": 82
            },
            {
              "bar": 7.0,
              "beat": 4.0,
              "pitch": 76,
              "duration": 0.42,
              "velocity": 82
            },
            {
              "bar": 7.0,
              "beat": 4.5,
              "pitch": 79,
              "duration": 0.75,
              "velocity": 82
            },
            {
              "bar": 8.0,
              "beat": 1.0,
              "pitch": 76,
              "duration": 0.42,
              "velocity": 82
            },
            {
              "bar": 8.0,
              "beat": 1.5,
              "pitch": 79,
              "duration": 0.42,
              "velocity": 82
            },
            {
              "bar": 8.0,
              "beat": 2.0,
              "pitch": 81,
              "duration": 0.42,
              "velocity": 82
            },
            {
              "bar": 8.0,
              "beat": 2.5,
              "pitch": 79,
              "duration": 0.75,
              "velocity": 82
            },
            {
              "bar": 8.0,
              "beat": 3.0,
              "pitch": 76,
              "duration": 0.42,
              "velocity": 82
            },
            {
              "bar": 8.0,
              "beat": 3.5,
              "pitch": 74,
              "duration": 0.42,
              "velocity": 82
            },
            {
              "bar": 8.0,
              "beat": 4.0,
              "pitch": 76,
              "duration": 0.42,
              "velocity": 82
            },
            {
              "bar": 8.0,
              "beat": 4.5,
              "pitch": 79,
              "duration": 0.75,
              "velocity": 82
            },
            {
              "bar": 9.0,
              "beat": 1.0,
              "pitch": 88,
              "duration": 0.42,
              "velocity": 82
            },
            {
              "bar": 9.0,
              "beat": 1.5,
              "pitch": 91,
              "duration": 0.42,
              "velocity": 82
            },
            {
              "bar": 9.0,
              "beat": 2.0,
              "pitch": 93,
              "duration": 0.42,
              "velocity": 82
            },
            {
              "bar": 9.0,
              "beat": 2.5,
              "pitch": 91,
              "duration": 0.75,
              "velocity": 82
            },
            {
              "bar": 9.0,
              "beat": 3.0,
              "pitch": 88,
              "duration": 0.42,
              "velocity": 82
            },
            {
              "bar": 9.0,
              "beat": 3.5,
              "pitch": 86,
              "duration": 0.42,
              "velocity": 82
            },
            {
              "bar": 9.0,
              "beat": 4.0,
              "pitch": 88,
              "duration": 0.42,
              "velocity": 82
            },
            {
              "bar": 9.0,
              "beat": 4.5,
              "pitch": 91,
              "duration": 0.75,
              "velocity": 82
            },
            {
              "bar": 10.0,
              "beat": 1.0,
              "pitch": 88,
              "duration": 0.42,
              "velocity": 82
            },
            {
              "bar": 10.0,
              "beat": 1.5,
              "pitch": 91,
              "duration": 0.42,
              "velocity": 82
            },
            {
              "bar": 10.0,
              "beat": 2.0,
              "pitch": 93,
              "duration": 0.42,
              "velocity": 82
            },
            {
              "bar": 10.0,
              "beat": 2.5,
              "pitch": 91,
              "duration": 0.75,
              "velocity": 82
            },
            {
              "bar": 10.0,
              "beat": 3.0,
              "pitch": 88,
              "duration": 0.42,
              "velocity": 82
            },
            {
              "bar": 10.0,
              "beat": 3.5,
              "pitch": 86,
              "duration": 0.42,
              "velocity": 82
            },
            {
              "bar": 10.0,
              "beat": 4.0,
              "pitch": 88,
              "duration": 0.42,
              "velocity": 82
            },
            {
              "bar": 10.0,
              "beat": 4.5,
              "pitch": 91,
              "duration": 0.75,
              "velocity": 82
            },
            {
              "bar": 11.0,
              "beat": 1.0,
              "pitch": 88,
              "duration": 0.42,
              "velocity": 82
            },
            {
              "bar": 11.0,
              "beat": 1.5,
              "pitch": 91,
              "duration": 0.42,
              "velocity": 82
            },
            {
              "bar": 11.0,
              "beat": 2.0,
              "pitch": 93,
              "duration": 0.42,
              "velocity": 82
            },
            {
              "bar": 11.0,
              "beat": 2.5,
              "pitch": 91,
              "duration": 0.75,
              "velocity": 82
            },
            {
              "bar": 11.0,
              "beat": 3.0,
              "pitch": 88,
              "duration": 0.42,
              "velocity": 82
            },
            {
              "bar": 11.0,
              "beat": 3.5,
              "pitch": 86,
              "duration": 0.42,
              "velocity": 82
            },
            {
              "bar": 11.0,
              "beat": 4.0,
              "pitch": 88,
              "duration": 0.42,
              "velocity": 82
            },
            {
              "bar": 11.0,
              "beat": 4.5,
              "pitch": 91,
              "duration": 0.75,
              "velocity": 82
            },
            {
              "bar": 12.0,
              "beat": 1.0,
              "pitch": 88,
              "duration": 0.42,
              "velocity": 82
            },
            {
              "bar": 12.0,
              "beat": 1.5,
              "pitch": 91,
              "duration": 0.42,
              "velocity": 82
            },
            {
              "bar": 12.0,
              "beat": 2.0,
              "pitch": 93,
              "duration": 0.42,
              "velocity": 82
            },
            {
              "bar": 12.0,
              "beat": 2.5,
              "pitch": 91,
              "duration": 0.75,
              "velocity": 82
            },
            {
              "bar": 12.0,
              "beat": 3.0,
              "pitch": 88,
              "duration": 0.42,
              "velocity": 82
            },
            {
              "bar": 12.0,
              "beat": 3.5,
              "pitch": 86,
              "duration": 0.42,
              "velocity": 82
            },
            {
              "bar": 12.0,
              "beat": 4.0,
              "pitch": 88,
              "duration": 0.42,
              "velocity": 82
            },
            {
              "bar": 12.0,
              "beat": 4.5,
              "pitch": 91,
              "duration": 0.75,
              "velocity": 82
            },
            {
              "bar": 13.0,
              "beat": 1.0,
              "pitch": 88,
              "duration": 0.42,
              "velocity": 82
            },
            {
              "bar": 13.0,
              "beat": 1.5,
              "pitch": 91,
              "duration": 0.42,
              "velocity": 82
            },
            {
              "bar": 13.0,
              "beat": 2.0,
              "pitch": 93,
              "duration": 0.42,
              "velocity": 82
            },
            {
              "bar": 13.0,
              "beat": 2.5,
              "pitch": 91,
              "duration": 0.75,
              "velocity": 82
            },
            {
              "bar": 13.0,
              "beat": 3.0,
              "pitch": 88,
              "duration": 0.42,
              "velocity": 82
            },
            {
              "bar": 13.0,
              "beat": 3.5,
              "pitch": 86,
              "duration": 0.42,
              "velocity": 82
            },
            {
              "bar": 13.0,
              "beat": 4.0,
              "pitch": 88,
              "duration": 0.42,
              "velocity": 82
            },
            {
              "bar": 13.0,
              "beat": 4.5,
              "pitch": 91,
              "duration": 0.75,
              "velocity": 82
            },
            {
              "bar": 14.0,
              "beat": 1.0,
              "pitch": 88,
              "duration": 0.42,
              "velocity": 82
            },
            {
              "bar": 14.0,
              "beat": 1.5,
              "pitch": 91,
              "duration": 0.42,
              "velocity": 82
            },
            {
              "bar": 14.0,
              "beat": 2.0,
              "pitch": 93,
              "duration": 0.42,
              "velocity": 82
            },
            {
              "bar": 14.0,
              "beat": 2.5,
              "pitch": 91,
              "duration": 0.75,
              "velocity": 82
            },
            {
              "bar": 14.0,
              "beat": 3.0,
              "pitch": 88,
              "duration": 0.42,
              "velocity": 82
            },
            {
              "bar": 14.0,
              "beat": 3.5,
              "pitch": 86,
              "duration": 0.42,
              "velocity": 82
            },
            {
              "bar": 14.0,
              "beat": 4.0,
              "pitch": 88,
              "duration": 0.42,
              "velocity": 82
            },
            {
              "bar": 14.0,
              "beat": 4.5,
              "pitch": 91,
              "duration": 0.75,
              "velocity": 82
            },
            {
              "bar": 15.0,
              "beat": 1.0,
              "pitch": 88,
              "duration": 0.42,
              "velocity": 82
            },
            {
              "bar": 15.0,
              "beat": 1.5,
              "pitch": 91,
              "duration": 0.42,
              "velocity": 82
            },
            {
              "bar": 15.0,
              "beat": 2.0,
              "pitch": 93,
              "duration": 0.42,
              "velocity": 82
            },
            {
              "bar": 15.0,
              "beat": 2.5,
              "pitch": 91,
              "duration": 0.75,
              "velocity": 82
            },
            {
              "bar": 15.0,
              "beat": 3.0,
              "pitch": 88,
              "duration": 0.42,
              "velocity": 82
            },
            {
              "bar": 15.0,
              "beat": 3.5,
              "pitch": 86,
              "duration": 0.42,
              "velocity": 82
            },
            {
              "bar": 15.0,
              "beat": 4.0,
              "pitch": 88,
              "duration": 0.42,
              "velocity": 82
            },
            {
              "bar": 15.0,
              "beat": 4.5,
              "pitch": 91,
              "duration": 0.75,
              "velocity": 82
            },
            {
              "bar": 16.0,
              "beat": 1.0,
              "pitch": 88,
              "duration": 0.42,
              "velocity": 82
            },
            {
              "bar": 16.0,
              "beat": 1.5,
              "pitch": 91,
              "duration": 0.42,
              "velocity": 82
            },
            {
              "bar": 16.0,
              "beat": 2.0,
              "pitch": 93,
              "duration": 0.42,
              "velocity": 82
            },
            {
              "bar": 16.0,
              "beat": 2.5,
              "pitch": 91,
              "duration": 0.75,
              "velocity": 82
            },
            {
              "bar": 16.0,
              "beat": 3.0,
              "pitch": 88,
              "duration": 0.42,
              "velocity": 82
            },
            {
              "bar": 16.0,
              "beat": 3.5,
              "pitch": 86,
              "duration": 0.42,
              "velocity": 82
            },
            {
              "bar": 16.0,
              "beat": 4.0,
              "pitch": 88,
              "duration": 0.42,
              "velocity": 82
            },
            {
              "bar": 16.0,
              "beat": 4.5,
              "pitch": 91,
              "duration": 0.75,
              "velocity": 82
            }
          ]
        },
        {
          "id": "bridge-lead",
          "name": "Bridge Lead",
          "bar": 49.0,
          "beats": 32.0,
          "color": "#1fc04b",
          "loop_count": 1,
          "notes": [
            {
              "bar": 1.0,
              "beat": 1.0,
              "pitch": 67,
              "duration": 0.42,
              "velocity": 82
            },
            {
              "bar": 1.0,
              "beat": 1.5,
              "pitch": 69,
              "duration": 0.42,
              "velocity": 82
            },
            {
              "bar": 1.0,
              "beat": 2.0,
              "pitch": 72,
              "duration": 0.42,
              "velocity": 82
            },
            {
              "bar": 1.0,
              "beat": 2.5,
              "pitch": 74,
              "duration": 0.75,
              "velocity": 82
            },
            {
              "bar": 1.0,
              "beat": 3.0,
              "pitch": 72,
              "duration": 0.42,
              "velocity": 82
            },
            {
              "bar": 1.0,
              "beat": 3.5,
              "pitch": 69,
              "duration": 0.42,
              "velocity": 82
            },
            {
              "bar": 1.0,
              "beat": 4.0,
              "pitch": 67,
              "duration": 0.42,
              "velocity": 82
            },
            {
              "bar": 1.0,
              "beat": 4.5,
              "pitch": 64,
              "duration": 0.75,
              "velocity": 82
            },
            {
              "bar": 2.0,
              "beat": 1.0,
              "pitch": 67,
              "duration": 0.42,
              "velocity": 82
            },
            {
              "bar": 2.0,
              "beat": 1.5,
              "pitch": 69,
              "duration": 0.42,
              "velocity": 82
            },
            {
              "bar": 2.0,
              "beat": 2.0,
              "pitch": 72,
              "duration": 0.42,
              "velocity": 82
            },
            {
              "bar": 2.0,
              "beat": 2.5,
              "pitch": 74,
              "duration": 0.75,
              "velocity": 82
            },
            {
              "bar": 2.0,
              "beat": 3.0,
              "pitch": 72,
              "duration": 0.42,
              "velocity": 82
            },
            {
              "bar": 2.0,
              "beat": 3.5,
              "pitch": 69,
              "duration": 0.42,
              "velocity": 82
            },
            {
              "bar": 2.0,
              "beat": 4.0,
              "pitch": 67,
              "duration": 0.42,
              "velocity": 82
            },
            {
              "bar": 2.0,
              "beat": 4.5,
              "pitch": 64,
              "duration": 0.75,
              "velocity": 82
            },
            {
              "bar": 3.0,
              "beat": 1.0,
              "pitch": 67,
              "duration": 0.42,
              "velocity": 82
            },
            {
              "bar": 3.0,
              "beat": 1.5,
              "pitch": 69,
              "duration": 0.42,
              "velocity": 82
            },
            {
              "bar": 3.0,
              "beat": 2.0,
              "pitch": 72,
              "duration": 0.42,
              "velocity": 82
            },
            {
              "bar": 3.0,
              "beat": 2.5,
              "pitch": 74,
              "duration": 0.75,
              "velocity": 82
            },
            {
              "bar": 3.0,
              "beat": 3.0,
              "pitch": 72,
              "duration": 0.42,
              "velocity": 82
            },
            {
              "bar": 3.0,
              "beat": 3.5,
              "pitch": 69,
              "duration": 0.42,
              "velocity": 82
            },
            {
              "bar": 3.0,
              "beat": 4.0,
              "pitch": 67,
              "duration": 0.42,
              "velocity": 82
            },
            {
              "bar": 3.0,
              "beat": 4.5,
              "pitch": 64,
              "duration": 0.75,
              "velocity": 82
            },
            {
              "bar": 4.0,
              "beat": 1.0,
              "pitch": 67,
              "duration": 0.42,
              "velocity": 82
            },
            {
              "bar": 4.0,
              "beat": 1.5,
              "pitch": 69,
              "duration": 0.42,
              "velocity": 82
            },
            {
              "bar": 4.0,
              "beat": 2.0,
              "pitch": 72,
              "duration": 0.42,
              "velocity": 82
            },
            {
              "bar": 4.0,
              "beat": 2.5,
              "pitch": 74,
              "duration": 0.75,
              "velocity": 82
            },
            {
              "bar": 4.0,
              "beat": 3.0,
              "pitch": 72,
              "duration": 0.42,
              "velocity": 82
            },
            {
              "bar": 4.0,
              "beat": 3.5,
              "pitch": 69,
              "duration": 0.42,
              "velocity": 82
            },
            {
              "bar": 4.0,
              "beat": 4.0,
              "pitch": 67,
              "duration": 0.42,
              "velocity": 82
            },
            {
              "bar": 4.0,
              "beat": 4.5,
              "pitch": 64,
              "duration": 0.75,
              "velocity": 82
            },
            {
              "bar": 5.0,
              "beat": 1.0,
              "pitch": 67,
              "duration": 0.42,
              "velocity": 82
            },
            {
              "bar": 5.0,
              "beat": 1.5,
              "pitch": 69,
              "duration": 0.42,
              "velocity": 82
            },
            {
              "bar": 5.0,
              "beat": 2.0,
              "pitch": 72,
              "duration": 0.42,
              "velocity": 82
            },
            {
              "bar": 5.0,
              "beat": 2.5,
              "pitch": 74,
              "duration": 0.75,
              "velocity": 82
            },
            {
              "bar": 5.0,
              "beat": 3.0,
              "pitch": 72,
              "duration": 0.42,
              "velocity": 82
            },
            {
              "bar": 5.0,
              "beat": 3.5,
              "pitch": 69,
              "duration": 0.42,
              "velocity": 82
            },
            {
              "bar": 5.0,
              "beat": 4.0,
              "pitch": 67,
              "duration": 0.42,
              "velocity": 82
            },
            {
              "bar": 5.0,
              "beat": 4.5,
              "pitch": 64,
              "duration": 0.75,
              "velocity": 82
            },
            {
              "bar": 6.0,
              "beat": 1.0,
              "pitch": 67,
              "duration": 0.42,
              "velocity": 82
            },
            {
              "bar": 6.0,
              "beat": 1.5,
              "pitch": 69,
              "duration": 0.42,
              "velocity": 82
            },
            {
              "bar": 6.0,
              "beat": 2.0,
              "pitch": 72,
              "duration": 0.42,
              "velocity": 82
            },
            {
              "bar": 6.0,
              "beat": 2.5,
              "pitch": 74,
              "duration": 0.75,
              "velocity": 82
            },
            {
              "bar": 6.0,
              "beat": 3.0,
              "pitch": 72,
              "duration": 0.42,
              "velocity": 82
            },
            {
              "bar": 6.0,
              "beat": 3.5,
              "pitch": 69,
              "duration": 0.42,
              "velocity": 82
            },
            {
              "bar": 6.0,
              "beat": 4.0,
              "pitch": 67,
              "duration": 0.42,
              "velocity": 82
            },
            {
              "bar": 6.0,
              "beat": 4.5,
              "pitch": 64,
              "duration": 0.75,
              "velocity": 82
            },
            {
              "bar": 7.0,
              "beat": 1.0,
              "pitch": 67,
              "duration": 0.42,
              "velocity": 82
            },
            {
              "bar": 7.0,
              "beat": 1.5,
              "pitch": 69,
              "duration": 0.42,
              "velocity": 82
            },
            {
              "bar": 7.0,
              "beat": 2.0,
              "pitch": 72,
              "duration": 0.42,
              "velocity": 82
            },
            {
              "bar": 7.0,
              "beat": 2.5,
              "pitch": 74,
              "duration": 0.75,
              "velocity": 82
            },
            {
              "bar": 7.0,
              "beat": 3.0,
              "pitch": 72,
              "duration": 0.42,
              "velocity": 82
            },
            {
              "bar": 7.0,
              "beat": 3.5,
              "pitch": 69,
              "duration": 0.42,
              "velocity": 82
            },
            {
              "bar": 7.0,
              "beat": 4.0,
              "pitch": 67,
              "duration": 0.42,
              "velocity": 82
            },
            {
              "bar": 7.0,
              "beat": 4.5,
              "pitch": 64,
              "duration": 0.75,
              "velocity": 82
            },
            {
              "bar": 8.0,
              "beat": 1.0,
              "pitch": 67,
              "duration": 0.42,
              "velocity": 82
            },
            {
              "bar": 8.0,
              "beat": 1.5,
              "pitch": 69,
              "duration": 0.42,
              "velocity": 82
            },
            {
              "bar": 8.0,
              "beat": 2.0,
              "pitch": 72,
              "duration": 0.42,
              "velocity": 82
            },
            {
              "bar": 8.0,
              "beat": 2.5,
              "pitch": 74,
              "duration": 0.75,
              "velocity": 82
            },
            {
              "bar": 8.0,
              "beat": 3.0,
              "pitch": 72,
              "duration": 0.42,
              "velocity": 82
            },
            {
              "bar": 8.0,
              "beat": 3.5,
              "pitch": 69,
              "duration": 0.42,
              "velocity": 82
            },
            {
              "bar": 8.0,
              "beat": 4.0,
              "pitch": 67,
              "duration": 0.42,
              "velocity": 82
            },
            {
              "bar": 8.0,
              "beat": 4.5,
              "pitch": 64,
              "duration": 0.75,
              "velocity": 82
            }
          ]
        },
        {
          "id": "final-chorus-lead",
          "name": "Final Chorus Lead",
          "bar": 57.0,
          "beats": 64.0,
          "color": "#1fc04b",
          "loop_count": 1,
          "notes": [
            {
              "bar": 1.0,
              "beat": 1.0,
              "pitch": 76,
              "duration": 0.42,
              "velocity": 82
            },
            {
              "bar": 1.0,
              "beat": 1.5,
              "pitch": 79,
              "duration": 0.42,
              "velocity": 82
            },
            {
              "bar": 1.0,
              "beat": 2.0,
              "pitch": 81,
              "duration": 0.42,
              "velocity": 82
            },
            {
              "bar": 1.0,
              "beat": 2.5,
              "pitch": 79,
              "duration": 0.75,
              "velocity": 82
            },
            {
              "bar": 1.0,
              "beat": 3.0,
              "pitch": 76,
              "duration": 0.42,
              "velocity": 82
            },
            {
              "bar": 1.0,
              "beat": 3.5,
              "pitch": 74,
              "duration": 0.42,
              "velocity": 82
            },
            {
              "bar": 1.0,
              "beat": 4.0,
              "pitch": 76,
              "duration": 0.42,
              "velocity": 82
            },
            {
              "bar": 1.0,
              "beat": 4.5,
              "pitch": 79,
              "duration": 0.75,
              "velocity": 82
            },
            {
              "bar": 2.0,
              "beat": 1.0,
              "pitch": 76,
              "duration": 0.42,
              "velocity": 82
            },
            {
              "bar": 2.0,
              "beat": 1.5,
              "pitch": 79,
              "duration": 0.42,
              "velocity": 82
            },
            {
              "bar": 2.0,
              "beat": 2.0,
              "pitch": 81,
              "duration": 0.42,
              "velocity": 82
            },
            {
              "bar": 2.0,
              "beat": 2.5,
              "pitch": 79,
              "duration": 0.75,
              "velocity": 82
            },
            {
              "bar": 2.0,
              "beat": 3.0,
              "pitch": 76,
              "duration": 0.42,
              "velocity": 82
            },
            {
              "bar": 2.0,
              "beat": 3.5,
              "pitch": 74,
              "duration": 0.42,
              "velocity": 82
            },
            {
              "bar": 2.0,
              "beat": 4.0,
              "pitch": 76,
              "duration": 0.42,
              "velocity": 82
            },
            {
              "bar": 2.0,
              "beat": 4.5,
              "pitch": 79,
              "duration": 0.75,
              "velocity": 82
            },
            {
              "bar": 3.0,
              "beat": 1.0,
              "pitch": 76,
              "duration": 0.42,
              "velocity": 82
            },
            {
              "bar": 3.0,
              "beat": 1.5,
              "pitch": 79,
              "duration": 0.42,
              "velocity": 82
            },
            {
              "bar": 3.0,
              "beat": 2.0,
              "pitch": 81,
              "duration": 0.42,
              "velocity": 82
            },
            {
              "bar": 3.0,
              "beat": 2.5,
              "pitch": 79,
              "duration": 0.75,
              "velocity": 82
            },
            {
              "bar": 3.0,
              "beat": 3.0,
              "pitch": 76,
              "duration": 0.42,
              "velocity": 82
            },
            {
              "bar": 3.0,
              "beat": 3.5,
              "pitch": 74,
              "duration": 0.42,
              "velocity": 82
            },
            {
              "bar": 3.0,
              "beat": 4.0,
              "pitch": 76,
              "duration": 0.42,
              "velocity": 82
            },
            {
              "bar": 3.0,
              "beat": 4.5,
              "pitch": 79,
              "duration": 0.75,
              "velocity": 82
            },
            {
              "bar": 4.0,
              "beat": 1.0,
              "pitch": 76,
              "duration": 0.42,
              "velocity": 82
            },
            {
              "bar": 4.0,
              "beat": 1.5,
              "pitch": 79,
              "duration": 0.42,
              "velocity": 82
            },
            {
              "bar": 4.0,
              "beat": 2.0,
              "pitch": 81,
              "duration": 0.42,
              "velocity": 82
            },
            {
              "bar": 4.0,
              "beat": 2.5,
              "pitch": 79,
              "duration": 0.75,
              "velocity": 82
            },
            {
              "bar": 4.0,
              "beat": 3.0,
              "pitch": 76,
              "duration": 0.42,
              "velocity": 82
            },
            {
              "bar": 4.0,
              "beat": 3.5,
              "pitch": 74,
              "duration": 0.42,
              "velocity": 82
            },
            {
              "bar": 4.0,
              "beat": 4.0,
              "pitch": 76,
              "duration": 0.42,
              "velocity": 82
            },
            {
              "bar": 4.0,
              "beat": 4.5,
              "pitch": 79,
              "duration": 0.75,
              "velocity": 82
            },
            {
              "bar": 5.0,
              "beat": 1.0,
              "pitch": 76,
              "duration": 0.42,
              "velocity": 82
            },
            {
              "bar": 5.0,
              "beat": 1.5,
              "pitch": 79,
              "duration": 0.42,
              "velocity": 82
            },
            {
              "bar": 5.0,
              "beat": 2.0,
              "pitch": 81,
              "duration": 0.42,
              "velocity": 82
            },
            {
              "bar": 5.0,
              "beat": 2.5,
              "pitch": 79,
              "duration": 0.75,
              "velocity": 82
            },
            {
              "bar": 5.0,
              "beat": 3.0,
              "pitch": 76,
              "duration": 0.42,
              "velocity": 82
            },
            {
              "bar": 5.0,
              "beat": 3.5,
              "pitch": 74,
              "duration": 0.42,
              "velocity": 82
            },
            {
              "bar": 5.0,
              "beat": 4.0,
              "pitch": 76,
              "duration": 0.42,
              "velocity": 82
            },
            {
              "bar": 5.0,
              "beat": 4.5,
              "pitch": 79,
              "duration": 0.75,
              "velocity": 82
            },
            {
              "bar": 6.0,
              "beat": 1.0,
              "pitch": 76,
              "duration": 0.42,
              "velocity": 82
            },
            {
              "bar": 6.0,
              "beat": 1.5,
              "pitch": 79,
              "duration": 0.42,
              "velocity": 82
            },
            {
              "bar": 6.0,
              "beat": 2.0,
              "pitch": 81,
              "duration": 0.42,
              "velocity": 82
            },
            {
              "bar": 6.0,
              "beat": 2.5,
              "pitch": 79,
              "duration": 0.75,
              "velocity": 82
            },
            {
              "bar": 6.0,
              "beat": 3.0,
              "pitch": 76,
              "duration": 0.42,
              "velocity": 82
            },
            {
              "bar": 6.0,
              "beat": 3.5,
              "pitch": 74,
              "duration": 0.42,
              "velocity": 82
            },
            {
              "bar": 6.0,
              "beat": 4.0,
              "pitch": 76,
              "duration": 0.42,
              "velocity": 82
            },
            {
              "bar": 6.0,
              "beat": 4.5,
              "pitch": 79,
              "duration": 0.75,
              "velocity": 82
            },
            {
              "bar": 7.0,
              "beat": 1.0,
              "pitch": 76,
              "duration": 0.42,
              "velocity": 82
            },
            {
              "bar": 7.0,
              "beat": 1.5,
              "pitch": 79,
              "duration": 0.42,
              "velocity": 82
            },
            {
              "bar": 7.0,
              "beat": 2.0,
              "pitch": 81,
              "duration": 0.42,
              "velocity": 82
            },
            {
              "bar": 7.0,
              "beat": 2.5,
              "pitch": 79,
              "duration": 0.75,
              "velocity": 82
            },
            {
              "bar": 7.0,
              "beat": 3.0,
              "pitch": 76,
              "duration": 0.42,
              "velocity": 82
            },
            {
              "bar": 7.0,
              "beat": 3.5,
              "pitch": 74,
              "duration": 0.42,
              "velocity": 82
            },
            {
              "bar": 7.0,
              "beat": 4.0,
              "pitch": 76,
              "duration": 0.42,
              "velocity": 82
            },
            {
              "bar": 7.0,
              "beat": 4.5,
              "pitch": 79,
              "duration": 0.75,
              "velocity": 82
            },
            {
              "bar": 8.0,
              "beat": 1.0,
              "pitch": 76,
              "duration": 0.42,
              "velocity": 82
            },
            {
              "bar": 8.0,
              "beat": 1.5,
              "pitch": 79,
              "duration": 0.42,
              "velocity": 82
            },
            {
              "bar": 8.0,
              "beat": 2.0,
              "pitch": 81,
              "duration": 0.42,
              "velocity": 82
            },
            {
              "bar": 8.0,
              "beat": 2.5,
              "pitch": 79,
              "duration": 0.75,
              "velocity": 82
            },
            {
              "bar": 8.0,
              "beat": 3.0,
              "pitch": 76,
              "duration": 0.42,
              "velocity": 82
            },
            {
              "bar": 8.0,
              "beat": 3.5,
              "pitch": 74,
              "duration": 0.42,
              "velocity": 82
            },
            {
              "bar": 8.0,
              "beat": 4.0,
              "pitch": 76,
              "duration": 0.42,
              "velocity": 82
            },
            {
              "bar": 8.0,
              "beat": 4.5,
              "pitch": 79,
              "duration": 0.75,
              "velocity": 82
            },
            {
              "bar": 9.0,
              "beat": 1.0,
              "pitch": 88,
              "duration": 0.42,
              "velocity": 82
            },
            {
              "bar": 9.0,
              "beat": 1.5,
              "pitch": 91,
              "duration": 0.42,
              "velocity": 82
            },
            {
              "bar": 9.0,
              "beat": 2.0,
              "pitch": 93,
              "duration": 0.42,
              "velocity": 82
            },
            {
              "bar": 9.0,
              "beat": 2.5,
              "pitch": 91,
              "duration": 0.75,
              "velocity": 82
            },
            {
              "bar": 9.0,
              "beat": 3.0,
              "pitch": 88,
              "duration": 0.42,
              "velocity": 82
            },
            {
              "bar": 9.0,
              "beat": 3.5,
              "pitch": 86,
              "duration": 0.42,
              "velocity": 82
            },
            {
              "bar": 9.0,
              "beat": 4.0,
              "pitch": 88,
              "duration": 0.42,
              "velocity": 82
            },
            {
              "bar": 9.0,
              "beat": 4.5,
              "pitch": 91,
              "duration": 0.75,
              "velocity": 82
            },
            {
              "bar": 10.0,
              "beat": 1.0,
              "pitch": 88,
              "duration": 0.42,
              "velocity": 82
            },
            {
              "bar": 10.0,
              "beat": 1.5,
              "pitch": 91,
              "duration": 0.42,
              "velocity": 82
            },
            {
              "bar": 10.0,
              "beat": 2.0,
              "pitch": 93,
              "duration": 0.42,
              "velocity": 82
            },
            {
              "bar": 10.0,
              "beat": 2.5,
              "pitch": 91,
              "duration": 0.75,
              "velocity": 82
            },
            {
              "bar": 10.0,
              "beat": 3.0,
              "pitch": 88,
              "duration": 0.42,
              "velocity": 82
            },
            {
              "bar": 10.0,
              "beat": 3.5,
              "pitch": 86,
              "duration": 0.42,
              "velocity": 82
            },
            {
              "bar": 10.0,
              "beat": 4.0,
              "pitch": 88,
              "duration": 0.42,
              "velocity": 82
            },
            {
              "bar": 10.0,
              "beat": 4.5,
              "pitch": 91,
              "duration": 0.75,
              "velocity": 82
            },
            {
              "bar": 11.0,
              "beat": 1.0,
              "pitch": 88,
              "duration": 0.42,
              "velocity": 82
            },
            {
              "bar": 11.0,
              "beat": 1.5,
              "pitch": 91,
              "duration": 0.42,
              "velocity": 82
            },
            {
              "bar": 11.0,
              "beat": 2.0,
              "pitch": 93,
              "duration": 0.42,
              "velocity": 82
            },
            {
              "bar": 11.0,
              "beat": 2.5,
              "pitch": 91,
              "duration": 0.75,
              "velocity": 82
            },
            {
              "bar": 11.0,
              "beat": 3.0,
              "pitch": 88,
              "duration": 0.42,
              "velocity": 82
            },
            {
              "bar": 11.0,
              "beat": 3.5,
              "pitch": 86,
              "duration": 0.42,
              "velocity": 82
            },
            {
              "bar": 11.0,
              "beat": 4.0,
              "pitch": 88,
              "duration": 0.42,
              "velocity": 82
            },
            {
              "bar": 11.0,
              "beat": 4.5,
              "pitch": 91,
              "duration": 0.75,
              "velocity": 82
            },
            {
              "bar": 12.0,
              "beat": 1.0,
              "pitch": 88,
              "duration": 0.42,
              "velocity": 82
            },
            {
              "bar": 12.0,
              "beat": 1.5,
              "pitch": 91,
              "duration": 0.42,
              "velocity": 82
            },
            {
              "bar": 12.0,
              "beat": 2.0,
              "pitch": 93,
              "duration": 0.42,
              "velocity": 82
            },
            {
              "bar": 12.0,
              "beat": 2.5,
              "pitch": 91,
              "duration": 0.75,
              "velocity": 82
            },
            {
              "bar": 12.0,
              "beat": 3.0,
              "pitch": 88,
              "duration": 0.42,
              "velocity": 82
            },
            {
              "bar": 12.0,
              "beat": 3.5,
              "pitch": 86,
              "duration": 0.42,
              "velocity": 82
            },
            {
              "bar": 12.0,
              "beat": 4.0,
              "pitch": 88,
              "duration": 0.42,
              "velocity": 82
            },
            {
              "bar": 12.0,
              "beat": 4.5,
              "pitch": 91,
              "duration": 0.75,
              "velocity": 82
            },
            {
              "bar": 13.0,
              "beat": 1.0,
              "pitch": 88,
              "duration": 0.42,
              "velocity": 82
            },
            {
              "bar": 13.0,
              "beat": 1.5,
              "pitch": 91,
              "duration": 0.42,
              "velocity": 82
            },
            {
              "bar": 13.0,
              "beat": 2.0,
              "pitch": 93,
              "duration": 0.42,
              "velocity": 82
            },
            {
              "bar": 13.0,
              "beat": 2.5,
              "pitch": 91,
              "duration": 0.75,
              "velocity": 82
            },
            {
              "bar": 13.0,
              "beat": 3.0,
              "pitch": 88,
              "duration": 0.42,
              "velocity": 82
            },
            {
              "bar": 13.0,
              "beat": 3.5,
              "pitch": 86,
              "duration": 0.42,
              "velocity": 82
            },
            {
              "bar": 13.0,
              "beat": 4.0,
              "pitch": 88,
              "duration": 0.42,
              "velocity": 82
            },
            {
              "bar": 13.0,
              "beat": 4.5,
              "pitch": 91,
              "duration": 0.75,
              "velocity": 82
            },
            {
              "bar": 14.0,
              "beat": 1.0,
              "pitch": 88,
              "duration": 0.42,
              "velocity": 82
            },
            {
              "bar": 14.0,
              "beat": 1.5,
              "pitch": 91,
              "duration": 0.42,
              "velocity": 82
            },
            {
              "bar": 14.0,
              "beat": 2.0,
              "pitch": 93,
              "duration": 0.42,
              "velocity": 82
            },
            {
              "bar": 14.0,
              "beat": 2.5,
              "pitch": 91,
              "duration": 0.75,
              "velocity": 82
            },
            {
              "bar": 14.0,
              "beat": 3.0,
              "pitch": 88,
              "duration": 0.42,
              "velocity": 82
            },
            {
              "bar": 14.0,
              "beat": 3.5,
              "pitch": 86,
              "duration": 0.42,
              "velocity": 82
            },
            {
              "bar": 14.0,
              "beat": 4.0,
              "pitch": 88,
              "duration": 0.42,
              "velocity": 82
            },
            {
              "bar": 14.0,
              "beat": 4.5,
              "pitch": 91,
              "duration": 0.75,
              "velocity": 82
            },
            {
              "bar": 15.0,
              "beat": 1.0,
              "pitch": 88,
              "duration": 0.42,
              "velocity": 82
            },
            {
              "bar": 15.0,
              "beat": 1.5,
              "pitch": 91,
              "duration": 0.42,
              "velocity": 82
            },
            {
              "bar": 15.0,
              "beat": 2.0,
              "pitch": 93,
              "duration": 0.42,
              "velocity": 82
            },
            {
              "bar": 15.0,
              "beat": 2.5,
              "pitch": 91,
              "duration": 0.75,
              "velocity": 82
            },
            {
              "bar": 15.0,
              "beat": 3.0,
              "pitch": 88,
              "duration": 0.42,
              "velocity": 82
            },
            {
              "bar": 15.0,
              "beat": 3.5,
              "pitch": 86,
              "duration": 0.42,
              "velocity": 82
            },
            {
              "bar": 15.0,
              "beat": 4.0,
              "pitch": 88,
              "duration": 0.42,
              "velocity": 82
            },
            {
              "bar": 15.0,
              "beat": 4.5,
              "pitch": 91,
              "duration": 0.75,
              "velocity": 82
            },
            {
              "bar": 16.0,
              "beat": 1.0,
              "pitch": 88,
              "duration": 0.42,
              "velocity": 82
            },
            {
              "bar": 16.0,
              "beat": 1.5,
              "pitch": 91,
              "duration": 0.42,
              "velocity": 82
            },
            {
              "bar": 16.0,
              "beat": 2.0,
              "pitch": 93,
              "duration": 0.42,
              "velocity": 82
            },
            {
              "bar": 16.0,
              "beat": 2.5,
              "pitch": 91,
              "duration": 0.75,
              "velocity": 82
            },
            {
              "bar": 16.0,
              "beat": 3.0,
              "pitch": 88,
              "duration": 0.42,
              "velocity": 82
            },
            {
              "bar": 16.0,
              "beat": 3.5,
              "pitch": 86,
              "duration": 0.42,
              "velocity": 82
            },
            {
              "bar": 16.0,
              "beat": 4.0,
              "pitch": 88,
              "duration": 0.42,
              "velocity": 82
            },
            {
              "bar": 16.0,
              "beat": 4.5,
              "pitch": 91,
              "duration": 0.75,
              "velocity": 82
            }
          ]
        }
      ],
      "audio_clips": [
        {
          "id": "audio-f09ed4d589",
          "name": "Audio Recording",
          "bar": 2.75,
          "beats": 12.0,
          "asset_path": "assets/recordings/recording-ab966843.wav",
          "duration_seconds": 7.337505668934241,
          "sample_rate": 44100,
          "channels": 1,
          "color": "#2e7ccf",
          "gain": 1.0
        }
      ],
      "program": 81,
      "preset": "lead"
    },
    {
      "name": "Counter Melody",
      "kind": "instrument",
      "channel": 4,
      "volume": 76,
      "pan": 64,
      "muted": false,
      "solo": false,
      "record_armed": false,
      "effects": [],
      "notes": [],
      "clips": [
        {
          "id": "chorus-counter",
          "name": "Chorus Counter",
          "bar": 33.0,
          "beats": 64.0,
          "color": "#77cf6d",
          "loop_count": 1,
          "notes": [
            {
              "bar": 1.0,
              "beat": 1.0,
              "pitch": 84,
              "duration": 0.65,
              "velocity": 54
            },
            {
              "bar": 1.0,
              "beat": 2.0,
              "pitch": 83,
              "duration": 0.65,
              "velocity": 54
            },
            {
              "bar": 1.0,
              "beat": 3.0,
              "pitch": 81,
              "duration": 0.65,
              "velocity": 54
            },
            {
              "bar": 1.0,
              "beat": 4.0,
              "pitch": 79,
              "duration": 0.65,
              "velocity": 54
            },
            {
              "bar": 2.0,
              "beat": 1.0,
              "pitch": 84,
              "duration": 0.65,
              "velocity": 54
            },
            {
              "bar": 2.0,
              "beat": 2.0,
              "pitch": 83,
              "duration": 0.65,
              "velocity": 54
            },
            {
              "bar": 2.0,
              "beat": 3.0,
              "pitch": 81,
              "duration": 0.65,
              "velocity": 54
            },
            {
              "bar": 2.0,
              "beat": 4.0,
              "pitch": 79,
              "duration": 0.65,
              "velocity": 54
            },
            {
              "bar": 3.0,
              "beat": 1.0,
              "pitch": 84,
              "duration": 0.65,
              "velocity": 54
            },
            {
              "bar": 3.0,
              "beat": 2.0,
              "pitch": 83,
              "duration": 0.65,
              "velocity": 54
            },
            {
              "bar": 3.0,
              "beat": 3.0,
              "pitch": 81,
              "duration": 0.65,
              "velocity": 54
            },
            {
              "bar": 3.0,
              "beat": 4.0,
              "pitch": 79,
              "duration": 0.65,
              "velocity": 54
            },
            {
              "bar": 4.0,
              "beat": 1.0,
              "pitch": 84,
              "duration": 0.65,
              "velocity": 54
            },
            {
              "bar": 4.0,
              "beat": 2.0,
              "pitch": 83,
              "duration": 0.65,
              "velocity": 54
            },
            {
              "bar": 4.0,
              "beat": 3.0,
              "pitch": 81,
              "duration": 0.65,
              "velocity": 54
            },
            {
              "bar": 4.0,
              "beat": 4.0,
              "pitch": 79,
              "duration": 0.65,
              "velocity": 54
            },
            {
              "bar": 5.0,
              "beat": 1.0,
              "pitch": 84,
              "duration": 0.65,
              "velocity": 54
            },
            {
              "bar": 5.0,
              "beat": 2.0,
              "pitch": 83,
              "duration": 0.65,
              "velocity": 54
            },
            {
              "bar": 5.0,
              "beat": 3.0,
              "pitch": 81,
              "duration": 0.65,
              "velocity": 54
            },
            {
              "bar": 5.0,
              "beat": 4.0,
              "pitch": 79,
              "duration": 0.65,
              "velocity": 54
            },
            {
              "bar": 6.0,
              "beat": 1.0,
              "pitch": 84,
              "duration": 0.65,
              "velocity": 54
            },
            {
              "bar": 6.0,
              "beat": 2.0,
              "pitch": 83,
              "duration": 0.65,
              "velocity": 54
            },
            {
              "bar": 6.0,
              "beat": 3.0,
              "pitch": 81,
              "duration": 0.65,
              "velocity": 54
            },
            {
              "bar": 6.0,
              "beat": 4.0,
              "pitch": 79,
              "duration": 0.65,
              "velocity": 54
            },
            {
              "bar": 7.0,
              "beat": 1.0,
              "pitch": 84,
              "duration": 0.65,
              "velocity": 54
            },
            {
              "bar": 7.0,
              "beat": 2.0,
              "pitch": 83,
              "duration": 0.65,
              "velocity": 54
            },
            {
              "bar": 7.0,
              "beat": 3.0,
              "pitch": 81,
              "duration": 0.65,
              "velocity": 54
            },
            {
              "bar": 7.0,
              "beat": 4.0,
              "pitch": 79,
              "duration": 0.65,
              "velocity": 54
            },
            {
              "bar": 8.0,
              "beat": 1.0,
              "pitch": 84,
              "duration": 0.65,
              "velocity": 54
            },
            {
              "bar": 8.0,
              "beat": 2.0,
              "pitch": 83,
              "duration": 0.65,
              "velocity": 54
            },
            {
              "bar": 8.0,
              "beat": 3.0,
              "pitch": 81,
              "duration": 0.65,
              "velocity": 54
            },
            {
              "bar": 8.0,
              "beat": 4.0,
              "pitch": 79,
              "duration": 0.65,
              "velocity": 54
            },
            {
              "bar": 9.0,
              "beat": 1.0,
              "pitch": 84,
              "duration": 0.65,
              "velocity": 54
            },
            {
              "bar": 9.0,
              "beat": 2.0,
              "pitch": 83,
              "duration": 0.65,
              "velocity": 54
            },
            {
              "bar": 9.0,
              "beat": 3.0,
              "pitch": 81,
              "duration": 0.65,
              "velocity": 54
            },
            {
              "bar": 9.0,
              "beat": 4.0,
              "pitch": 79,
              "duration": 0.65,
              "velocity": 54
            },
            {
              "bar": 10.0,
              "beat": 1.0,
              "pitch": 84,
              "duration": 0.65,
              "velocity": 54
            },
            {
              "bar": 10.0,
              "beat": 2.0,
              "pitch": 83,
              "duration": 0.65,
              "velocity": 54
            },
            {
              "bar": 10.0,
              "beat": 3.0,
              "pitch": 81,
              "duration": 0.65,
              "velocity": 54
            },
            {
              "bar": 10.0,
              "beat": 4.0,
              "pitch": 79,
              "duration": 0.65,
              "velocity": 54
            },
            {
              "bar": 11.0,
              "beat": 1.0,
              "pitch": 84,
              "duration": 0.65,
              "velocity": 54
            },
            {
              "bar": 11.0,
              "beat": 2.0,
              "pitch": 83,
              "duration": 0.65,
              "velocity": 54
            },
            {
              "bar": 11.0,
              "beat": 3.0,
              "pitch": 81,
              "duration": 0.65,
              "velocity": 54
            },
            {
              "bar": 11.0,
              "beat": 4.0,
              "pitch": 79,
              "duration": 0.65,
              "velocity": 54
            },
            {
              "bar": 12.0,
              "beat": 1.0,
              "pitch": 84,
              "duration": 0.65,
              "velocity": 54
            },
            {
              "bar": 12.0,
              "beat": 2.0,
              "pitch": 83,
              "duration": 0.65,
              "velocity": 54
            },
            {
              "bar": 12.0,
              "beat": 3.0,
              "pitch": 81,
              "duration": 0.65,
              "velocity": 54
            },
            {
              "bar": 12.0,
              "beat": 4.0,
              "pitch": 79,
              "duration": 0.65,
              "velocity": 54
            },
            {
              "bar": 13.0,
              "beat": 1.0,
              "pitch": 84,
              "duration": 0.65,
              "velocity": 54
            },
            {
              "bar": 13.0,
              "beat": 2.0,
              "pitch": 83,
              "duration": 0.65,
              "velocity": 54
            },
            {
              "bar": 13.0,
              "beat": 3.0,
              "pitch": 81,
              "duration": 0.65,
              "velocity": 54
            },
            {
              "bar": 13.0,
              "beat": 4.0,
              "pitch": 79,
              "duration": 0.65,
              "velocity": 54
            },
            {
              "bar": 14.0,
              "beat": 1.0,
              "pitch": 84,
              "duration": 0.65,
              "velocity": 54
            },
            {
              "bar": 14.0,
              "beat": 2.0,
              "pitch": 83,
              "duration": 0.65,
              "velocity": 54
            },
            {
              "bar": 14.0,
              "beat": 3.0,
              "pitch": 81,
              "duration": 0.65,
              "velocity": 54
            },
            {
              "bar": 14.0,
              "beat": 4.0,
              "pitch": 79,
              "duration": 0.65,
              "velocity": 54
            },
            {
              "bar": 15.0,
              "beat": 1.0,
              "pitch": 84,
              "duration": 0.65,
              "velocity": 54
            },
            {
              "bar": 15.0,
              "beat": 2.0,
              "pitch": 83,
              "duration": 0.65,
              "velocity": 54
            },
            {
              "bar": 15.0,
              "beat": 3.0,
              "pitch": 81,
              "duration": 0.65,
              "velocity": 54
            },
            {
              "bar": 15.0,
              "beat": 4.0,
              "pitch": 79,
              "duration": 0.65,
              "velocity": 54
            },
            {
              "bar": 16.0,
              "beat": 1.0,
              "pitch": 84,
              "duration": 0.65,
              "velocity": 54
            },
            {
              "bar": 16.0,
              "beat": 2.0,
              "pitch": 83,
              "duration": 0.65,
              "velocity": 54
            },
            {
              "bar": 16.0,
              "beat": 3.0,
              "pitch": 81,
              "duration": 0.65,
              "velocity": 54
            },
            {
              "bar": 16.0,
              "beat": 4.0,
              "pitch": 79,
              "duration": 0.65,
              "velocity": 54
            }
          ]
        },
        {
          "id": "final-chorus-counter",
          "name": "Final Chorus Counter",
          "bar": 57.0,
          "beats": 64.0,
          "color": "#77cf6d",
          "loop_count": 1,
          "notes": [
            {
              "bar": 1.0,
              "beat": 1.0,
              "pitch": 84,
              "duration": 0.65,
              "velocity": 54
            },
            {
              "bar": 1.0,
              "beat": 2.0,
              "pitch": 83,
              "duration": 0.65,
              "velocity": 54
            },
            {
              "bar": 1.0,
              "beat": 3.0,
              "pitch": 81,
              "duration": 0.65,
              "velocity": 54
            },
            {
              "bar": 1.0,
              "beat": 4.0,
              "pitch": 79,
              "duration": 0.65,
              "velocity": 54
            },
            {
              "bar": 2.0,
              "beat": 1.0,
              "pitch": 84,
              "duration": 0.65,
              "velocity": 54
            },
            {
              "bar": 2.0,
              "beat": 2.0,
              "pitch": 83,
              "duration": 0.65,
              "velocity": 54
            },
            {
              "bar": 2.0,
              "beat": 3.0,
              "pitch": 81,
              "duration": 0.65,
              "velocity": 54
            },
            {
              "bar": 2.0,
              "beat": 4.0,
              "pitch": 79,
              "duration": 0.65,
              "velocity": 54
            },
            {
              "bar": 3.0,
              "beat": 1.0,
              "pitch": 84,
              "duration": 0.65,
              "velocity": 54
            },
            {
              "bar": 3.0,
              "beat": 2.0,
              "pitch": 83,
              "duration": 0.65,
              "velocity": 54
            },
            {
              "bar": 3.0,
              "beat": 3.0,
              "pitch": 81,
              "duration": 0.65,
              "velocity": 54
            },
            {
              "bar": 3.0,
              "beat": 4.0,
              "pitch": 79,
              "duration": 0.65,
              "velocity": 54
            },
            {
              "bar": 4.0,
              "beat": 1.0,
              "pitch": 84,
              "duration": 0.65,
              "velocity": 54
            },
            {
              "bar": 4.0,
              "beat": 2.0,
              "pitch": 83,
              "duration": 0.65,
              "velocity": 54
            },
            {
              "bar": 4.0,
              "beat": 3.0,
              "pitch": 81,
              "duration": 0.65,
              "velocity": 54
            },
            {
              "bar": 4.0,
              "beat": 4.0,
              "pitch": 79,
              "duration": 0.65,
              "velocity": 54
            },
            {
              "bar": 5.0,
              "beat": 1.0,
              "pitch": 84,
              "duration": 0.65,
              "velocity": 54
            },
            {
              "bar": 5.0,
              "beat": 2.0,
              "pitch": 83,
              "duration": 0.65,
              "velocity": 54
            },
            {
              "bar": 5.0,
              "beat": 3.0,
              "pitch": 81,
              "duration": 0.65,
              "velocity": 54
            },
            {
              "bar": 5.0,
              "beat": 4.0,
              "pitch": 79,
              "duration": 0.65,
              "velocity": 54
            },
            {
              "bar": 6.0,
              "beat": 1.0,
              "pitch": 84,
              "duration": 0.65,
              "velocity": 54
            },
            {
              "bar": 6.0,
              "beat": 2.0,
              "pitch": 83,
              "duration": 0.65,
              "velocity": 54
            },
            {
              "bar": 6.0,
              "beat": 3.0,
              "pitch": 81,
              "duration": 0.65,
              "velocity": 54
            },
            {
              "bar": 6.0,
              "beat": 4.0,
              "pitch": 79,
              "duration": 0.65,
              "velocity": 54
            },
            {
              "bar": 7.0,
              "beat": 1.0,
              "pitch": 84,
              "duration": 0.65,
              "velocity": 54
            },
            {
              "bar": 7.0,
              "beat": 2.0,
              "pitch": 83,
              "duration": 0.65,
              "velocity": 54
            },
            {
              "bar": 7.0,
              "beat": 3.0,
              "pitch": 81,
              "duration": 0.65,
              "velocity": 54
            },
            {
              "bar": 7.0,
              "beat": 4.0,
              "pitch": 79,
              "duration": 0.65,
              "velocity": 54
            },
            {
              "bar": 8.0,
              "beat": 1.0,
              "pitch": 84,
              "duration": 0.65,
              "velocity": 54
            },
            {
              "bar": 8.0,
              "beat": 2.0,
              "pitch": 83,
              "duration": 0.65,
              "velocity": 54
            },
            {
              "bar": 8.0,
              "beat": 3.0,
              "pitch": 81,
              "duration": 0.65,
              "velocity": 54
            },
            {
              "bar": 8.0,
              "beat": 4.0,
              "pitch": 79,
              "duration": 0.65,
              "velocity": 54
            },
            {
              "bar": 9.0,
              "beat": 1.0,
              "pitch": 84,
              "duration": 0.65,
              "velocity": 54
            },
            {
              "bar": 9.0,
              "beat": 2.0,
              "pitch": 83,
              "duration": 0.65,
              "velocity": 54
            },
            {
              "bar": 9.0,
              "beat": 3.0,
              "pitch": 81,
              "duration": 0.65,
              "velocity": 54
            },
            {
              "bar": 9.0,
              "beat": 4.0,
              "pitch": 79,
              "duration": 0.65,
              "velocity": 54
            },
            {
              "bar": 10.0,
              "beat": 1.0,
              "pitch": 84,
              "duration": 0.65,
              "velocity": 54
            },
            {
              "bar": 10.0,
              "beat": 2.0,
              "pitch": 83,
              "duration": 0.65,
              "velocity": 54
            },
            {
              "bar": 10.0,
              "beat": 3.0,
              "pitch": 81,
              "duration": 0.65,
              "velocity": 54
            },
            {
              "bar": 10.0,
              "beat": 4.0,
              "pitch": 79,
              "duration": 0.65,
              "velocity": 54
            },
            {
              "bar": 11.0,
              "beat": 1.0,
              "pitch": 84,
              "duration": 0.65,
              "velocity": 54
            },
            {
              "bar": 11.0,
              "beat": 2.0,
              "pitch": 83,
              "duration": 0.65,
              "velocity": 54
            },
            {
              "bar": 11.0,
              "beat": 3.0,
              "pitch": 81,
              "duration": 0.65,
              "velocity": 54
            },
            {
              "bar": 11.0,
              "beat": 4.0,
              "pitch": 79,
              "duration": 0.65,
              "velocity": 54
            },
            {
              "bar": 12.0,
              "beat": 1.0,
              "pitch": 84,
              "duration": 0.65,
              "velocity": 54
            },
            {
              "bar": 12.0,
              "beat": 2.0,
              "pitch": 83,
              "duration": 0.65,
              "velocity": 54
            },
            {
              "bar": 12.0,
              "beat": 3.0,
              "pitch": 81,
              "duration": 0.65,
              "velocity": 54
            },
            {
              "bar": 12.0,
              "beat": 4.0,
              "pitch": 79,
              "duration": 0.65,
              "velocity": 54
            },
            {
              "bar": 13.0,
              "beat": 1.0,
              "pitch": 84,
              "duration": 0.65,
              "velocity": 54
            },
            {
              "bar": 13.0,
              "beat": 2.0,
              "pitch": 83,
              "duration": 0.65,
              "velocity": 54
            },
            {
              "bar": 13.0,
              "beat": 3.0,
              "pitch": 81,
              "duration": 0.65,
              "velocity": 54
            },
            {
              "bar": 13.0,
              "beat": 4.0,
              "pitch": 79,
              "duration": 0.65,
              "velocity": 54
            },
            {
              "bar": 14.0,
              "beat": 1.0,
              "pitch": 84,
              "duration": 0.65,
              "velocity": 54
            },
            {
              "bar": 14.0,
              "beat": 2.0,
              "pitch": 83,
              "duration": 0.65,
              "velocity": 54
            },
            {
              "bar": 14.0,
              "beat": 3.0,
              "pitch": 81,
              "duration": 0.65,
              "velocity": 54
            },
            {
              "bar": 14.0,
              "beat": 4.0,
              "pitch": 79,
              "duration": 0.65,
              "velocity": 54
            },
            {
              "bar": 15.0,
              "beat": 1.0,
              "pitch": 84,
              "duration": 0.65,
              "velocity": 54
            },
            {
              "bar": 15.0,
              "beat": 2.0,
              "pitch": 83,
              "duration": 0.65,
              "velocity": 54
            },
            {
              "bar": 15.0,
              "beat": 3.0,
              "pitch": 81,
              "duration": 0.65,
              "velocity": 54
            },
            {
              "bar": 15.0,
              "beat": 4.0,
              "pitch": 79,
              "duration": 0.65,
              "velocity": 54
            },
            {
              "bar": 16.0,
              "beat": 1.0,
              "pitch": 84,
              "duration": 0.65,
              "velocity": 54
            },
            {
              "bar": 16.0,
              "beat": 2.0,
              "pitch": 83,
              "duration": 0.65,
              "velocity": 54
            },
            {
              "bar": 16.0,
              "beat": 3.0,
              "pitch": 81,
              "duration": 0.65,
              "velocity": 54
            },
            {
              "bar": 16.0,
              "beat": 4.0,
              "pitch": 79,
              "duration": 0.65,
              "velocity": 54
            }
          ]
        }
      ],
      "audio_clips": [],
      "program": 0,
      "preset": "keys"
    },
    {
      "name": "Drums",
      "kind": "drum",
      "channel": 9,
      "volume": 92,
      "pan": 64,
      "muted": false,
      "solo": false,
      "record_armed": false,
      "effects": [],
      "notes": [],
      "clips": [
        {
          "id": "verse-a-drums",
          "name": "Verse A Drums",
          "bar": 9.0,
          "beats": 64.0,
          "color": "#2f73c8",
          "loop_count": 1,
          "notes": [
            {
              "bar": 1.0,
              "beat": 1.0,
              "pitch": 36,
              "duration": 0.1,
              "velocity": 92
            },
            {
              "bar": 1.0,
              "beat": 1.5,
              "pitch": 42,
              "duration": 0.1,
              "velocity": 48
            },
            {
              "bar": 1.0,
              "beat": 2.0,
              "pitch": 36,
              "duration": 0.1,
              "velocity": 92
            },
            {
              "bar": 1.0,
              "beat": 2.5,
              "pitch": 42,
              "duration": 0.1,
              "velocity": 48
            },
            {
              "bar": 1.0,
              "beat": 3.0,
              "pitch": 36,
              "duration": 0.1,
              "velocity": 92
            },
            {
              "bar": 1.0,
              "beat": 3.5,
              "pitch": 42,
              "duration": 0.1,
              "velocity": 48
            },
            {
              "bar": 1.0,
              "beat": 4.0,
              "pitch": 36,
              "duration": 0.1,
              "velocity": 92
            },
            {
              "bar": 1.0,
              "beat": 4.5,
              "pitch": 42,
              "duration": 0.1,
              "velocity": 48
            },
            {
              "bar": 2.0,
              "beat": 1.0,
              "pitch": 36,
              "duration": 0.1,
              "velocity": 92
            },
            {
              "bar": 2.0,
              "beat": 1.5,
              "pitch": 42,
              "duration": 0.1,
              "velocity": 48
            },
            {
              "bar": 2.0,
              "beat": 2.0,
              "pitch": 36,
              "duration": 0.1,
              "velocity": 92
            },
            {
              "bar": 2.0,
              "beat": 2.5,
              "pitch": 42,
              "duration": 0.1,
              "velocity": 48
            },
            {
              "bar": 2.0,
              "beat": 3.0,
              "pitch": 36,
              "duration": 0.1,
              "velocity": 92
            },
            {
              "bar": 2.0,
              "beat": 3.5,
              "pitch": 42,
              "duration": 0.1,
              "velocity": 48
            },
            {
              "bar": 2.0,
              "beat": 4.0,
              "pitch": 36,
              "duration": 0.1,
              "velocity": 92
            },
            {
              "bar": 2.0,
              "beat": 4.5,
              "pitch": 42,
              "duration": 0.1,
              "velocity": 48
            },
            {
              "bar": 3.0,
              "beat": 1.0,
              "pitch": 36,
              "duration": 0.1,
              "velocity": 92
            },
            {
              "bar": 3.0,
              "beat": 1.5,
              "pitch": 42,
              "duration": 0.1,
              "velocity": 48
            },
            {
              "bar": 3.0,
              "beat": 2.0,
              "pitch": 36,
              "duration": 0.1,
              "velocity": 92
            },
            {
              "bar": 3.0,
              "beat": 2.5,
              "pitch": 42,
              "duration": 0.1,
              "velocity": 48
            },
            {
              "bar": 3.0,
              "beat": 3.0,
              "pitch": 36,
              "duration": 0.1,
              "velocity": 92
            },
            {
              "bar": 3.0,
              "beat": 3.5,
              "pitch": 42,
              "duration": 0.1,
              "velocity": 48
            },
            {
              "bar": 3.0,
              "beat": 4.0,
              "pitch": 36,
              "duration": 0.1,
              "velocity": 92
            },
            {
              "bar": 3.0,
              "beat": 4.5,
              "pitch": 42,
              "duration": 0.1,
              "velocity": 48
            },
            {
              "bar": 4.0,
              "beat": 1.0,
              "pitch": 36,
              "duration": 0.1,
              "velocity": 92
            },
            {
              "bar": 4.0,
              "beat": 1.5,
              "pitch": 42,
              "duration": 0.1,
              "velocity": 48
            },
            {
              "bar": 4.0,
              "beat": 2.0,
              "pitch": 36,
              "duration": 0.1,
              "velocity": 92
            },
            {
              "bar": 4.0,
              "beat": 2.5,
              "pitch": 42,
              "duration": 0.1,
              "velocity": 48
            },
            {
              "bar": 4.0,
              "beat": 3.0,
              "pitch": 36,
              "duration": 0.1,
              "velocity": 92
            },
            {
              "bar": 4.0,
              "beat": 3.5,
              "pitch": 42,
              "duration": 0.1,
              "velocity": 48
            },
            {
              "bar": 4.0,
              "beat": 4.0,
              "pitch": 36,
              "duration": 0.1,
              "velocity": 92
            },
            {
              "bar": 4.0,
              "beat": 4.5,
              "pitch": 42,
              "duration": 0.1,
              "velocity": 48
            },
            {
              "bar": 5.0,
              "beat": 1.0,
              "pitch": 36,
              "duration": 0.1,
              "velocity": 92
            },
            {
              "bar": 5.0,
              "beat": 1.5,
              "pitch": 42,
              "duration": 0.1,
              "velocity": 48
            },
            {
              "bar": 5.0,
              "beat": 2.0,
              "pitch": 36,
              "duration": 0.1,
              "velocity": 92
            },
            {
              "bar": 5.0,
              "beat": 2.5,
              "pitch": 42,
              "duration": 0.1,
              "velocity": 48
            },
            {
              "bar": 5.0,
              "beat": 3.0,
              "pitch": 36,
              "duration": 0.1,
              "velocity": 92
            },
            {
              "bar": 5.0,
              "beat": 3.5,
              "pitch": 42,
              "duration": 0.1,
              "velocity": 48
            },
            {
              "bar": 5.0,
              "beat": 4.0,
              "pitch": 36,
              "duration": 0.1,
              "velocity": 92
            },
            {
              "bar": 5.0,
              "beat": 4.5,
              "pitch": 42,
              "duration": 0.1,
              "velocity": 48
            },
            {
              "bar": 6.0,
              "beat": 1.0,
              "pitch": 36,
              "duration": 0.1,
              "velocity": 92
            },
            {
              "bar": 6.0,
              "beat": 1.5,
              "pitch": 42,
              "duration": 0.1,
              "velocity": 48
            },
            {
              "bar": 6.0,
              "beat": 2.0,
              "pitch": 36,
              "duration": 0.1,
              "velocity": 92
            },
            {
              "bar": 6.0,
              "beat": 2.5,
              "pitch": 42,
              "duration": 0.1,
              "velocity": 48
            },
            {
              "bar": 6.0,
              "beat": 3.0,
              "pitch": 36,
              "duration": 0.1,
              "velocity": 92
            },
            {
              "bar": 6.0,
              "beat": 3.5,
              "pitch": 42,
              "duration": 0.1,
              "velocity": 48
            },
            {
              "bar": 6.0,
              "beat": 4.0,
              "pitch": 36,
              "duration": 0.1,
              "velocity": 92
            },
            {
              "bar": 6.0,
              "beat": 4.5,
              "pitch": 42,
              "duration": 0.1,
              "velocity": 48
            },
            {
              "bar": 7.0,
              "beat": 1.0,
              "pitch": 36,
              "duration": 0.1,
              "velocity": 92
            },
            {
              "bar": 7.0,
              "beat": 1.5,
              "pitch": 42,
              "duration": 0.1,
              "velocity": 48
            },
            {
              "bar": 7.0,
              "beat": 2.0,
              "pitch": 36,
              "duration": 0.1,
              "velocity": 92
            },
            {
              "bar": 7.0,
              "beat": 2.5,
              "pitch": 42,
              "duration": 0.1,
              "velocity": 48
            },
            {
              "bar": 7.0,
              "beat": 3.0,
              "pitch": 36,
              "duration": 0.1,
              "velocity": 92
            },
            {
              "bar": 7.0,
              "beat": 3.5,
              "pitch": 42,
              "duration": 0.1,
              "velocity": 48
            },
            {
              "bar": 7.0,
              "beat": 4.0,
              "pitch": 36,
              "duration": 0.1,
              "velocity": 92
            },
            {
              "bar": 7.0,
              "beat": 4.5,
              "pitch": 42,
              "duration": 0.1,
              "velocity": 48
            },
            {
              "bar": 8.0,
              "beat": 1.0,
              "pitch": 36,
              "duration": 0.1,
              "velocity": 92
            },
            {
              "bar": 8.0,
              "beat": 1.5,
              "pitch": 42,
              "duration": 0.1,
              "velocity": 48
            },
            {
              "bar": 8.0,
              "beat": 2.0,
              "pitch": 36,
              "duration": 0.1,
              "velocity": 92
            },
            {
              "bar": 8.0,
              "beat": 2.5,
              "pitch": 42,
              "duration": 0.1,
              "velocity": 48
            },
            {
              "bar": 8.0,
              "beat": 3.0,
              "pitch": 36,
              "duration": 0.1,
              "velocity": 92
            },
            {
              "bar": 8.0,
              "beat": 3.5,
              "pitch": 42,
              "duration": 0.1,
              "velocity": 48
            },
            {
              "bar": 8.0,
              "beat": 4.0,
              "pitch": 36,
              "duration": 0.1,
              "velocity": 92
            },
            {
              "bar": 8.0,
              "beat": 4.5,
              "pitch": 42,
              "duration": 0.1,
              "velocity": 48
            },
            {
              "bar": 9.0,
              "beat": 1.0,
              "pitch": 36,
              "duration": 0.1,
              "velocity": 92
            },
            {
              "bar": 9.0,
              "beat": 1.5,
              "pitch": 42,
              "duration": 0.1,
              "velocity": 48
            },
            {
              "bar": 9.0,
              "beat": 2.0,
              "pitch": 36,
              "duration": 0.1,
              "velocity": 92
            },
            {
              "bar": 9.0,
              "beat": 2.5,
              "pitch": 42,
              "duration": 0.1,
              "velocity": 48
            },
            {
              "bar": 9.0,
              "beat": 3.0,
              "pitch": 36,
              "duration": 0.1,
              "velocity": 92
            },
            {
              "bar": 9.0,
              "beat": 3.5,
              "pitch": 42,
              "duration": 0.1,
              "velocity": 48
            },
            {
              "bar": 9.0,
              "beat": 4.0,
              "pitch": 36,
              "duration": 0.1,
              "velocity": 92
            },
            {
              "bar": 9.0,
              "beat": 4.5,
              "pitch": 42,
              "duration": 0.1,
              "velocity": 48
            },
            {
              "bar": 10.0,
              "beat": 1.0,
              "pitch": 36,
              "duration": 0.1,
              "velocity": 92
            },
            {
              "bar": 10.0,
              "beat": 1.5,
              "pitch": 42,
              "duration": 0.1,
              "velocity": 48
            },
            {
              "bar": 10.0,
              "beat": 2.0,
              "pitch": 36,
              "duration": 0.1,
              "velocity": 92
            },
            {
              "bar": 10.0,
              "beat": 2.5,
              "pitch": 42,
              "duration": 0.1,
              "velocity": 48
            },
            {
              "bar": 10.0,
              "beat": 3.0,
              "pitch": 36,
              "duration": 0.1,
              "velocity": 92
            },
            {
              "bar": 10.0,
              "beat": 3.5,
              "pitch": 42,
              "duration": 0.1,
              "velocity": 48
            },
            {
              "bar": 10.0,
              "beat": 4.0,
              "pitch": 36,
              "duration": 0.1,
              "velocity": 92
            },
            {
              "bar": 10.0,
              "beat": 4.5,
              "pitch": 42,
              "duration": 0.1,
              "velocity": 48
            },
            {
              "bar": 11.0,
              "beat": 1.0,
              "pitch": 36,
              "duration": 0.1,
              "velocity": 92
            },
            {
              "bar": 11.0,
              "beat": 1.5,
              "pitch": 42,
              "duration": 0.1,
              "velocity": 48
            },
            {
              "bar": 11.0,
              "beat": 2.0,
              "pitch": 36,
              "duration": 0.1,
              "velocity": 92
            },
            {
              "bar": 11.0,
              "beat": 2.5,
              "pitch": 42,
              "duration": 0.1,
              "velocity": 48
            },
            {
              "bar": 11.0,
              "beat": 3.0,
              "pitch": 36,
              "duration": 0.1,
              "velocity": 92
            },
            {
              "bar": 11.0,
              "beat": 3.5,
              "pitch": 42,
              "duration": 0.1,
              "velocity": 48
            },
            {
              "bar": 11.0,
              "beat": 4.0,
              "pitch": 36,
              "duration": 0.1,
              "velocity": 92
            },
            {
              "bar": 11.0,
              "beat": 4.5,
              "pitch": 42,
              "duration": 0.1,
              "velocity": 48
            },
            {
              "bar": 12.0,
              "beat": 1.0,
              "pitch": 36,
              "duration": 0.1,
              "velocity": 92
            },
            {
              "bar": 12.0,
              "beat": 1.5,
              "pitch": 42,
              "duration": 0.1,
              "velocity": 48
            },
            {
              "bar": 12.0,
              "beat": 2.0,
              "pitch": 36,
              "duration": 0.1,
              "velocity": 92
            },
            {
              "bar": 12.0,
              "beat": 2.5,
              "pitch": 42,
              "duration": 0.1,
              "velocity": 48
            },
            {
              "bar": 12.0,
              "beat": 3.0,
              "pitch": 36,
              "duration": 0.1,
              "velocity": 92
            },
            {
              "bar": 12.0,
              "beat": 3.5,
              "pitch": 42,
              "duration": 0.1,
              "velocity": 48
            },
            {
              "bar": 12.0,
              "beat": 4.0,
              "pitch": 36,
              "duration": 0.1,
              "velocity": 92
            },
            {
              "bar": 12.0,
              "beat": 4.5,
              "pitch": 42,
              "duration": 0.1,
              "velocity": 48
            },
            {
              "bar": 13.0,
              "beat": 1.0,
              "pitch": 36,
              "duration": 0.1,
              "velocity": 92
            },
            {
              "bar": 13.0,
              "beat": 1.5,
              "pitch": 42,
              "duration": 0.1,
              "velocity": 48
            },
            {
              "bar": 13.0,
              "beat": 2.0,
              "pitch": 36,
              "duration": 0.1,
              "velocity": 92
            },
            {
              "bar": 13.0,
              "beat": 2.5,
              "pitch": 42,
              "duration": 0.1,
              "velocity": 48
            },
            {
              "bar": 13.0,
              "beat": 3.0,
              "pitch": 36,
              "duration": 0.1,
              "velocity": 92
            },
            {
              "bar": 13.0,
              "beat": 3.5,
              "pitch": 42,
              "duration": 0.1,
              "velocity": 48
            },
            {
              "bar": 13.0,
              "beat": 4.0,
              "pitch": 36,
              "duration": 0.1,
              "velocity": 92
            },
            {
              "bar": 13.0,
              "beat": 4.5,
              "pitch": 42,
              "duration": 0.1,
              "velocity": 48
            },
            {
              "bar": 14.0,
              "beat": 1.0,
              "pitch": 36,
              "duration": 0.1,
              "velocity": 92
            },
            {
              "bar": 14.0,
              "beat": 1.5,
              "pitch": 42,
              "duration": 0.1,
              "velocity": 48
            },
            {
              "bar": 14.0,
              "beat": 2.0,
              "pitch": 36,
              "duration": 0.1,
              "velocity": 92
            },
            {
              "bar": 14.0,
              "beat": 2.5,
              "pitch": 42,
              "duration": 0.1,
              "velocity": 48
            },
            {
              "bar": 14.0,
              "beat": 3.0,
              "pitch": 36,
              "duration": 0.1,
              "velocity": 92
            },
            {
              "bar": 14.0,
              "beat": 3.5,
              "pitch": 42,
              "duration": 0.1,
              "velocity": 48
            },
            {
              "bar": 14.0,
              "beat": 4.0,
              "pitch": 36,
              "duration": 0.1,
              "velocity": 92
            },
            {
              "bar": 14.0,
              "beat": 4.5,
              "pitch": 42,
              "duration": 0.1,
              "velocity": 48
            },
            {
              "bar": 15.0,
              "beat": 1.0,
              "pitch": 36,
              "duration": 0.1,
              "velocity": 92
            },
            {
              "bar": 15.0,
              "beat": 1.5,
              "pitch": 42,
              "duration": 0.1,
              "velocity": 48
            },
            {
              "bar": 15.0,
              "beat": 2.0,
              "pitch": 36,
              "duration": 0.1,
              "velocity": 92
            },
            {
              "bar": 15.0,
              "beat": 2.5,
              "pitch": 42,
              "duration": 0.1,
              "velocity": 48
            },
            {
              "bar": 15.0,
              "beat": 3.0,
              "pitch": 36,
              "duration": 0.1,
              "velocity": 92
            },
            {
              "bar": 15.0,
              "beat": 3.5,
              "pitch": 42,
              "duration": 0.1,
              "velocity": 48
            },
            {
              "bar": 15.0,
              "beat": 4.0,
              "pitch": 36,
              "duration": 0.1,
              "velocity": 92
            },
            {
              "bar": 15.0,
              "beat": 4.5,
              "pitch": 42,
              "duration": 0.1,
              "velocity": 48
            },
            {
              "bar": 16.0,
              "beat": 1.0,
              "pitch": 36,
              "duration": 0.1,
              "velocity": 92
            },
            {
              "bar": 16.0,
              "beat": 1.5,
              "pitch": 42,
              "duration": 0.1,
              "velocity": 48
            },
            {
              "bar": 16.0,
              "beat": 2.0,
              "pitch": 36,
              "duration": 0.1,
              "velocity": 92
            },
            {
              "bar": 16.0,
              "beat": 2.5,
              "pitch": 42,
              "duration": 0.1,
              "velocity": 48
            },
            {
              "bar": 16.0,
              "beat": 3.0,
              "pitch": 36,
              "duration": 0.1,
              "velocity": 92
            },
            {
              "bar": 16.0,
              "beat": 3.5,
              "pitch": 42,
              "duration": 0.1,
              "velocity": 48
            },
            {
              "bar": 16.0,
              "beat": 4.0,
              "pitch": 36,
              "duration": 0.1,
              "velocity": 92
            },
            {
              "bar": 16.0,
              "beat": 4.5,
              "pitch": 42,
              "duration": 0.1,
              "velocity": 48
            }
          ]
        },
        {
          "id": "pre-chorus-drums",
          "name": "Pre-Chorus Drums",
          "bar": 25.0,
          "beats": 32.0,
          "color": "#2f73c8",
          "loop_count": 1,
          "notes": [
            {
              "bar": 1.0,
              "beat": 1.0,
              "pitch": 36,
              "duration": 0.1,
              "velocity": 108
            },
            {
              "bar": 1.0,
              "beat": 2.0,
              "pitch": 36,
              "duration": 0.1,
              "velocity": 108
            },
            {
              "bar": 1.0,
              "beat": 3.0,
              "pitch": 36,
              "duration": 0.1,
              "velocity": 108
            },
            {
              "bar": 1.0,
              "beat": 4.0,
              "pitch": 36,
              "duration": 0.1,
              "velocity": 108
            },
            {
              "bar": 1.0,
              "beat": 2.0,
              "pitch": 38,
              "duration": 0.1,
              "velocity": 96
            },
            {
              "bar": 1.0,
              "beat": 4.0,
              "pitch": 38,
              "duration": 0.1,
              "velocity": 96
            },
            {
              "bar": 2.0,
              "beat": 1.0,
              "pitch": 36,
              "duration": 0.1,
              "velocity": 108
            },
            {
              "bar": 2.0,
              "beat": 2.0,
              "pitch": 36,
              "duration": 0.1,
              "velocity": 108
            },
            {
              "bar": 2.0,
              "beat": 3.0,
              "pitch": 36,
              "duration": 0.1,
              "velocity": 108
            },
            {
              "bar": 2.0,
              "beat": 4.0,
              "pitch": 36,
              "duration": 0.1,
              "velocity": 108
            },
            {
              "bar": 2.0,
              "beat": 2.0,
              "pitch": 38,
              "duration": 0.1,
              "velocity": 96
            },
            {
              "bar": 2.0,
              "beat": 4.0,
              "pitch": 38,
              "duration": 0.1,
              "velocity": 96
            },
            {
              "bar": 3.0,
              "beat": 1.0,
              "pitch": 36,
              "duration": 0.1,
              "velocity": 108
            },
            {
              "bar": 3.0,
              "beat": 2.0,
              "pitch": 36,
              "duration": 0.1,
              "velocity": 108
            },
            {
              "bar": 3.0,
              "beat": 3.0,
              "pitch": 36,
              "duration": 0.1,
              "velocity": 108
            },
            {
              "bar": 3.0,
              "beat": 4.0,
              "pitch": 36,
              "duration": 0.1,
              "velocity": 108
            },
            {
              "bar": 3.0,
              "beat": 2.0,
              "pitch": 38,
              "duration": 0.1,
              "velocity": 96
            },
            {
              "bar": 3.0,
              "beat": 4.0,
              "pitch": 38,
              "duration": 0.1,
              "velocity": 96
            },
            {
              "bar": 4.0,
              "beat": 1.0,
              "pitch": 36,
              "duration": 0.1,
              "velocity": 108
            },
            {
              "bar": 4.0,
              "beat": 2.0,
              "pitch": 36,
              "duration": 0.1,
              "velocity": 108
            },
            {
              "bar": 4.0,
              "beat": 3.0,
              "pitch": 36,
              "duration": 0.1,
              "velocity": 108
            },
            {
              "bar": 4.0,
              "beat": 4.0,
              "pitch": 36,
              "duration": 0.1,
              "velocity": 108
            },
            {
              "bar": 4.0,
              "beat": 2.0,
              "pitch": 38,
              "duration": 0.1,
              "velocity": 96
            },
            {
              "bar": 4.0,
              "beat": 4.0,
              "pitch": 38,
              "duration": 0.1,
              "velocity": 96
            },
            {
              "bar": 4.0,
              "beat": 3.0,
              "pitch": 38,
              "duration": 0.08,
              "velocity": 62
            },
            {
              "bar": 4.0,
              "beat": 3.16,
              "pitch": 38,
              "duration": 0.08,
              "velocity": 69
            },
            {
              "bar": 4.0,
              "beat": 3.32,
              "pitch": 38,
              "duration": 0.08,
              "velocity": 76
            },
            {
              "bar": 4.0,
              "beat": 3.48,
              "pitch": 38,
              "duration": 0.08,
              "velocity": 83
            },
            {
              "bar": 4.0,
              "beat": 3.64,
              "pitch": 38,
              "duration": 0.08,
              "velocity": 90
            },
            {
              "bar": 4.0,
              "beat": 3.8,
              "pitch": 38,
              "duration": 0.08,
              "velocity": 97
            },
            {
              "bar": 5.0,
              "beat": 1.0,
              "pitch": 36,
              "duration": 0.1,
              "velocity": 108
            },
            {
              "bar": 5.0,
              "beat": 2.0,
              "pitch": 36,
              "duration": 0.1,
              "velocity": 108
            },
            {
              "bar": 5.0,
              "beat": 3.0,
              "pitch": 36,
              "duration": 0.1,
              "velocity": 108
            },
            {
              "bar": 5.0,
              "beat": 4.0,
              "pitch": 36,
              "duration": 0.1,
              "velocity": 108
            },
            {
              "bar": 5.0,
              "beat": 2.0,
              "pitch": 38,
              "duration": 0.1,
              "velocity": 96
            },
            {
              "bar": 5.0,
              "beat": 4.0,
              "pitch": 38,
              "duration": 0.1,
              "velocity": 96
            },
            {
              "bar": 6.0,
              "beat": 1.0,
              "pitch": 36,
              "duration": 0.1,
              "velocity": 108
            },
            {
              "bar": 6.0,
              "beat": 2.0,
              "pitch": 36,
              "duration": 0.1,
              "velocity": 108
            },
            {
              "bar": 6.0,
              "beat": 3.0,
              "pitch": 36,
              "duration": 0.1,
              "velocity": 108
            },
            {
              "bar": 6.0,
              "beat": 4.0,
              "pitch": 36,
              "duration": 0.1,
              "velocity": 108
            },
            {
              "bar": 6.0,
              "beat": 2.0,
              "pitch": 38,
              "duration": 0.1,
              "velocity": 96
            },
            {
              "bar": 6.0,
              "beat": 4.0,
              "pitch": 38,
              "duration": 0.1,
              "velocity": 96
            },
            {
              "bar": 7.0,
              "beat": 1.0,
              "pitch": 36,
              "duration": 0.1,
              "velocity": 108
            },
            {
              "bar": 7.0,
              "beat": 2.0,
              "pitch": 36,
              "duration": 0.1,
              "velocity": 108
            },
            {
              "bar": 7.0,
              "beat": 3.0,
              "pitch": 36,
              "duration": 0.1,
              "velocity": 108
            },
            {
              "bar": 7.0,
              "beat": 4.0,
              "pitch": 36,
              "duration": 0.1,
              "velocity": 108
            },
            {
              "bar": 7.0,
              "beat": 2.0,
              "pitch": 38,
              "duration": 0.1,
              "velocity": 96
            },
            {
              "bar": 7.0,
              "beat": 4.0,
              "pitch": 38,
              "duration": 0.1,
              "velocity": 96
            },
            {
              "bar": 8.0,
              "beat": 1.0,
              "pitch": 36,
              "duration": 0.1,
              "velocity": 108
            },
            {
              "bar": 8.0,
              "beat": 2.0,
              "pitch": 36,
              "duration": 0.1,
              "velocity": 108
            },
            {
              "bar": 8.0,
              "beat": 3.0,
              "pitch": 36,
              "duration": 0.1,
              "velocity": 108
            },
            {
              "bar": 8.0,
              "beat": 4.0,
              "pitch": 36,
              "duration": 0.1,
              "velocity": 108
            },
            {
              "bar": 8.0,
              "beat": 2.0,
              "pitch": 38,
              "duration": 0.1,
              "velocity": 96
            },
            {
              "bar": 8.0,
              "beat": 4.0,
              "pitch": 38,
              "duration": 0.1,
              "velocity": 96
            },
            {
              "bar": 8.0,
              "beat": 3.0,
              "pitch": 38,
              "duration": 0.08,
              "velocity": 62
            },
            {
              "bar": 8.0,
              "beat": 3.16,
              "pitch": 38,
              "duration": 0.08,
              "velocity": 69
            },
            {
              "bar": 8.0,
              "beat": 3.32,
              "pitch": 38,
              "duration": 0.08,
              "velocity": 76
            },
            {
              "bar": 8.0,
              "beat": 3.48,
              "pitch": 38,
              "duration": 0.08,
              "velocity": 83
            },
            {
              "bar": 8.0,
              "beat": 3.64,
              "pitch": 38,
              "duration": 0.08,
              "velocity": 90
            },
            {
              "bar": 8.0,
              "beat": 3.8,
              "pitch": 38,
              "duration": 0.08,
              "velocity": 97
            }
          ]
        },
        {
          "id": "chorus-drums",
          "name": "Chorus Drums",
          "bar": 33.0,
          "beats": 64.0,
          "color": "#2f73c8",
          "loop_count": 1,
          "notes": [
            {
              "bar": 1.0,
              "beat": 1.0,
              "pitch": 36,
              "duration": 0.1,
              "velocity": 108
            },
            {
              "bar": 1.0,
              "beat": 2.0,
              "pitch": 36,
              "duration": 0.1,
              "velocity": 108
            },
            {
              "bar": 1.0,
              "beat": 3.0,
              "pitch": 36,
              "duration": 0.1,
              "velocity": 108
            },
            {
              "bar": 1.0,
              "beat": 4.0,
              "pitch": 36,
              "duration": 0.1,
              "velocity": 108
            },
            {
              "bar": 1.0,
              "beat": 2.0,
              "pitch": 38,
              "duration": 0.1,
              "velocity": 96
            },
            {
              "bar": 1.0,
              "beat": 4.0,
              "pitch": 38,
              "duration": 0.1,
              "velocity": 96
            },
            {
              "bar": 2.0,
              "beat": 1.0,
              "pitch": 36,
              "duration": 0.1,
              "velocity": 108
            },
            {
              "bar": 2.0,
              "beat": 2.0,
              "pitch": 36,
              "duration": 0.1,
              "velocity": 108
            },
            {
              "bar": 2.0,
              "beat": 3.0,
              "pitch": 36,
              "duration": 0.1,
              "velocity": 108
            },
            {
              "bar": 2.0,
              "beat": 4.0,
              "pitch": 36,
              "duration": 0.1,
              "velocity": 108
            },
            {
              "bar": 2.0,
              "beat": 2.0,
              "pitch": 38,
              "duration": 0.1,
              "velocity": 96
            },
            {
              "bar": 2.0,
              "beat": 4.0,
              "pitch": 38,
              "duration": 0.1,
              "velocity": 96
            },
            {
              "bar": 3.0,
              "beat": 1.0,
              "pitch": 36,
              "duration": 0.1,
              "velocity": 108
            },
            {
              "bar": 3.0,
              "beat": 2.0,
              "pitch": 36,
              "duration": 0.1,
              "velocity": 108
            },
            {
              "bar": 3.0,
              "beat": 3.0,
              "pitch": 36,
              "duration": 0.1,
              "velocity": 108
            },
            {
              "bar": 3.0,
              "beat": 4.0,
              "pitch": 36,
              "duration": 0.1,
              "velocity": 108
            },
            {
              "bar": 3.0,
              "beat": 2.0,
              "pitch": 38,
              "duration": 0.1,
              "velocity": 96
            },
            {
              "bar": 3.0,
              "beat": 4.0,
              "pitch": 38,
              "duration": 0.1,
              "velocity": 96
            },
            {
              "bar": 4.0,
              "beat": 1.0,
              "pitch": 36,
              "duration": 0.1,
              "velocity": 108
            },
            {
              "bar": 4.0,
              "beat": 2.0,
              "pitch": 36,
              "duration": 0.1,
              "velocity": 108
            },
            {
              "bar": 4.0,
              "beat": 3.0,
              "pitch": 36,
              "duration": 0.1,
              "velocity": 108
            },
            {
              "bar": 4.0,
              "beat": 4.0,
              "pitch": 36,
              "duration": 0.1,
              "velocity": 108
            },
            {
              "bar": 4.0,
              "beat": 2.0,
              "pitch": 38,
              "duration": 0.1,
              "velocity": 96
            },
            {
              "bar": 4.0,
              "beat": 4.0,
              "pitch": 38,
              "duration": 0.1,
              "velocity": 96
            },
            {
              "bar": 5.0,
              "beat": 1.0,
              "pitch": 36,
              "duration": 0.1,
              "velocity": 108
            },
            {
              "bar": 5.0,
              "beat": 2.0,
              "pitch": 36,
              "duration": 0.1,
              "velocity": 108
            },
            {
              "bar": 5.0,
              "beat": 3.0,
              "pitch": 36,
              "duration": 0.1,
              "velocity": 108
            },
            {
              "bar": 5.0,
              "beat": 4.0,
              "pitch": 36,
              "duration": 0.1,
              "velocity": 108
            },
            {
              "bar": 5.0,
              "beat": 2.0,
              "pitch": 38,
              "duration": 0.1,
              "velocity": 96
            },
            {
              "bar": 5.0,
              "beat": 4.0,
              "pitch": 38,
              "duration": 0.1,
              "velocity": 96
            },
            {
              "bar": 6.0,
              "beat": 1.0,
              "pitch": 36,
              "duration": 0.1,
              "velocity": 108
            },
            {
              "bar": 6.0,
              "beat": 2.0,
              "pitch": 36,
              "duration": 0.1,
              "velocity": 108
            },
            {
              "bar": 6.0,
              "beat": 3.0,
              "pitch": 36,
              "duration": 0.1,
              "velocity": 108
            },
            {
              "bar": 6.0,
              "beat": 4.0,
              "pitch": 36,
              "duration": 0.1,
              "velocity": 108
            },
            {
              "bar": 6.0,
              "beat": 2.0,
              "pitch": 38,
              "duration": 0.1,
              "velocity": 96
            },
            {
              "bar": 6.0,
              "beat": 4.0,
              "pitch": 38,
              "duration": 0.1,
              "velocity": 96
            },
            {
              "bar": 7.0,
              "beat": 1.0,
              "pitch": 36,
              "duration": 0.1,
              "velocity": 108
            },
            {
              "bar": 7.0,
              "beat": 2.0,
              "pitch": 36,
              "duration": 0.1,
              "velocity": 108
            },
            {
              "bar": 7.0,
              "beat": 3.0,
              "pitch": 36,
              "duration": 0.1,
              "velocity": 108
            },
            {
              "bar": 7.0,
              "beat": 4.0,
              "pitch": 36,
              "duration": 0.1,
              "velocity": 108
            },
            {
              "bar": 7.0,
              "beat": 2.0,
              "pitch": 38,
              "duration": 0.1,
              "velocity": 96
            },
            {
              "bar": 7.0,
              "beat": 4.0,
              "pitch": 38,
              "duration": 0.1,
              "velocity": 96
            },
            {
              "bar": 8.0,
              "beat": 1.0,
              "pitch": 36,
              "duration": 0.1,
              "velocity": 108
            },
            {
              "bar": 8.0,
              "beat": 2.0,
              "pitch": 36,
              "duration": 0.1,
              "velocity": 108
            },
            {
              "bar": 8.0,
              "beat": 3.0,
              "pitch": 36,
              "duration": 0.1,
              "velocity": 108
            },
            {
              "bar": 8.0,
              "beat": 4.0,
              "pitch": 36,
              "duration": 0.1,
              "velocity": 108
            },
            {
              "bar": 8.0,
              "beat": 2.0,
              "pitch": 38,
              "duration": 0.1,
              "velocity": 96
            },
            {
              "bar": 8.0,
              "beat": 4.0,
              "pitch": 38,
              "duration": 0.1,
              "velocity": 96
            },
            {
              "bar": 9.0,
              "beat": 1.0,
              "pitch": 36,
              "duration": 0.1,
              "velocity": 108
            },
            {
              "bar": 9.0,
              "beat": 2.0,
              "pitch": 36,
              "duration": 0.1,
              "velocity": 108
            },
            {
              "bar": 9.0,
              "beat": 3.0,
              "pitch": 36,
              "duration": 0.1,
              "velocity": 108
            },
            {
              "bar": 9.0,
              "beat": 4.0,
              "pitch": 36,
              "duration": 0.1,
              "velocity": 108
            },
            {
              "bar": 9.0,
              "beat": 2.0,
              "pitch": 38,
              "duration": 0.1,
              "velocity": 96
            },
            {
              "bar": 9.0,
              "beat": 4.0,
              "pitch": 38,
              "duration": 0.1,
              "velocity": 96
            },
            {
              "bar": 10.0,
              "beat": 1.0,
              "pitch": 36,
              "duration": 0.1,
              "velocity": 108
            },
            {
              "bar": 10.0,
              "beat": 2.0,
              "pitch": 36,
              "duration": 0.1,
              "velocity": 108
            },
            {
              "bar": 10.0,
              "beat": 3.0,
              "pitch": 36,
              "duration": 0.1,
              "velocity": 108
            },
            {
              "bar": 10.0,
              "beat": 4.0,
              "pitch": 36,
              "duration": 0.1,
              "velocity": 108
            },
            {
              "bar": 10.0,
              "beat": 2.0,
              "pitch": 38,
              "duration": 0.1,
              "velocity": 96
            },
            {
              "bar": 10.0,
              "beat": 4.0,
              "pitch": 38,
              "duration": 0.1,
              "velocity": 96
            },
            {
              "bar": 11.0,
              "beat": 1.0,
              "pitch": 36,
              "duration": 0.1,
              "velocity": 108
            },
            {
              "bar": 11.0,
              "beat": 2.0,
              "pitch": 36,
              "duration": 0.1,
              "velocity": 108
            },
            {
              "bar": 11.0,
              "beat": 3.0,
              "pitch": 36,
              "duration": 0.1,
              "velocity": 108
            },
            {
              "bar": 11.0,
              "beat": 4.0,
              "pitch": 36,
              "duration": 0.1,
              "velocity": 108
            },
            {
              "bar": 11.0,
              "beat": 2.0,
              "pitch": 38,
              "duration": 0.1,
              "velocity": 96
            },
            {
              "bar": 11.0,
              "beat": 4.0,
              "pitch": 38,
              "duration": 0.1,
              "velocity": 96
            },
            {
              "bar": 12.0,
              "beat": 1.0,
              "pitch": 36,
              "duration": 0.1,
              "velocity": 108
            },
            {
              "bar": 12.0,
              "beat": 2.0,
              "pitch": 36,
              "duration": 0.1,
              "velocity": 108
            },
            {
              "bar": 12.0,
              "beat": 3.0,
              "pitch": 36,
              "duration": 0.1,
              "velocity": 108
            },
            {
              "bar": 12.0,
              "beat": 4.0,
              "pitch": 36,
              "duration": 0.1,
              "velocity": 108
            },
            {
              "bar": 12.0,
              "beat": 2.0,
              "pitch": 38,
              "duration": 0.1,
              "velocity": 96
            },
            {
              "bar": 12.0,
              "beat": 4.0,
              "pitch": 38,
              "duration": 0.1,
              "velocity": 96
            },
            {
              "bar": 13.0,
              "beat": 1.0,
              "pitch": 36,
              "duration": 0.1,
              "velocity": 108
            },
            {
              "bar": 13.0,
              "beat": 2.0,
              "pitch": 36,
              "duration": 0.1,
              "velocity": 108
            },
            {
              "bar": 13.0,
              "beat": 3.0,
              "pitch": 36,
              "duration": 0.1,
              "velocity": 108
            },
            {
              "bar": 13.0,
              "beat": 4.0,
              "pitch": 36,
              "duration": 0.1,
              "velocity": 108
            },
            {
              "bar": 13.0,
              "beat": 2.0,
              "pitch": 38,
              "duration": 0.1,
              "velocity": 96
            },
            {
              "bar": 13.0,
              "beat": 4.0,
              "pitch": 38,
              "duration": 0.1,
              "velocity": 96
            },
            {
              "bar": 14.0,
              "beat": 1.0,
              "pitch": 36,
              "duration": 0.1,
              "velocity": 108
            },
            {
              "bar": 14.0,
              "beat": 2.0,
              "pitch": 36,
              "duration": 0.1,
              "velocity": 108
            },
            {
              "bar": 14.0,
              "beat": 3.0,
              "pitch": 36,
              "duration": 0.1,
              "velocity": 108
            },
            {
              "bar": 14.0,
              "beat": 4.0,
              "pitch": 36,
              "duration": 0.1,
              "velocity": 108
            },
            {
              "bar": 14.0,
              "beat": 2.0,
              "pitch": 38,
              "duration": 0.1,
              "velocity": 96
            },
            {
              "bar": 14.0,
              "beat": 4.0,
              "pitch": 38,
              "duration": 0.1,
              "velocity": 96
            },
            {
              "bar": 15.0,
              "beat": 1.0,
              "pitch": 36,
              "duration": 0.1,
              "velocity": 108
            },
            {
              "bar": 15.0,
              "beat": 2.0,
              "pitch": 36,
              "duration": 0.1,
              "velocity": 108
            },
            {
              "bar": 15.0,
              "beat": 3.0,
              "pitch": 36,
              "duration": 0.1,
              "velocity": 108
            },
            {
              "bar": 15.0,
              "beat": 4.0,
              "pitch": 36,
              "duration": 0.1,
              "velocity": 108
            },
            {
              "bar": 15.0,
              "beat": 2.0,
              "pitch": 38,
              "duration": 0.1,
              "velocity": 96
            },
            {
              "bar": 15.0,
              "beat": 4.0,
              "pitch": 38,
              "duration": 0.1,
              "velocity": 96
            },
            {
              "bar": 16.0,
              "beat": 1.0,
              "pitch": 36,
              "duration": 0.1,
              "velocity": 108
            },
            {
              "bar": 16.0,
              "beat": 2.0,
              "pitch": 36,
              "duration": 0.1,
              "velocity": 108
            },
            {
              "bar": 16.0,
              "beat": 3.0,
              "pitch": 36,
              "duration": 0.1,
              "velocity": 108
            },
            {
              "bar": 16.0,
              "beat": 4.0,
              "pitch": 36,
              "duration": 0.1,
              "velocity": 108
            },
            {
              "bar": 16.0,
              "beat": 2.0,
              "pitch": 38,
              "duration": 0.1,
              "velocity": 96
            },
            {
              "bar": 16.0,
              "beat": 4.0,
              "pitch": 38,
              "duration": 0.1,
              "velocity": 96
            }
          ]
        },
        {
          "id": "final-chorus-drums",
          "name": "Final Chorus Drums",
          "bar": 57.0,
          "beats": 64.0,
          "color": "#2f73c8",
          "loop_count": 1,
          "notes": [
            {
              "bar": 1.0,
              "beat": 1.0,
              "pitch": 36,
              "duration": 0.1,
              "velocity": 108
            },
            {
              "bar": 1.0,
              "beat": 2.0,
              "pitch": 36,
              "duration": 0.1,
              "velocity": 108
            },
            {
              "bar": 1.0,
              "beat": 3.0,
              "pitch": 36,
              "duration": 0.1,
              "velocity": 108
            },
            {
              "bar": 1.0,
              "beat": 4.0,
              "pitch": 36,
              "duration": 0.1,
              "velocity": 108
            },
            {
              "bar": 1.0,
              "beat": 2.0,
              "pitch": 38,
              "duration": 0.1,
              "velocity": 96
            },
            {
              "bar": 1.0,
              "beat": 4.0,
              "pitch": 38,
              "duration": 0.1,
              "velocity": 96
            },
            {
              "bar": 2.0,
              "beat": 1.0,
              "pitch": 36,
              "duration": 0.1,
              "velocity": 108
            },
            {
              "bar": 2.0,
              "beat": 2.0,
              "pitch": 36,
              "duration": 0.1,
              "velocity": 108
            },
            {
              "bar": 2.0,
              "beat": 3.0,
              "pitch": 36,
              "duration": 0.1,
              "velocity": 108
            },
            {
              "bar": 2.0,
              "beat": 4.0,
              "pitch": 36,
              "duration": 0.1,
              "velocity": 108
            },
            {
              "bar": 2.0,
              "beat": 2.0,
              "pitch": 38,
              "duration": 0.1,
              "velocity": 96
            },
            {
              "bar": 2.0,
              "beat": 4.0,
              "pitch": 38,
              "duration": 0.1,
              "velocity": 96
            },
            {
              "bar": 3.0,
              "beat": 1.0,
              "pitch": 36,
              "duration": 0.1,
              "velocity": 108
            },
            {
              "bar": 3.0,
              "beat": 2.0,
              "pitch": 36,
              "duration": 0.1,
              "velocity": 108
            },
            {
              "bar": 3.0,
              "beat": 3.0,
              "pitch": 36,
              "duration": 0.1,
              "velocity": 108
            },
            {
              "bar": 3.0,
              "beat": 4.0,
              "pitch": 36,
              "duration": 0.1,
              "velocity": 108
            },
            {
              "bar": 3.0,
              "beat": 2.0,
              "pitch": 38,
              "duration": 0.1,
              "velocity": 96
            },
            {
              "bar": 3.0,
              "beat": 4.0,
              "pitch": 38,
              "duration": 0.1,
              "velocity": 96
            },
            {
              "bar": 4.0,
              "beat": 1.0,
              "pitch": 36,
              "duration": 0.1,
              "velocity": 108
            },
            {
              "bar": 4.0,
              "beat": 2.0,
              "pitch": 36,
              "duration": 0.1,
              "velocity": 108
            },
            {
              "bar": 4.0,
              "beat": 3.0,
              "pitch": 36,
              "duration": 0.1,
              "velocity": 108
            },
            {
              "bar": 4.0,
              "beat": 4.0,
              "pitch": 36,
              "duration": 0.1,
              "velocity": 108
            },
            {
              "bar": 4.0,
              "beat": 2.0,
              "pitch": 38,
              "duration": 0.1,
              "velocity": 96
            },
            {
              "bar": 4.0,
              "beat": 4.0,
              "pitch": 38,
              "duration": 0.1,
              "velocity": 96
            },
            {
              "bar": 4.0,
              "beat": 3.0,
              "pitch": 38,
              "duration": 0.08,
              "velocity": 62
            },
            {
              "bar": 4.0,
              "beat": 3.16,
              "pitch": 38,
              "duration": 0.08,
              "velocity": 69
            },
            {
              "bar": 4.0,
              "beat": 3.32,
              "pitch": 38,
              "duration": 0.08,
              "velocity": 76
            },
            {
              "bar": 4.0,
              "beat": 3.48,
              "pitch": 38,
              "duration": 0.08,
              "velocity": 83
            },
            {
              "bar": 4.0,
              "beat": 3.64,
              "pitch": 38,
              "duration": 0.08,
              "velocity": 90
            },
            {
              "bar": 4.0,
              "beat": 3.8,
              "pitch": 38,
              "duration": 0.08,
              "velocity": 97
            },
            {
              "bar": 5.0,
              "beat": 1.0,
              "pitch": 36,
              "duration": 0.1,
              "velocity": 108
            },
            {
              "bar": 5.0,
              "beat": 2.0,
              "pitch": 36,
              "duration": 0.1,
              "velocity": 108
            },
            {
              "bar": 5.0,
              "beat": 3.0,
              "pitch": 36,
              "duration": 0.1,
              "velocity": 108
            },
            {
              "bar": 5.0,
              "beat": 4.0,
              "pitch": 36,
              "duration": 0.1,
              "velocity": 108
            },
            {
              "bar": 5.0,
              "beat": 2.0,
              "pitch": 38,
              "duration": 0.1,
              "velocity": 96
            },
            {
              "bar": 5.0,
              "beat": 4.0,
              "pitch": 38,
              "duration": 0.1,
              "velocity": 96
            },
            {
              "bar": 6.0,
              "beat": 1.0,
              "pitch": 36,
              "duration": 0.1,
              "velocity": 108
            },
            {
              "bar": 6.0,
              "beat": 2.0,
              "pitch": 36,
              "duration": 0.1,
              "velocity": 108
            },
            {
              "bar": 6.0,
              "beat": 3.0,
              "pitch": 36,
              "duration": 0.1,
              "velocity": 108
            },
            {
              "bar": 6.0,
              "beat": 4.0,
              "pitch": 36,
              "duration": 0.1,
              "velocity": 108
            },
            {
              "bar": 6.0,
              "beat": 2.0,
              "pitch": 38,
              "duration": 0.1,
              "velocity": 96
            },
            {
              "bar": 6.0,
              "beat": 4.0,
              "pitch": 38,
              "duration": 0.1,
              "velocity": 96
            },
            {
              "bar": 7.0,
              "beat": 1.0,
              "pitch": 36,
              "duration": 0.1,
              "velocity": 108
            },
            {
              "bar": 7.0,
              "beat": 2.0,
              "pitch": 36,
              "duration": 0.1,
              "velocity": 108
            },
            {
              "bar": 7.0,
              "beat": 3.0,
              "pitch": 36,
              "duration": 0.1,
              "velocity": 108
            },
            {
              "bar": 7.0,
              "beat": 4.0,
              "pitch": 36,
              "duration": 0.1,
              "velocity": 108
            },
            {
              "bar": 7.0,
              "beat": 2.0,
              "pitch": 38,
              "duration": 0.1,
              "velocity": 96
            },
            {
              "bar": 7.0,
              "beat": 4.0,
              "pitch": 38,
              "duration": 0.1,
              "velocity": 96
            },
            {
              "bar": 8.0,
              "beat": 1.0,
              "pitch": 36,
              "duration": 0.1,
              "velocity": 108
            },
            {
              "bar": 8.0,
              "beat": 2.0,
              "pitch": 36,
              "duration": 0.1,
              "velocity": 108
            },
            {
              "bar": 8.0,
              "beat": 3.0,
              "pitch": 36,
              "duration": 0.1,
              "velocity": 108
            },
            {
              "bar": 8.0,
              "beat": 4.0,
              "pitch": 36,
              "duration": 0.1,
              "velocity": 108
            },
            {
              "bar": 8.0,
              "beat": 2.0,
              "pitch": 38,
              "duration": 0.1,
              "velocity": 96
            },
            {
              "bar": 8.0,
              "beat": 4.0,
              "pitch": 38,
              "duration": 0.1,
              "velocity": 96
            },
            {
              "bar": 8.0,
              "beat": 3.0,
              "pitch": 38,
              "duration": 0.08,
              "velocity": 62
            },
            {
              "bar": 8.0,
              "beat": 3.16,
              "pitch": 38,
              "duration": 0.08,
              "velocity": 69
            },
            {
              "bar": 8.0,
              "beat": 3.32,
              "pitch": 38,
              "duration": 0.08,
              "velocity": 76
            },
            {
              "bar": 8.0,
              "beat": 3.48,
              "pitch": 38,
              "duration": 0.08,
              "velocity": 83
            },
            {
              "bar": 8.0,
              "beat": 3.64,
              "pitch": 38,
              "duration": 0.08,
              "velocity": 90
            },
            {
              "bar": 8.0,
              "beat": 3.8,
              "pitch": 38,
              "duration": 0.08,
              "velocity": 97
            },
            {
              "bar": 9.0,
              "beat": 1.0,
              "pitch": 36,
              "duration": 0.1,
              "velocity": 108
            },
            {
              "bar": 9.0,
              "beat": 2.0,
              "pitch": 36,
              "duration": 0.1,
              "velocity": 108
            },
            {
              "bar": 9.0,
              "beat": 3.0,
              "pitch": 36,
              "duration": 0.1,
              "velocity": 108
            },
            {
              "bar": 9.0,
              "beat": 4.0,
              "pitch": 36,
              "duration": 0.1,
              "velocity": 108
            },
            {
              "bar": 9.0,
              "beat": 2.0,
              "pitch": 38,
              "duration": 0.1,
              "velocity": 96
            },
            {
              "bar": 9.0,
              "beat": 4.0,
              "pitch": 38,
              "duration": 0.1,
              "velocity": 96
            },
            {
              "bar": 10.0,
              "beat": 1.0,
              "pitch": 36,
              "duration": 0.1,
              "velocity": 108
            },
            {
              "bar": 10.0,
              "beat": 2.0,
              "pitch": 36,
              "duration": 0.1,
              "velocity": 108
            },
            {
              "bar": 10.0,
              "beat": 3.0,
              "pitch": 36,
              "duration": 0.1,
              "velocity": 108
            },
            {
              "bar": 10.0,
              "beat": 4.0,
              "pitch": 36,
              "duration": 0.1,
              "velocity": 108
            },
            {
              "bar": 10.0,
              "beat": 2.0,
              "pitch": 38,
              "duration": 0.1,
              "velocity": 96
            },
            {
              "bar": 10.0,
              "beat": 4.0,
              "pitch": 38,
              "duration": 0.1,
              "velocity": 96
            },
            {
              "bar": 11.0,
              "beat": 1.0,
              "pitch": 36,
              "duration": 0.1,
              "velocity": 108
            },
            {
              "bar": 11.0,
              "beat": 2.0,
              "pitch": 36,
              "duration": 0.1,
              "velocity": 108
            },
            {
              "bar": 11.0,
              "beat": 3.0,
              "pitch": 36,
              "duration": 0.1,
              "velocity": 108
            },
            {
              "bar": 11.0,
              "beat": 4.0,
              "pitch": 36,
              "duration": 0.1,
              "velocity": 108
            },
            {
              "bar": 11.0,
              "beat": 2.0,
              "pitch": 38,
              "duration": 0.1,
              "velocity": 96
            },
            {
              "bar": 11.0,
              "beat": 4.0,
              "pitch": 38,
              "duration": 0.1,
              "velocity": 96
            },
            {
              "bar": 12.0,
              "beat": 1.0,
              "pitch": 36,
              "duration": 0.1,
              "velocity": 108
            },
            {
              "bar": 12.0,
              "beat": 2.0,
              "pitch": 36,
              "duration": 0.1,
              "velocity": 108
            },
            {
              "bar": 12.0,
              "beat": 3.0,
              "pitch": 36,
              "duration": 0.1,
              "velocity": 108
            },
            {
              "bar": 12.0,
              "beat": 4.0,
              "pitch": 36,
              "duration": 0.1,
              "velocity": 108
            },
            {
              "bar": 12.0,
              "beat": 2.0,
              "pitch": 38,
              "duration": 0.1,
              "velocity": 96
            },
            {
              "bar": 12.0,
              "beat": 4.0,
              "pitch": 38,
              "duration": 0.1,
              "velocity": 96
            },
            {
              "bar": 12.0,
              "beat": 3.0,
              "pitch": 38,
              "duration": 0.08,
              "velocity": 62
            },
            {
              "bar": 12.0,
              "beat": 3.16,
              "pitch": 38,
              "duration": 0.08,
              "velocity": 69
            },
            {
              "bar": 12.0,
              "beat": 3.32,
              "pitch": 38,
              "duration": 0.08,
              "velocity": 76
            },
            {
              "bar": 12.0,
              "beat": 3.48,
              "pitch": 38,
              "duration": 0.08,
              "velocity": 83
            },
            {
              "bar": 12.0,
              "beat": 3.64,
              "pitch": 38,
              "duration": 0.08,
              "velocity": 90
            },
            {
              "bar": 12.0,
              "beat": 3.8,
              "pitch": 38,
              "duration": 0.08,
              "velocity": 97
            },
            {
              "bar": 13.0,
              "beat": 1.0,
              "pitch": 36,
              "duration": 0.1,
              "velocity": 108
            },
            {
              "bar": 13.0,
              "beat": 2.0,
              "pitch": 36,
              "duration": 0.1,
              "velocity": 108
            },
            {
              "bar": 13.0,
              "beat": 3.0,
              "pitch": 36,
              "duration": 0.1,
              "velocity": 108
            },
            {
              "bar": 13.0,
              "beat": 4.0,
              "pitch": 36,
              "duration": 0.1,
              "velocity": 108
            },
            {
              "bar": 13.0,
              "beat": 2.0,
              "pitch": 38,
              "duration": 0.1,
              "velocity": 96
            },
            {
              "bar": 13.0,
              "beat": 4.0,
              "pitch": 38,
              "duration": 0.1,
              "velocity": 96
            },
            {
              "bar": 14.0,
              "beat": 1.0,
              "pitch": 36,
              "duration": 0.1,
              "velocity": 108
            },
            {
              "bar": 14.0,
              "beat": 2.0,
              "pitch": 36,
              "duration": 0.1,
              "velocity": 108
            },
            {
              "bar": 14.0,
              "beat": 3.0,
              "pitch": 36,
              "duration": 0.1,
              "velocity": 108
            },
            {
              "bar": 14.0,
              "beat": 4.0,
              "pitch": 36,
              "duration": 0.1,
              "velocity": 108
            },
            {
              "bar": 14.0,
              "beat": 2.0,
              "pitch": 38,
              "duration": 0.1,
              "velocity": 96
            },
            {
              "bar": 14.0,
              "beat": 4.0,
              "pitch": 38,
              "duration": 0.1,
              "velocity": 96
            },
            {
              "bar": 15.0,
              "beat": 1.0,
              "pitch": 36,
              "duration": 0.1,
              "velocity": 108
            },
            {
              "bar": 15.0,
              "beat": 2.0,
              "pitch": 36,
              "duration": 0.1,
              "velocity": 108
            },
            {
              "bar": 15.0,
              "beat": 3.0,
              "pitch": 36,
              "duration": 0.1,
              "velocity": 108
            },
            {
              "bar": 15.0,
              "beat": 4.0,
              "pitch": 36,
              "duration": 0.1,
              "velocity": 108
            },
            {
              "bar": 15.0,
              "beat": 2.0,
              "pitch": 38,
              "duration": 0.1,
              "velocity": 96
            },
            {
              "bar": 15.0,
              "beat": 4.0,
              "pitch": 38,
              "duration": 0.1,
              "velocity": 96
            },
            {
              "bar": 16.0,
              "beat": 1.0,
              "pitch": 36,
              "duration": 0.1,
              "velocity": 108
            },
            {
              "bar": 16.0,
              "beat": 2.0,
              "pitch": 36,
              "duration": 0.1,
              "velocity": 108
            },
            {
              "bar": 16.0,
              "beat": 3.0,
              "pitch": 36,
              "duration": 0.1,
              "velocity": 108
            },
            {
              "bar": 16.0,
              "beat": 4.0,
              "pitch": 36,
              "duration": 0.1,
              "velocity": 108
            },
            {
              "bar": 16.0,
              "beat": 2.0,
              "pitch": 38,
              "duration": 0.1,
              "velocity": 96
            },
            {
              "bar": 16.0,
              "beat": 4.0,
              "pitch": 38,
              "duration": 0.1,
              "velocity": 96
            },
            {
              "bar": 16.0,
              "beat": 3.0,
              "pitch": 38,
              "duration": 0.08,
              "velocity": 62
            },
            {
              "bar": 16.0,
              "beat": 3.16,
              "pitch": 38,
              "duration": 0.08,
              "velocity": 69
            },
            {
              "bar": 16.0,
              "beat": 3.32,
              "pitch": 38,
              "duration": 0.08,
              "velocity": 76
            },
            {
              "bar": 16.0,
              "beat": 3.48,
              "pitch": 38,
              "duration": 0.08,
              "velocity": 83
            },
            {
              "bar": 16.0,
              "beat": 3.64,
              "pitch": 38,
              "duration": 0.08,
              "velocity": 90
            },
            {
              "bar": 16.0,
              "beat": 3.8,
              "pitch": 38,
              "duration": 0.08,
              "velocity": 97
            }
          ]
        }
      ],
      "audio_clips": []
    }
  ],
  "master_effects": [
    {
      "type": "compressor",
      "enabled": true,
      "params": {
        "threshold_db": -10,
        "ratio": 1.8,
        "attack": 0.02,
        "release": 0.12,
        "makeup_db": 1.5
      }
    },
    {
      "type": "limiter",
      "enabled": true,
      "params": {
        "ceiling_db": -0.8
      }
    }
  ]
}
